STARTFONT 2.1
FONT -FontForge-Bitstream Vera Sans-Book-R-Normal-Sans--72-690-75-75-P-433-ISO8859-1
SIZE 69 75 75
FONTBOUNDINGBOX 105 84 -13 -17
COMMENT "Generated by fontforge, http://fontforge.sourceforge.net"
COMMENT "Copyright (c) 2003 by Bitstream, Inc. All Rights Reserved."
STARTPROPERTIES 40
FOUNDRY "FontForge"
FAMILY_NAME "Bitstream Vera Sans"
WEIGHT_NAME "Book"
SLANT "R"
SETWIDTH_NAME "Normal"
ADD_STYLE_NAME "Sans"
PIXEL_SIZE 72
POINT_SIZE 690
RESOLUTION_X 75
RESOLUTION_Y 75
SPACING "P"
AVERAGE_WIDTH 433
CHARSET_REGISTRY "ISO8859"
CHARSET_ENCODING "1"
FONTNAME_REGISTRY ""
CHARSET_COLLECTIONS "ISO8859-9 ISOLatin1Encoding"
FONT_NAME "BitstreamVeraSans-Roman"
FACE_NAME "Bitstream Vera Sans"
COPYRIGHT "Copyright (c) 2003 by Bitstream, Inc. All Rights Reserved."
FONT_VERSION "Release 1.10"
FONT_ASCENT 55
FONT_DESCENT 17
UNDERLINE_POSITION -10
UNDERLINE_THICKNESS 6
X_HEIGHT 38
CAP_HEIGHT 51
RAW_ASCENT 759
RAW_DESCENT 240
NORM_SPACE 23
RELATIVE_WEIGHT 40
RELATIVE_SETWIDTH 50
SUPERSCRIPT_X 0
SUPERSCRIPT_Y 20
SUPERSCRIPT_SIZE 43
SUBSCRIPT_X 0
SUBSCRIPT_Y -15
SUBSCRIPT_SIZE 43
FIGURE_WIDTH 46
AVG_LOWERCASE_WIDTH 412
AVG_UPPERCASE_WIDTH 481
ENDPROPERTIES
CHARS 268
STARTCHAR space
ENCODING 32
SWIDTH 317 0
DWIDTH 23 0
BBX 1 1 0 0
BITMAP
00
ENDCHAR
STARTCHAR exclam
ENCODING 33
SWIDTH 400 0
DWIDTH 29 0
BBX 7 52 11 0
BITMAP
FE
FE
FE
FE
FE
FE
FE
FE
FE
FE
FE
FE
FE
FE
FE
FE
FE
FE
FE
FE
FE
FE
FE
FE
FE
FE
FE
FE
FE
FE
FE
7E
7C
7C
7C
00
00
00
00
00
00
00
00
FE
FE
FE
FE
FE
FE
FE
FE
FE
ENDCHAR
STARTCHAR quotedbl
ENCODING 34
SWIDTH 459 0
DWIDTH 33 0
BBX 19 20 7 32
BITMAP
FC07E0
FC07E0
FC07E0
FC07E0
FC07E0
FC07E0
FC07E0
FC07E0
FC07E0
FC07E0
FC07E0
FC07E0
FC07E0
FC07E0
FC07E0
FC07E0
FC07E0
FC07E0
FC07E0
FC07E0
ENDCHAR
STARTCHAR numbersign
ENCODING 35
SWIDTH 837 0
DWIDTH 60 0
BBX 49 52 5 0
BITMAP
00000FC00FC000
00000F800F8000
00000F801F8000
00001F801F8000
00001F801F8000
00001F801F0000
00001F003F0000
00003F003F0000
00003F003F0000
00003F003E0000
00003E003E0000
00007E007E0000
00007E007E0000
00007E007C0000
00007C007C0000
0FFFFFFFFFFF80
0FFFFFFFFFFF80
0FFFFFFFFFFF80
0FFFFFFFFFFF80
0FFFFFFFFFFF80
0001F801F80000
0001F801F00000
0001F003F00000
0003F003F00000
0003F003F00000
0003F003E00000
0003E003E00000
0007E007E00000
0007E007E00000
0007E007C00000
0007C007C00000
000FC00FC00000
FFFFFFFFFFF800
FFFFFFFFFFF800
FFFFFFFFFFF800
FFFFFFFFFFF800
FFFFFFFFFFF800
001F001F000000
001F003F000000
003F003F000000
003F003F000000
003F003E000000
003E003E000000
007E007E000000
007E007E000000
007E007C000000
007C007C000000
00FC00FC000000
00FC00FC000000
00FC00F8000000
00F800F8000000
01F801F8000000
ENDCHAR
STARTCHAR dollar
ENCODING 36
SWIDTH 636 0
DWIDTH 46 0
BBX 35 65 5 -11
BITMAP
0001E00000
0001E00000
0001E00000
0001E00000
0001E00000
0001E00000
0001E00000
0001E00000
001FFF8000
00FFFFFC00
03FFFFFF00
0FFFFFFF00
1FFFFFFF00
3FF1E0FF00
3FC1E00F00
7F01E00100
7E01E00000
FE01E00000
FC01E00000
FC01E00000
FC01E00000
FC01E00000
FC01E00000
FE01E00000
FF01E00000
7F81E00000
7FF1E00000
3FFFE00000
1FFFFC0000
0FFFFFC000
03FFFFF000
00FFFFFC00
001FFFFE00
0001FFFF00
0001E7FF80
0001E0FFC0
0001E03FC0
0001E01FE0
0001E00FE0
0001E007E0
0001E007E0
0001E007E0
0001E007E0
0001E007E0
0001E00FE0
8001E00FC0
E001E01FC0
FC01E07F80
FF81E3FF00
FFFFFFFF00
FFFFFFFC00
7FFFFFF800
0FFFFFE000
007FFE0000
0001E00000
0001E00000
0001E00000
0001E00000
0001E00000
0001E00000
0001E00000
0001E00000
0001E00000
0001E00000
0001E00000
ENDCHAR
STARTCHAR percent
ENCODING 37
SWIDTH 950 0
DWIDTH 68 0
BBX 60 54 4 -1
BITMAP
00FF0000001F8000
03FFC000001F0000
07FFE000003F0000
0FFFF000007E0000
1FC3F800007C0000
3F81FC0000FC0000
3F00FC0000F80000
7E007E0001F80000
7E007E0003F00000
7E007E0003E00000
FC003F0007E00000
FC003F0007C00000
FC003F000FC00000
FC003F001F800000
FC003F001F000000
FC003F003F000000
FC003F003E000000
FC003F007E000000
FC003F00FC000000
7E007E00F8000000
7E007E01F8000000
7E007E01F0000000
3F00FC03F0000000
3F81FC07E0000000
1FC3F807C0000000
0FFFF00FC00FF000
07FFE00F803FFC00
03FFC01F807FFE00
00FF003F00FFFF00
0000003E01FC3F80
0000007E03F81FC0
0000007C03F00FC0
000000F807E007E0
000001F807E007E0
000001F007E007E0
000003F00FC003F0
000007E00FC003F0
000007C00FC003F0
00000FC00FC003F0
00000F800FC003F0
00001F800FC003F0
00003F000FC003F0
00003E000FC003F0
00007E000FC003F0
00007C0007E007E0
0000FC0007E007E0
0001F80007E007E0
0001F00003F00FC0
0003F00003F81FC0
0003E00001FC3F80
0007E00000FFFF00
000FC000007FFE00
000F8000003FFC00
001F8000000FF000
ENDCHAR
STARTCHAR ampersand
ENCODING 38
SWIDTH 779 0
DWIDTH 56 0
BBX 49 54 4 -1
BITMAP
0000FF80000000
0007FFF8000000
001FFFFE000000
003FFFFF000000
007FFFFF000000
00FFFFFF000000
01FFC07F000000
01FF000F000000
01FE0001000000
03FC0000000000
03F80000000000
03F80000000000
03F80000000000
03F80000000000
03F80000000000
03FC0000000000
01FC0000000000
01FE0000000000
00FF0000000000
00FF8000000000
007FC000000000
007FE000000000
00FFF000000000
01FFF800000000
03FFFC00000000
07FBFE0000FE00
0FF1FE0000FE00
1FE0FF0000FE00
3FC07F8000FC00
3F803FC001FC00
7F801FE001FC00
7F000FF001FC00
7F0007F801F800
FE0003FC03F800
FE0001FE03F000
FE0000FF03F000
FE00007F87E000
FE00003FC7E000
FE00001FEFC000
FE00000FFFC000
FF000007FF8000
7F000003FF0000
7F800001FE0000
7FC00000FF0000
3FE00001FF8000
3FF00007FFC000
1FF8001FFFE000
0FFF00FFFFF000
07FFFFFFCFF800
03FFFFFF87FC00
01FFFFFE03FE00
007FFFFC01FF00
001FFFE000FF80
0003FF00000000
ENDCHAR
STARTCHAR quotesingle
ENCODING 39
SWIDTH 274 0
DWIDTH 20 0
BBX 6 20 7 32
BITMAP
FC
FC
FC
FC
FC
FC
FC
FC
FC
FC
FC
FC
FC
FC
FC
FC
FC
FC
FC
FC
ENDCHAR
STARTCHAR parenleft
ENCODING 40
SWIDTH 390 0
DWIDTH 28 0
BBX 16 64 6 -9
BITMAP
003F
003E
007E
00FC
00FC
01F8
01F8
03F0
03F0
07E0
07E0
0FE0
0FC0
0FC0
1FC0
1F80
3F80
3F80
3F80
3F00
7F00
7F00
7F00
7F00
7E00
FE00
FE00
FE00
FE00
FE00
FE00
FE00
FE00
FE00
FE00
FE00
FE00
FE00
FE00
7E00
7F00
7F00
7F00
7F00
3F00
3F80
3F80
1F80
1F80
1FC0
0FC0
0FC0
0FE0
07E0
07E0
03F0
03F0
01F8
01F8
00FC
00FC
007E
003E
003F
ENDCHAR
STARTCHAR parenright
ENCODING 41
SWIDTH 390 0
DWIDTH 28 0
BBX 16 64 6 -9
BITMAP
FC00
7C00
7E00
3F00
3F00
1F80
1F80
0FC0
0FC0
07E0
07E0
07F0
03F0
03F0
03F8
01F8
01F8
01FC
01FC
00FC
00FE
00FE
00FE
00FE
007E
007F
007F
007F
007F
007F
007F
007F
007F
007F
007F
007F
007F
007F
007F
00FE
00FE
00FE
00FE
00FE
00FC
01FC
01FC
01F8
01F8
03F8
03F0
03F0
07F0
07E0
07E0
0FC0
0FC0
1F80
1F80
3F00
3F00
7E00
7C00
FC00
ENDCHAR
STARTCHAR asterisk
ENCODING 42
SWIDTH 500 0
DWIDTH 36 0
BBX 32 32 2 21
BITMAP
0003C000
0003C000
0003C000
0003C000
0003C000
0003C000
2003C004
7803C01E
7C03C03E
FF03C0FF
3FC3C3FC
0FF3CFF0
03FBDFC0
00FFFF00
003FFC00
000FF000
000FF000
003FFC00
00FFFF00
03FBDFC0
0FF3CFF0
3FC3C3FC
FF03C0FF
7C03C03E
7803C01E
2003C004
0003C000
0003C000
0003C000
0003C000
0003C000
0003C000
ENDCHAR
STARTCHAR plus
ENCODING 43
SWIDTH 837 0
DWIDTH 60 0
BBX 46 46 8 0
BITMAP
00000FC00000
00000FC00000
00000FC00000
00000FC00000
00000FC00000
00000FC00000
00000FC00000
00000FC00000
00000FC00000
00000FC00000
00000FC00000
00000FC00000
00000FC00000
00000FC00000
00000FC00000
00000FC00000
00000FC00000
00000FC00000
00000FC00000
00000FC00000
FFFFFFFFFFFC
FFFFFFFFFFFC
FFFFFFFFFFFC
FFFFFFFFFFFC
FFFFFFFFFFFC
FFFFFFFFFFFC
00000FC00000
00000FC00000
00000FC00000
00000FC00000
00000FC00000
00000FC00000
00000FC00000
00000FC00000
00000FC00000
00000FC00000
00000FC00000
00000FC00000
00000FC00000
00000FC00000
00000FC00000
00000FC00000
00000FC00000
00000FC00000
00000FC00000
00000FC00000
ENDCHAR
STARTCHAR comma
ENCODING 44
SWIDTH 317 0
DWIDTH 23 0
BBX 10 17 5 -8
BITMAP
1FC0
1FC0
1FC0
1FC0
1FC0
1FC0
1FC0
1F80
3F80
3F00
3F00
7F00
7E00
7E00
7C00
FC00
F800
ENDCHAR
STARTCHAR hyphen
ENCODING 45
SWIDTH 360 0
DWIDTH 26 0
BBX 19 6 4 17
BITMAP
FFFFE0
FFFFE0
FFFFE0
FFFFE0
FFFFE0
FFFFE0
ENDCHAR
STARTCHAR period
ENCODING 46
SWIDTH 317 0
DWIDTH 23 0
BBX 7 9 8 0
BITMAP
FE
FE
FE
FE
FE
FE
FE
FE
FE
ENDCHAR
STARTCHAR slash
ENCODING 47
SWIDTH 336 0
DWIDTH 24 0
BBX 24 59 0 -7
BITMAP
00003F
00003F
00007E
00007E
00007E
0000FC
0000FC
0000FC
0001F8
0001F8
0001F8
0001F0
0003F0
0003F0
0003F0
0007E0
0007E0
0007E0
000FC0
000FC0
000FC0
001F80
001F80
001F80
001F00
003F00
003F00
003F00
007E00
007E00
007E00
00FC00
00FC00
00FC00
00F800
01F800
01F800
01F800
03F000
03F000
03F000
07E000
07E000
07E000
0FC000
0FC000
0FC000
0F8000
1F8000
1F8000
1F8000
3F0000
3F0000
3F0000
7E0000
7E0000
7E0000
FC0000
FC0000
ENDCHAR
STARTCHAR zero
ENCODING 48
SWIDTH 636 0
DWIDTH 46 0
BBX 36 54 5 -1
BITMAP
0003FC0000
001FFF8000
007FFFE000
00FFFFF000
01FFFFF800
03FFFFFC00
07FE07FE00
0FF801FF00
0FF000FF00
1FE0007F80
1FC0003F80
3FC0003FC0
3F80001FC0
3F80001FC0
7F00000FE0
7F00000FE0
7F00000FE0
7F00000FE0
7F00000FE0
FE000007F0
FE000007F0
FE000007F0
FE000007F0
FE000007F0
FE000007F0
FE000007F0
FE000007F0
FE000007F0
FE000007F0
FE000007F0
FE000007F0
FE000007F0
FE000007F0
FE000007F0
FE000007F0
7F00000FE0
7F00000FE0
7F00000FE0
7F00000FE0
7F00000FE0
3F80001FC0
3F80001FC0
3FC0003FC0
1FC0003F80
1FE0007F80
0FF000FF00
0FF801FF00
07FE07FE00
03FFFFFC00
01FFFFF800
00FFFFF000
007FFFE000
001FFF8000
0007FC0000
ENDCHAR
STARTCHAR one
ENCODING 49
SWIDTH 636 0
DWIDTH 46 0
BBX 32 52 8 0
BITMAP
001FF000
03FFF000
3FFFF000
FFFFF000
FFFFF000
FFFFF000
FFE7F000
FE07F000
C007F000
0007F000
0007F000
0007F000
0007F000
0007F000
0007F000
0007F000
0007F000
0007F000
0007F000
0007F000
0007F000
0007F000
0007F000
0007F000
0007F000
0007F000
0007F000
0007F000
0007F000
0007F000
0007F000
0007F000
0007F000
0007F000
0007F000
0007F000
0007F000
0007F000
0007F000
0007F000
0007F000
0007F000
0007F000
0007F000
0007F000
0007F000
7FFFFFFF
7FFFFFFF
7FFFFFFF
7FFFFFFF
7FFFFFFF
7FFFFFFF
ENDCHAR
STARTCHAR two
ENCODING 50
SWIDTH 636 0
DWIDTH 46 0
BBX 33 53 5 0
BITMAP
003FF00000
07FFFF0000
3FFFFFC000
FFFFFFE000
FFFFFFF800
FFFFFFFC00
FFC01FFC00
FC0007FE00
E00001FF00
800000FF00
0000007F00
0000007F80
0000003F80
0000003F80
0000003F80
0000003F80
0000003F80
0000003F80
0000007F80
0000007F00
0000007F00
000000FF00
000001FE00
000001FC00
000003FC00
000007F800
00000FF000
00001FE000
00003FE000
00007FC000
0000FF8000
0001FF0000
0003FE0000
0007FC0000
000FF80000
001FF00000
003FE00000
007FC00000
00FF800000
01FF000000
03FE000000
07FC000000
0FF8000000
1FF0000000
3FE0000000
7FC0000000
FF80000000
FFFFFFFF80
FFFFFFFF80
FFFFFFFF80
FFFFFFFF80
FFFFFFFF80
FFFFFFFF80
ENDCHAR
STARTCHAR three
ENCODING 51
SWIDTH 636 0
DWIDTH 46 0
BBX 35 54 5 -1
BITMAP
007FF80000
0FFFFF8000
3FFFFFE000
3FFFFFF000
3FFFFFF800
3FFFFFFC00
3F801FFE00
300003FF00
000000FF00
0000007F00
0000007F80
0000003F80
0000003F80
0000003F80
0000003F80
0000003F80
0000003F80
0000007F00
0000007F00
000000FE00
000003FE00
00000FFC00
007FFFF800
007FFFE000
007FFF0000
007FFFC000
007FFFF000
007FFFFC00
00000FFE00
000001FF00
000000FF80
0000003FC0
0000003FC0
0000001FC0
0000001FE0
0000000FE0
0000000FE0
0000000FE0
0000000FE0
0000000FE0
0000000FE0
0000001FE0
0000001FC0
0000003FC0
8000007FC0
E00000FF80
F80001FF80
FF801FFF00
FFFFFFFE00
FFFFFFFC00
FFFFFFF800
7FFFFFE000
0FFFFF8000
00FFF00000
ENDCHAR
STARTCHAR four
ENCODING 52
SWIDTH 636 0
DWIDTH 46 0
BBX 38 52 4 0
BITMAP
000003FE00
000007FE00
00000FFE00
00000FFE00
00001FFE00
00003FFE00
00003FFE00
00007EFE00
0000FCFE00
0000FCFE00
0001F8FE00
0003F8FE00
0003F0FE00
0007E0FE00
000FE0FE00
000FC0FE00
001F80FE00
003F80FE00
003F00FE00
007E00FE00
00FE00FE00
00FC00FE00
01F800FE00
03F800FE00
03F000FE00
07E000FE00
0FE000FE00
0FC000FE00
1F8000FE00
3F8000FE00
3F0000FE00
7E0000FE00
FE0000FE00
FC0000FE00
FFFFFFFFFC
FFFFFFFFFC
FFFFFFFFFC
FFFFFFFFFC
FFFFFFFFFC
FFFFFFFFFC
000000FE00
000000FE00
000000FE00
000000FE00
000000FE00
000000FE00
000000FE00
000000FE00
000000FE00
000000FE00
000000FE00
000000FE00
ENDCHAR
STARTCHAR five
ENCODING 53
SWIDTH 636 0
DWIDTH 46 0
BBX 34 53 5 -1
BITMAP
3FFFFFFC00
3FFFFFFC00
3FFFFFFC00
3FFFFFFC00
3FFFFFFC00
3FFFFFFC00
3F80000000
3F80000000
3F80000000
3F80000000
3F80000000
3F80000000
3F80000000
3F80000000
3F80000000
3F80000000
3F80000000
3F9FF00000
3FFFFF0000
3FFFFFC000
3FFFFFE000
3FFFFFF800
3FFFFFFC00
3F803FFC00
380007FE00
200003FF00
000000FF00
0000007F80
0000007F80
0000003F80
0000003FC0
0000001FC0
0000001FC0
0000001FC0
0000001FC0
0000001FC0
0000001FC0
0000001FC0
0000001FC0
0000003FC0
0000003F80
0000007F80
0000007F80
000000FF00
800001FF00
F00007FE00
FF003FFC00
FFFFFFFC00
FFFFFFF000
FFFFFFE000
FFFFFF8000
3FFFFE0000
01FFE00000
ENDCHAR
STARTCHAR six
ENCODING 54
SWIDTH 636 0
DWIDTH 46 0
BBX 36 54 5 -1
BITMAP
00007FE000
0003FFFE00
000FFFFF80
003FFFFF80
007FFFFF80
00FFFFFF80
01FFC01F80
03FE000180
07FC000000
0FF0000000
0FF0000000
1FE0000000
1FC0000000
3FC0000000
3F80000000
3F80000000
7F00000000
7F00000000
7F00000000
7F01FF0000
FF07FFE000
FE1FFFF800
FE3FFFFC00
FE7FFFFE00
FEFFFFFF00
FFFE03FF80
FFF800FFC0
FFE0003FC0
FFC0001FE0
FFC0001FE0
FF80000FE0
FF80000FE0
FF000007F0
FF000007F0
FF000007F0
7F000007F0
7F000007F0
7F000007F0
7F000007F0
7F000007F0
3F00000FF0
3F80000FE0
3F80000FE0
1FC0001FE0
1FC0001FC0
0FE0003FC0
0FF800FF80
07FE03FF80
03FFFFFF00
01FFFFFE00
00FFFFFC00
007FFFF000
001FFFE000
0003FE0000
ENDCHAR
STARTCHAR seven
ENCODING 55
SWIDTH 636 0
DWIDTH 46 0
BBX 34 52 5 0
BITMAP
FFFFFFFFC0
FFFFFFFFC0
FFFFFFFFC0
FFFFFFFFC0
FFFFFFFF80
FFFFFFFF80
0000007F80
0000007F00
000000FF00
000000FE00
000001FE00
000001FE00
000001FC00
000003FC00
000003F800
000007F800
000007F800
000007F000
00000FF000
00000FE000
00000FE000
00001FE000
00001FC000
00003FC000
00003F8000
00003F8000
00007F8000
00007F0000
0000FF0000
0000FE0000
0000FE0000
0001FE0000
0001FC0000
0003FC0000
0003FC0000
0003F80000
0007F80000
0007F00000
000FF00000
000FF00000
000FE00000
001FE00000
001FC00000
003FC00000
003FC00000
003F800000
007F800000
007F000000
00FF000000
00FF000000
00FE000000
01FE000000
ENDCHAR
STARTCHAR eight
ENCODING 56
SWIDTH 636 0
DWIDTH 46 0
BBX 36 54 5 -1
BITMAP
0007FF0000
007FFFE000
01FFFFF800
03FFFFFC00
0FFFFFFF00
0FFFFFFF00
1FFC03FF80
3FF000FFC0
3FC0003FC0
7F80001FC0
7F80001FE0
7F00000FE0
7F00000FE0
7F00000FE0
7F00000FE0
7F00000FE0
7F00000FE0
3F80001FC0
3F80001FC0
1FC0003F80
1FF000FF80
0FFC03FF00
03FFFFFC00
01FFFFF800
003FFFC000
00FFFFF000
03FFFFFC00
07FFFFFE00
0FFC03FF00
1FF000FF80
3FC0003FC0
7F80001FE0
7F00000FE0
7F00000FE0
FE00000FF0
FE000007F0
FE000007F0
FE000007F0
FE000007F0
FE000007F0
FE000007F0
FE00000FF0
FF00000FF0
7F00000FE0
7F80001FE0
7FC0003FE0
3FF000FFC0
1FFC03FF80
1FFFFFFF80
0FFFFFFF00
07FFFFFE00
01FFFFF800
007FFFE000
000FFE0000
ENDCHAR
STARTCHAR nine
ENCODING 57
SWIDTH 636 0
DWIDTH 46 0
BBX 36 54 5 -1
BITMAP
0007FC0000
003FFF8000
00FFFFE000
03FFFFF000
07FFFFF800
0FFFFFFC00
1FFC07FE00
1FF001FF00
3FC0007F00
3FC0007F80
7F80003F80
7F00001FC0
7F00001FC0
FF00001FC0
FE00000FE0
FE00000FE0
FE00000FE0
FE00000FE0
FE00000FE0
FE00000FF0
FE00000FF0
FE00000FF0
FF00001FF0
7F00001FF0
7F80003FF0
7F80003FF0
3FC0007FF0
3FF001FFF0
1FFC07FFF0
0FFFFFF7F0
07FFFFE7F0
03FFFFC7F0
01FFFF87F0
007FFE0FF0
000FF80FE0
0000000FE0
0000000FE0
0000001FE0
0000001FC0
0000001FC0
0000003FC0
0000003F80
0000007F80
000000FF00
000000FF00
000003FE00
180007FC00
1F803FF800
1FFFFFF000
1FFFFFE000
1FFFFFC000
1FFFFF0000
07FFFC0000
007FE00000
ENDCHAR
STARTCHAR colon
ENCODING 58
SWIDTH 336 0
DWIDTH 24 0
BBX 7 37 8 0
BITMAP
FE
FE
FE
FE
FE
FE
FE
FE
FE
00
00
00
00
00
00
00
00
00
00
00
00
00
00
00
00
00
00
00
FE
FE
FE
FE
FE
FE
FE
FE
FE
ENDCHAR
STARTCHAR semicolon
ENCODING 59
SWIDTH 336 0
DWIDTH 24 0
BBX 10 45 5 -8
BITMAP
1FC0
1FC0
1FC0
1FC0
1FC0
1FC0
1FC0
1FC0
1FC0
0000
0000
0000
0000
0000
0000
0000
0000
0000
0000
0000
0000
0000
0000
0000
0000
0000
0000
0000
1FC0
1FC0
1FC0
1FC0
1FC0
1FC0
1FC0
1F80
3F80
3F00
3F00
7F00
7E00
7E00
7C00
FC00
F800
ENDCHAR
STARTCHAR less
ENCODING 60
SWIDTH 837 0
DWIDTH 60 0
BBX 45 39 8 3
BITMAP
000000000008
000000000078
0000000003F8
000000001FF8
000000007FF8
00000003FFF8
0000001FFFF8
0000007FFFC0
000003FFFE00
00001FFFF800
0000FFFFC000
0003FFFE0000
001FFFF00000
00FFFFC00000
03FFFE000000
1FFFF0000000
FFFF80000000
FFFC00000000
FFF000000000
FF8000000000
FFF000000000
FFFC00000000
FFFF80000000
1FFFF0000000
03FFFE000000
00FFFF800000
001FFFF00000
0003FFFE0000
0000FFFFC000
00001FFFF800
000003FFFE00
0000007FFFC0
0000001FFFF8
00000003FFF8
000000007FF8
000000001FF8
0000000003F8
000000000078
000000000008
ENDCHAR
STARTCHAR equal
ENCODING 61
SWIDTH 837 0
DWIDTH 60 0
BBX 45 20 8 12
BITMAP
FFFFFFFFFFF8
FFFFFFFFFFF8
FFFFFFFFFFF8
FFFFFFFFFFF8
FFFFFFFFFFF8
FFFFFFFFFFF8
000000000000
000000000000
000000000000
000000000000
000000000000
000000000000
000000000000
000000000000
FFFFFFFFFFF8
FFFFFFFFFFF8
FFFFFFFFFFF8
FFFFFFFFFFF8
FFFFFFFFFFF8
FFFFFFFFFFF8
ENDCHAR
STARTCHAR greater
ENCODING 62
SWIDTH 837 0
DWIDTH 60 0
BBX 45 39 8 3
BITMAP
800000000000
F00000000000
FE0000000000
FFC000000000
FFF000000000
FFFE00000000
FFFFC0000000
1FFFF0000000
03FFFE000000
00FFFFC00000
001FFFF80000
0003FFFE0000
00007FFFC000
00001FFFF800
000003FFFE00
0000007FFFC0
0000000FFFF8
00000003FFF8
000000007FF8
000000000FF8
000000007FF8
00000001FFF8
0000000FFFF8
0000007FFFC0
000003FFFE00
00000FFFF800
00007FFFC000
0003FFFE0000
001FFFF80000
00FFFFC00000
03FFFE000000
1FFFF0000000
FFFFC0000000
FFFE00000000
FFF000000000
FFC000000000
FE0000000000
F00000000000
800000000000
ENDCHAR
STARTCHAR question
ENCODING 63
SWIDTH 530 0
DWIDTH 38 0
BBX 28 53 5 0
BITMAP
007FC000
07FFF800
1FFFFE00
7FFFFF00
FFFFFF80
FFFFFFC0
FF80FFE0
FC003FE0
F0001FE0
C0000FF0
800007F0
000007F0
000007F0
000007F0
000007F0
00000FF0
00000FE0
00001FE0
00001FC0
00003FC0
00007F80
0000FF00
0001FE00
0003FC00
0007F800
000FF000
001FE000
003FC000
003F8000
007F8000
007F0000
007F0000
007F0000
007F0000
007F0000
007F0000
007F0000
007F0000
007F0000
00000000
00000000
00000000
00000000
00000000
007F0000
007F0000
007F0000
007F0000
007F0000
007F0000
007F0000
007F0000
007F0000
ENDCHAR
STARTCHAR at
ENCODING 64
SWIDTH 1000 0
DWIDTH 72 0
BBX 62 63 5 -12
BITMAP
0000003FFC000000
000003FFFFC00000
00001FFFFFF80000
00007FFFFFFE0000
0001FFFFFFFF8000
0003FFE003FFC000
000FFE00007FF000
001FF000000FF800
003FC0000003FC00
007F80000001FE00
00FE000000007F00
01FC000000003F80
03F8000000001F80
03F0000000000FC0
07E00000000007E0
0FC00000000007E0
0FC0003FC00003F0
1F8001FFF87C01F0
1F0003FFFC7C01F0
3F0007FFFE7C00F8
3E000FFFFF7C00F8
3E001FF03FFC00F8
7E003FC00FFC00FC
7C003F8007FC007C
7C007F0003FC007C
7C007E0001FC007C
F8007E0001FC007C
F800FC0001FC007C
F800FC0000FC007C
F800FC0000FC007C
F800FC0000FC007C
F800FC0000FC007C
F800FC0000FC00F8
F800FC0000FC00F8
F800FC0000FC00F8
F800FC0001FC01F8
F8007E0001FC01F0
FC007E0001FC03F0
7C007F0003FC07E0
7C003F8007FC0FC0
7C003FC00FFC1F80
7E001FF03FFCFF00
3E000FFFFF7FFE00
3F0007FFFE7FFC00
1F0003FFFC7FF000
1F8001FFF87FC000
0F80003FC07C0000
0FC0000000000000
07E0000000000000
07F0000000000000
03F8000000000000
01FC000000000000
00FE000000008000
007F00000003C000
003FC0000007C000
001FF000001FE000
000FFC0000FFE000
0007FFC007FFC000
0001FFFFFFFF0000
00007FFFFFFC0000
00001FFFFFF00000
000003FFFF800000
0000003FF8000000
ENDCHAR
STARTCHAR A
ENCODING 65
SWIDTH 684 0
DWIDTH 49 0
BBX 48 52 1 0
BITMAP
00000FF00000
00001FF80000
00001FF80000
00001FF80000
00003FFC0000
00003FFC0000
00007FFE0000
00007FFE0000
00007E7E0000
0000FE7F0000
0000FE7F0000
0000FC3F0000
0001FC3F8000
0001FC3F8000
0003F81FC000
0003F81FC000
0003F00FC000
0007F00FE000
0007F00FE000
000FE007F000
000FE007F000
000FE007F000
001FC003F800
001FC003F800
001FC003F800
003F8001FC00
003F8001FC00
007F0000FE00
007F0000FE00
007F0000FE00
00FE00007F00
00FE00007F00
01FE00007F80
01FFFFFFFF80
01FFFFFFFF80
03FFFFFFFFC0
03FFFFFFFFC0
03FFFFFFFFC0
07FFFFFFFFE0
07F000000FE0
0FF000000FF0
0FE0000007F0
0FE0000007F0
1FE0000003F8
1FC0000003F8
3FC0000003F8
3FC0000001FC
3F80000001FC
7F80000001FE
7F00000000FE
7F00000000FE
FF00000000FF
ENDCHAR
STARTCHAR B
ENCODING 66
SWIDTH 686 0
DWIDTH 49 0
BBX 37 52 7 0
BITMAP
FFFFFF0000
FFFFFFE000
FFFFFFF800
FFFFFFFE00
FFFFFFFF00
FFFFFFFF80
FE0003FF80
FE00007FC0
FE00003FC0
FE00001FE0
FE00001FE0
FE00000FE0
FE00000FE0
FE00000FE0
FE00000FE0
FE00000FE0
FE00001FE0
FE00001FC0
FE00003FC0
FE00007F80
FE0003FF00
FFFFFFFE00
FFFFFFFC00
FFFFFFE000
FFFFFFF800
FFFFFFFE00
FFFFFFFF00
FE0001FF80
FE00003FC0
FE00001FE0
FE00000FF0
FE000007F0
FE000007F0
FE000003F8
FE000003F8
FE000003F8
FE000003F8
FE000003F8
FE000003F8
FE000003F8
FE000007F8
FE000007F8
FE00000FF0
FE00001FF0
FE00003FE0
FE0001FFE0
FFFFFFFFC0
FFFFFFFF80
FFFFFFFF00
FFFFFFFC00
FFFFFFF000
FFFFFF8000
ENDCHAR
STARTCHAR C
ENCODING 67
SWIDTH 698 0
DWIDTH 50 0
BBX 42 54 4 -1
BITMAP
00000FFE0000
0000FFFFE000
0007FFFFFC00
001FFFFFFF00
003FFFFFFF80
007FFFFFFFC0
00FFF801FFC0
01FF80003FC0
03FE000007C0
07FC000003C0
0FF8000000C0
0FF000000040
1FE000000000
1FC000000000
3FC000000000
3F8000000000
7F8000000000
7F0000000000
7F0000000000
7F0000000000
FF0000000000
FE0000000000
FE0000000000
FE0000000000
FE0000000000
FE0000000000
FE0000000000
FE0000000000
FE0000000000
FE0000000000
FE0000000000
FE0000000000
FE0000000000
FF0000000000
7F0000000000
7F0000000000
7F0000000000
7F8000000000
3F8000000000
3FC000000000
1FC000000000
1FE000000000
0FF000000040
0FF8000000C0
07FC000003C0
03FE000007C0
01FF80003FC0
01FFF801FFC0
007FFFFFFFC0
003FFFFFFF80
001FFFFFFE00
0007FFFFFC00
0000FFFFE000
00001FFE0000
ENDCHAR
STARTCHAR D
ENCODING 68
SWIDTH 770 0
DWIDTH 55 0
BBX 44 52 7 0
BITMAP
FFFFFC000000
FFFFFFF00000
FFFFFFFE0000
FFFFFFFF8000
FFFFFFFFE000
FFFFFFFFF000
FE0003FFF800
FE00003FFC00
FE00000FFE00
FE000003FF00
FE000001FF00
FE0000007F80
FE0000007F80
FE0000003FC0
FE0000001FC0
FE0000001FE0
FE0000000FE0
FE0000000FE0
FE0000000FE0
FE0000000FF0
FE00000007F0
FE00000007F0
FE00000007F0
FE00000007F0
FE00000007F0
FE00000007F0
FE00000007F0
FE00000007F0
FE00000007F0
FE00000007F0
FE00000007F0
FE00000007F0
FE0000000FE0
FE0000000FE0
FE0000000FE0
FE0000001FE0
FE0000001FE0
FE0000001FC0
FE0000003FC0
FE0000007F80
FE0000007F80
FE000000FF00
FE000003FF00
FE000007FE00
FE00003FFC00
FE0003FFF800
FFFFFFFFF000
FFFFFFFFC000
FFFFFFFF8000
FFFFFFFC0000
FFFFFFF00000
FFFFFC000000
ENDCHAR
STARTCHAR E
ENCODING 69
SWIDTH 631 0
DWIDTH 46 0
BBX 34 52 7 0
BITMAP
FFFFFFFF80
FFFFFFFF80
FFFFFFFF80
FFFFFFFF80
FFFFFFFF80
FFFFFFFF80
FE00000000
FE00000000
FE00000000
FE00000000
FE00000000
FE00000000
FE00000000
FE00000000
FE00000000
FE00000000
FE00000000
FE00000000
FE00000000
FE00000000
FE00000000
FFFFFFFF00
FFFFFFFF00
FFFFFFFF00
FFFFFFFF00
FFFFFFFF00
FFFFFFFF00
FE00000000
FE00000000
FE00000000
FE00000000
FE00000000
FE00000000
FE00000000
FE00000000
FE00000000
FE00000000
FE00000000
FE00000000
FE00000000
FE00000000
FE00000000
FE00000000
FE00000000
FE00000000
FE00000000
FFFFFFFFC0
FFFFFFFFC0
FFFFFFFFC0
FFFFFFFFC0
FFFFFFFFC0
FFFFFFFFC0
ENDCHAR
STARTCHAR F
ENCODING 70
SWIDTH 575 0
DWIDTH 41 0
BBX 30 52 7 0
BITMAP
FFFFFFFC
FFFFFFFC
FFFFFFFC
FFFFFFFC
FFFFFFFC
FFFFFFFC
FE000000
FE000000
FE000000
FE000000
FE000000
FE000000
FE000000
FE000000
FE000000
FE000000
FE000000
FE000000
FE000000
FE000000
FE000000
FFFFFFF0
FFFFFFF0
FFFFFFF0
FFFFFFF0
FFFFFFF0
FFFFFFF0
FE000000
FE000000
FE000000
FE000000
FE000000
FE000000
FE000000
FE000000
FE000000
FE000000
FE000000
FE000000
FE000000
FE000000
FE000000
FE000000
FE000000
FE000000
FE000000
FE000000
FE000000
FE000000
FE000000
FE000000
FE000000
ENDCHAR
STARTCHAR G
ENCODING 71
SWIDTH 774 0
DWIDTH 56 0
BBX 46 54 4 -1
BITMAP
00000FFF8000
0000FFFFF800
0003FFFFFF00
000FFFFFFFC0
003FFFFFFFF0
007FFFFFFFF8
00FFF800FFF8
01FFC0000FF8
03FF000001F8
07FC00000078
0FF800000018
0FF000000008
1FE000000000
1FC000000000
3FC000000000
3F8000000000
7F8000000000
7F0000000000
7F0000000000
7F0000000000
FF0000000000
FE0000000000
FE0000000000
FE0000000000
FE0000000000
FE00001FFFFC
FE00001FFFFC
FE00001FFFFC
FE00001FFFFC
FE00001FFFFC
FE00001FFFFC
FE00000001FC
FE00000001FC
FF00000001FC
7F00000001FC
7F00000001FC
7F00000001FC
7F80000001FC
3F80000001FC
3FC0000001FC
1FC0000001FC
1FE0000001FC
0FF0000001FC
0FF8000001FC
07FC000001FC
03FF000001FC
01FFC0000FFC
00FFF8007FFC
007FFFFFFFF8
003FFFFFFFF0
000FFFFFFFC0
0007FFFFFF00
0000FFFFF800
00000FFF0000
ENDCHAR
STARTCHAR H
ENCODING 72
SWIDTH 751 0
DWIDTH 54 0
BBX 40 52 7 0
BITMAP
FE0000007F
FE0000007F
FE0000007F
FE0000007F
FE0000007F
FE0000007F
FE0000007F
FE0000007F
FE0000007F
FE0000007F
FE0000007F
FE0000007F
FE0000007F
FE0000007F
FE0000007F
FE0000007F
FE0000007F
FE0000007F
FE0000007F
FE0000007F
FE0000007F
FFFFFFFFFF
FFFFFFFFFF
FFFFFFFFFF
FFFFFFFFFF
FFFFFFFFFF
FFFFFFFFFF
FE0000007F
FE0000007F
FE0000007F
FE0000007F
FE0000007F
FE0000007F
FE0000007F
FE0000007F
FE0000007F
FE0000007F
FE0000007F
FE0000007F
FE0000007F
FE0000007F
FE0000007F
FE0000007F
FE0000007F
FE0000007F
FE0000007F
FE0000007F
FE0000007F
FE0000007F
FE0000007F
FE0000007F
FE0000007F
ENDCHAR
STARTCHAR I
ENCODING 73
SWIDTH 294 0
DWIDTH 21 0
BBX 7 52 7 0
BITMAP
FE
FE
FE
FE
FE
FE
FE
FE
FE
FE
FE
FE
FE
FE
FE
FE
FE
FE
FE
FE
FE
FE
FE
FE
FE
FE
FE
FE
FE
FE
FE
FE
FE
FE
FE
FE
FE
FE
FE
FE
FE
FE
FE
FE
FE
FE
FE
FE
FE
FE
FE
FE
ENDCHAR
STARTCHAR J
ENCODING 74
SWIDTH 294 0
DWIDTH 21 0
BBX 18 66 -4 -14
BITMAP
001FC0
001FC0
001FC0
001FC0
001FC0
001FC0
001FC0
001FC0
001FC0
001FC0
001FC0
001FC0
001FC0
001FC0
001FC0
001FC0
001FC0
001FC0
001FC0
001FC0
001FC0
001FC0
001FC0
001FC0
001FC0
001FC0
001FC0
001FC0
001FC0
001FC0
001FC0
001FC0
001FC0
001FC0
001FC0
001FC0
001FC0
001FC0
001FC0
001FC0
001FC0
001FC0
001FC0
001FC0
001FC0
001FC0
001FC0
001FC0
001FC0
001FC0
001FC0
001FC0
001FC0
001FC0
003F80
003F80
003F80
007F80
00FF00
03FF00
FFFE00
FFFE00
FFFC00
FFF000
FFE000
FF0000
ENDCHAR
STARTCHAR K
ENCODING 75
SWIDTH 655 0
DWIDTH 47 0
BBX 42 52 7 0
BITMAP
FE000003FE00
FE000007FC00
FE00000FF800
FE00001FF000
FE00003FE000
FE00007FC000
FE0000FF8000
FE0001FF0000
FE0003FE0000
FE000FFC0000
FE001FF80000
FE003FF00000
FE007FC00000
FE00FF800000
FE01FF000000
FE03FE000000
FE07FC000000
FE0FF8000000
FE1FF0000000
FE3FE0000000
FE7FC0000000
FEFF80000000
FFFF00000000
FFFE00000000
FFFC00000000
FFFE00000000
FFFF00000000
FEFF80000000
FE7FC0000000
FE3FE0000000
FE1FF0000000
FE0FF8000000
FE07FC000000
FE03FE000000
FE01FF000000
FE00FF800000
FE007FC00000
FE003FE00000
FE001FF00000
FE000FF80000
FE0007FC0000
FE0003FE0000
FE0001FF0000
FE0000FF8000
FE00007FC000
FE00003FE000
FE00001FF000
FE00000FF800
FE000007FC00
FE000003FE00
FE000001FF00
FE000000FFC0
ENDCHAR
STARTCHAR L
ENCODING 76
SWIDTH 557 0
DWIDTH 40 0
BBX 33 52 7 0
BITMAP
FE00000000
FE00000000
FE00000000
FE00000000
FE00000000
FE00000000
FE00000000
FE00000000
FE00000000
FE00000000
FE00000000
FE00000000
FE00000000
FE00000000
FE00000000
FE00000000
FE00000000
FE00000000
FE00000000
FE00000000
FE00000000
FE00000000
FE00000000
FE00000000
FE00000000
FE00000000
FE00000000
FE00000000
FE00000000
FE00000000
FE00000000
FE00000000
FE00000000
FE00000000
FE00000000
FE00000000
FE00000000
FE00000000
FE00000000
FE00000000
FE00000000
FE00000000
FE00000000
FE00000000
FE00000000
FE00000000
FFFFFFFF80
FFFFFFFF80
FFFFFFFF80
FFFFFFFF80
FFFFFFFF80
FFFFFFFF80
ENDCHAR
STARTCHAR M
ENCODING 77
SWIDTH 862 0
DWIDTH 62 0
BBX 48 52 7 0
BITMAP
FFE0000007FF
FFE0000007FF
FFF000000FFF
FFF000000FFF
FFF000000FFF
FFF800001FFF
FFF800001FFF
FFF800001FFF
FEFC00003F7F
FEFC00003F7F
FE7E00007E7F
FE7E00007E7F
FE7E00007E7F
FE3F0000FC7F
FE3F0000FC7F
FE3F8001FC7F
FE1F8001F87F
FE1F8001F87F
FE0FC003F07F
FE0FC003F07F
FE0FC003F07F
FE07E007E07F
FE07E007E07F
FE07F00FE07F
FE03F00FC07F
FE03F00FC07F
FE01F81F807F
FE01F81F807F
FE01F81F807F
FE00FC3F007F
FE00FC3F007F
FE00FE7F007F
FE007E7E007F
FE007E7E007F
FE003FFC007F
FE003FFC007F
FE003FFC007F
FE001FF8007F
FE001FF8007F
FE000FF8007F
FE000FF0007F
FE000FF0007F
FE000000007F
FE000000007F
FE000000007F
FE000000007F
FE000000007F
FE000000007F
FE000000007F
FE000000007F
FE000000007F
FE000000007F
ENDCHAR
STARTCHAR N
ENCODING 78
SWIDTH 748 0
DWIDTH 54 0
BBX 40 52 7 0
BITMAP
FFC000007F
FFC000007F
FFE000007F
FFF000007F
FFF000007F
FFF800007F
FFF800007F
FFFC00007F
FFFC00007F
FEFE00007F
FEFE00007F
FE7F00007F
FE7F00007F
FE3F80007F
FE3F80007F
FE1FC0007F
FE1FE0007F
FE0FE0007F
FE0FF0007F
FE07F0007F
FE07F8007F
FE03F8007F
FE01FC007F
FE01FC007F
FE00FE007F
FE00FE007F
FE007F007F
FE007F007F
FE003F807F
FE003F807F
FE001FC07F
FE001FE07F
FE000FE07F
FE000FF07F
FE0007F07F
FE0007F87F
FE0003F87F
FE0001FC7F
FE0001FC7F
FE0000FE7F
FE0000FE7F
FE00007F7F
FE00007F7F
FE00003FFF
FE00003FFF
FE00001FFF
FE00001FFF
FE00000FFF
FE00000FFF
FE000007FF
FE000003FF
FE000003FF
ENDCHAR
STARTCHAR O
ENCODING 79
SWIDTH 787 0
DWIDTH 57 0
BBX 49 54 4 -1
BITMAP
00001FFC000000
0001FFFFC00000
0007FFFFF00000
001FFFFFFC0000
003FFFFFFE0000
007FFFFFFF0000
01FFF007FFC000
01FF8000FFC000
03FE00003FE000
07FC00001FF000
0FF800000FF800
0FF0000007F800
1FE0000003FC00
1FC0000001FC00
3FC0000001FE00
3F80000000FE00
7F80000000FF00
7F000000007F00
7F000000007F00
7F000000007F00
FF000000007F00
FE000000003F80
FE000000003F80
FE000000003F80
FE000000003F80
FE000000003F80
FE000000003F80
FE000000003F80
FE000000003F80
FE000000003F80
FE000000003F80
FE000000003F80
FE000000003F80
FF000000007F00
7F000000007F00
7F000000007F00
7F000000007F00
7F80000000FF00
3F80000000FE00
3FC0000001FE00
1FC0000001FC00
1FE0000003FC00
0FF0000007F800
0FF800000FF800
07FC00001FF000
03FE00003FE000
03FF8000FFC000
01FFF007FFC000
007FFFFFFF8000
003FFFFFFE0000
001FFFFFFC0000
0007FFFFF00000
0001FFFFC00000
00001FFC000000
ENDCHAR
STARTCHAR P
ENCODING 80
SWIDTH 603 0
DWIDTH 43 0
BBX 34 52 7 0
BITMAP
FFFFFC0000
FFFFFF8000
FFFFFFF000
FFFFFFF800
FFFFFFFC00
FFFFFFFE00
FE000FFF00
FE0001FF00
FE0000FF80
FE00007F80
FE00003F80
FE00003FC0
FE00001FC0
FE00001FC0
FE00001FC0
FE00001FC0
FE00001FC0
FE00001FC0
FE00001FC0
FE00003FC0
FE00003F80
FE00007F80
FE0000FF80
FE0001FF00
FE000FFF00
FFFFFFFE00
FFFFFFFC00
FFFFFFF800
FFFFFFE000
FFFFFFC000
FFFFFC0000
FE00000000
FE00000000
FE00000000
FE00000000
FE00000000
FE00000000
FE00000000
FE00000000
FE00000000
FE00000000
FE00000000
FE00000000
FE00000000
FE00000000
FE00000000
FE00000000
FE00000000
FE00000000
FE00000000
FE00000000
FE00000000
ENDCHAR
STARTCHAR Q
ENCODING 81
SWIDTH 787 0
DWIDTH 57 0
BBX 49 62 4 -9
BITMAP
00001FFC000000
0001FFFFC00000
0007FFFFF00000
001FFFFFFC0000
003FFFFFFE0000
007FFFFFFF0000
01FFF007FFC000
01FF8000FFC000
03FE00003FE000
07FC00001FF000
0FF800000FF800
0FF0000007F800
1FE0000003FC00
1FC0000001FC00
3FC0000001FE00
3F80000000FE00
7F80000000FF00
7F000000007F00
7F000000007F00
7F000000007F00
FF000000007F00
FE000000003F80
FE000000003F80
FE000000003F80
FE000000003F80
FE000000003F80
FE000000003F80
FE000000003F80
FE000000003F80
FE000000003F80
FE000000003F80
FE000000003F80
FE000000003F80
FF000000007F00
7F000000007F00
7F000000007F00
7F000000007F00
7F80000000FF00
3F80000000FE00
3FC0000001FE00
1FC0000001FC00
1FE0000003FC00
0FF0000007F800
0FF800000FF800
07FC00001FF000
03FE00003FE000
01FF8000FFC000
01FFF007FFC000
007FFFFFFF0000
003FFFFFFE0000
001FFFFFFC0000
0007FFFFF00000
0001FFFFE00000
00001FFFF00000
0000000FF80000
00000007FC0000
00000003FE0000
00000001FF0000
00000000FF8000
000000007FC000
000000003FE000
000000001FF000
ENDCHAR
STARTCHAR R
ENCODING 82
SWIDTH 694 0
DWIDTH 50 0
BBX 41 52 7 0
BITMAP
FFFFFC000000
FFFFFFC00000
FFFFFFF00000
FFFFFFF80000
FFFFFFFC0000
FFFFFFFE0000
FE0007FF0000
FE0001FF8000
FE00007F8000
FE00007F8000
FE00003FC000
FE00003FC000
FE00001FC000
FE00001FC000
FE00001FC000
FE00001FC000
FE00001FC000
FE00001FC000
FE00003FC000
FE00003F8000
FE00007F8000
FE00007F8000
FE0001FF0000
FE0007FE0000
FFFFFFFE0000
FFFFFFFC0000
FFFFFFF00000
FFFFFF800000
FFFFFFE00000
FFFFFFF00000
FE001FF80000
FE0003FC0000
FE0001FE0000
FE0000FF0000
FE00007F0000
FE00007F8000
FE00003F8000
FE00003FC000
FE00001FC000
FE00000FE000
FE00000FE000
FE00000FF000
FE000007F000
FE000007F800
FE000003F800
FE000003FC00
FE000001FC00
FE000001FE00
FE000000FE00
FE000000FF00
FE0000007F00
FE0000007F80
ENDCHAR
STARTCHAR S
ENCODING 83
SWIDTH 634 0
DWIDTH 46 0
BBX 37 54 5 -1
BITMAP
0007FF8000
007FFFF800
01FFFFFF80
03FFFFFFC0
0FFFFFFFC0
1FFFFFFFC0
1FFC00FFC0
3FF0000FC0
7FC00001C0
7F80000040
7F00000000
FF00000000
FE00000000
FE00000000
FE00000000
FE00000000
FE00000000
FE00000000
FF00000000
7F80000000
7FC0000000
7FF0000000
3FFF000000
1FFFF80000
1FFFFF8000
07FFFFF000
03FFFFFC00
00FFFFFF00
001FFFFF80
0003FFFFC0
00000FFFE0
000000FFE0
0000003FF0
0000001FF0
0000000FF0
00000007F8
00000003F8
00000003F8
00000003F8
00000003F8
00000003F8
00000003F8
00000007F8
00000007F0
8000000FF0
F000001FF0
FE00007FE0
FFE003FFC0
FFFFFFFFC0
FFFFFFFF80
FFFFFFFE00
7FFFFFFC00
07FFFFE000
003FFE0000
ENDCHAR
STARTCHAR T
ENCODING 84
SWIDTH 610 0
DWIDTH 44 0
BBX 45 52 -1 0
BITMAP
FFFFFFFFFFF8
FFFFFFFFFFF8
FFFFFFFFFFF8
FFFFFFFFFFF8
FFFFFFFFFFF8
FFFFFFFFFFF8
00001FC00000
00001FC00000
00001FC00000
00001FC00000
00001FC00000
00001FC00000
00001FC00000
00001FC00000
00001FC00000
00001FC00000
00001FC00000
00001FC00000
00001FC00000
00001FC00000
00001FC00000
00001FC00000
00001FC00000
00001FC00000
00001FC00000
00001FC00000
00001FC00000
00001FC00000
00001FC00000
00001FC00000
00001FC00000
00001FC00000
00001FC00000
00001FC00000
00001FC00000
00001FC00000
00001FC00000
00001FC00000
00001FC00000
00001FC00000
00001FC00000
00001FC00000
00001FC00000
00001FC00000
00001FC00000
00001FC00000
00001FC00000
00001FC00000
00001FC00000
00001FC00000
00001FC00000
00001FC00000
ENDCHAR
STARTCHAR U
ENCODING 85
SWIDTH 731 0
DWIDTH 53 0
BBX 40 53 7 -1
BITMAP
FE0000007F
FE0000007F
FE0000007F
FE0000007F
FE0000007F
FE0000007F
FE0000007F
FE0000007F
FE0000007F
FE0000007F
FE0000007F
FE0000007F
FE0000007F
FE0000007F
FE0000007F
FE0000007F
FE0000007F
FE0000007F
FE0000007F
FE0000007F
FE0000007F
FE0000007F
FE0000007F
FE0000007F
FE0000007F
FE0000007F
FE0000007F
FE0000007F
FE0000007F
FE0000007F
FE0000007F
FE0000007F
FE0000007F
FE0000007F
FE0000007F
FE0000007F
FE0000007F
FF000000FF
7F000000FE
7F000000FE
7F000000FE
7F800001FE
3F800001FC
3FC00003FC
1FE00007F8
1FF8001FF8
0FFF007FF0
07FFFFFFE0
03FFFFFFC0
01FFFFFF80
007FFFFE00
001FFFF800
0003FFC000
ENDCHAR
STARTCHAR V
ENCODING 86
SWIDTH 684 0
DWIDTH 49 0
BBX 48 52 1 0
BITMAP
FF00000000FF
7F00000000FE
7F00000000FE
7F80000001FE
3F80000001FC
3F80000001FC
1FC0000003FC
1FC0000003F8
1FE0000007F8
0FE0000007F0
0FE0000007F0
0FF000000FF0
07F000000FE0
07F800001FE0
03F800001FC0
03F800001FC0
03FC00003FC0
01FC00003F80
01FC00003F80
00FE00007F80
00FE00007F00
00FF0000FF00
007F0000FE00
007F0000FE00
007F8001FE00
003F8001FC00
003F8001FC00
001FC003F800
001FC003F800
001FE007F800
000FE007F000
000FE007F000
0007F00FF000
0007F00FE000
0007F00FE000
0003F81FC000
0003F81FC000
0003FC3FC000
0001FC3F8000
0001FC3F8000
0000FE7F0000
0000FE7F0000
0000FFFF0000
00007FFE0000
00007FFE0000
00003FFE0000
00003FFC0000
00003FFC0000
00001FF80000
00001FF80000
00001FF80000
00000FF00000
ENDCHAR
STARTCHAR W
ENCODING 87
SWIDTH 988 0
DWIDTH 71 0
BBX 66 52 2 0
BITMAP
FE000007F800001FC0
FF000007F800003FC0
7F00000FFC00003F80
7F00000FFC00003F80
7F00000FFC00003F80
7F80000FFC00007F80
3F80001FFE00007F00
3F80001FFE00007F00
3F80001FFE00007F00
3FC0001F3E0000FF00
1FC0003F3F0000FE00
1FC0003F3F0000FE00
1FC0003F3F0000FE00
1FC0003E1F0001FE00
0FE0007E1F8001FC00
0FE0007E1F8001FC00
0FE0007E1F8001FC00
0FE0007C0F8003FC00
07F000FC0FC003F800
07F000FC0FC003F800
07F000FC0FC003F800
07F000F807C007F800
03F801F807E007F000
03F801F807E007F000
03F801F807E007F000
03F801F003E00FF000
01FC03F003F00FE000
01FC03F003F00FE000
01FC03F003F00FE000
01FC03E001F01FE000
00FE07E001F81FC000
00FE07E001F81FC000
00FE07E001F81FC000
00FE07E000F83FC000
007F0FC000FC3F8000
007F0FC000FC3F8000
007F0FC000FC3F8000
007F0FC000FC7F8000
003F9F80007E7F0000
003F9F80007E7F0000
003F9F80007E7F0000
003F9F80007EFF0000
001FFF00003FFE0000
001FFF00003FFE0000
001FFF00003FFE0000
001FFF00003FFE0000
000FFE00001FFC0000
000FFE00001FFC0000
000FFE00001FFC0000
000FFE00001FFC0000
0007FC00000FF80000
0007FC00000FF80000
ENDCHAR
STARTCHAR X
ENCODING 88
SWIDTH 685 0
DWIDTH 49 0
BBX 45 52 2 0
BITMAP
3FC000000FF0
1FE000001FE0
0FE000001FC0
0FF000003FC0
07F800007F80
03FC0000FF00
03FC0000FF00
01FE0001FE00
00FF0003FC00
007F0003FC00
007F8007F800
003FC00FF000
001FC00FE000
001FE01FE000
000FF03FC000
0007F03F8000
0007F87F8000
0003FCFF0000
0001FCFE0000
0001FFFE0000
0000FFFC0000
00007FF80000
00007FF80000
00003FF00000
00003FE00000
00003FE00000
00007FF00000
0000FFF80000
0000FFF80000
0001FFFC0000
0003FDFE0000
0003F9FE0000
0007F8FF0000
000FF07F8000
000FE03F8000
001FE03FC000
003FC01FE000
003F800FE000
007F800FF000
00FF0007F800
00FE0003F800
01FE0003FC00
03FC0001FE00
03F80000FE00
07F80000FF00
0FF000007F80
0FE000003F80
1FE000003FC0
3FC000001FE0
3F8000000FE0
7F8000000FF0
FF00000007F8
ENDCHAR
STARTCHAR Y
ENCODING 89
SWIDTH 610 0
DWIDTH 44 0
BBX 45 52 -1 0
BITMAP
FF00000007F8
7F8000000FF0
3F8000000FE0
3FC000001FE0
1FE000003FC0
0FF000007F80
07F000007F00
07F80000FF00
03FC0001FE00
01FC0001FC00
01FE0003FC00
00FF0007F800
007F0007F000
007F800FF000
003FC01FE000
001FC01FC000
000FE03FC000
000FF07F8000
0007F87F0000
0003F8FE0000
0003FDFE0000
0001FFFC0000
0000FFF80000
0000FFF80000
00007FF00000
00003FE00000
00003FE00000
00001FC00000
00001FC00000
00001FC00000
00001FC00000
00001FC00000
00001FC00000
00001FC00000
00001FC00000
00001FC00000
00001FC00000
00001FC00000
00001FC00000
00001FC00000
00001FC00000
00001FC00000
00001FC00000
00001FC00000
00001FC00000
00001FC00000
00001FC00000
00001FC00000
00001FC00000
00001FC00000
00001FC00000
00001FC00000
ENDCHAR
STARTCHAR Z
ENCODING 90
SWIDTH 685 0
DWIDTH 49 0
BBX 43 52 3 0
BITMAP
7FFFFFFFFFC0
7FFFFFFFFFC0
7FFFFFFFFFC0
7FFFFFFFFFC0
7FFFFFFFFFC0
7FFFFFFFFFC0
000000007F80
00000000FF00
00000001FE00
00000003FE00
00000007FC00
00000007F800
0000000FF000
0000001FE000
0000003FE000
0000007FC000
0000007F8000
000000FF0000
000001FE0000
000003FE0000
000007FC0000
000007F80000
00000FF00000
00001FE00000
00003FC00000
00007FC00000
0000FF800000
0000FF000000
0001FE000000
0003FC000000
0007FC000000
000FF8000000
000FF0000000
001FE0000000
003FC0000000
007FC0000000
00FF80000000
01FF00000000
01FE00000000
03FC00000000
07F800000000
0FF800000000
1FF000000000
1FE000000000
3FC000000000
7F8000000000
FFFFFFFFFFE0
FFFFFFFFFFE0
FFFFFFFFFFE0
FFFFFFFFFFE0
FFFFFFFFFFE0
FFFFFFFFFFE0
ENDCHAR
STARTCHAR bracketleft
ENCODING 91
SWIDTH 390 0
DWIDTH 28 0
BBX 14 64 6 -9
BITMAP
FFFC
FFFC
FFFC
FFFC
FFFC
FC00
FC00
FC00
FC00
FC00
FC00
FC00
FC00
FC00
FC00
FC00
FC00
FC00
FC00
FC00
FC00
FC00
FC00
FC00
FC00
FC00
FC00
FC00
FC00
FC00
FC00
FC00
FC00
FC00
FC00
FC00
FC00
FC00
FC00
FC00
FC00
FC00
FC00
FC00
FC00
FC00
FC00
FC00
FC00
FC00
FC00
FC00
FC00
FC00
FC00
FC00
FC00
FC00
FC00
FFFC
FFFC
FFFC
FFFC
FFFC
ENDCHAR
STARTCHAR backslash
ENCODING 92
SWIDTH 336 0
DWIDTH 24 0
BBX 24 59 0 -7
BITMAP
FC0000
FC0000
7E0000
7E0000
7E0000
3F0000
3F0000
3F0000
1F8000
1F8000
1F8000
0F8000
0FC000
0FC000
0FC000
07E000
07E000
07E000
03F000
03F000
03F000
01F800
01F800
01F800
00F800
00FC00
00FC00
00FC00
007E00
007E00
007E00
003F00
003F00
003F00
001F00
001F80
001F80
001F80
000FC0
000FC0
000FC0
0007E0
0007E0
0007E0
0003F0
0003F0
0003F0
0001F0
0001F8
0001F8
0001F8
0000FC
0000FC
0000FC
00007E
00007E
00007E
00003F
00003F
ENDCHAR
STARTCHAR bracketright
ENCODING 93
SWIDTH 390 0
DWIDTH 28 0
BBX 14 64 7 -9
BITMAP
FFFC
FFFC
FFFC
FFFC
FFFC
00FC
00FC
00FC
00FC
00FC
00FC
00FC
00FC
00FC
00FC
00FC
00FC
00FC
00FC
00FC
00FC
00FC
00FC
00FC
00FC
00FC
00FC
00FC
00FC
00FC
00FC
00FC
00FC
00FC
00FC
00FC
00FC
00FC
00FC
00FC
00FC
00FC
00FC
00FC
00FC
00FC
00FC
00FC
00FC
00FC
00FC
00FC
00FC
00FC
00FC
00FC
00FC
00FC
00FC
FFFC
FFFC
FFFC
FFFC
FFFC
ENDCHAR
STARTCHAR asciicircum
ENCODING 94
SWIDTH 837 0
DWIDTH 60 0
BBX 45 20 8 32
BITMAP
00001FC00000
00003FE00000
00007FF00000
0000FFF80000
0001FFFC0000
0003FFFE0000
0007FDFF0000
000FF8FF8000
001FF07FC000
003FE03FE000
007F800FF000
00FF0007F800
01FE0003FC00
03FC0001FE00
07F80000FF00
0FF000007F80
1FE000003FC0
3FC000001FE0
7F8000000FF0
FF00000007F8
ENDCHAR
STARTCHAR underscore
ENCODING 95
SWIDTH 500 0
DWIDTH 36 0
BBX 38 5 -1 -17
BITMAP
FFFFFFFFFC
FFFFFFFFFC
FFFFFFFFFC
FFFFFFFFFC
FFFFFFFFFC
ENDCHAR
STARTCHAR grave
ENCODING 96
SWIDTH 500 0
DWIDTH 36 0
BBX 17 13 6 45
BITMAP
FE0000
7F0000
3F8000
1FC000
0FC000
07E000
03F000
01F800
00FC00
00FC00
007E00
003F00
001F80
ENDCHAR
STARTCHAR a
ENCODING 97
SWIDTH 612 0
DWIDTH 44 0
BBX 33 41 4 -1
BITMAP
003FF80000
07FFFF8000
1FFFFFE000
1FFFFFF000
1FFFFFF800
1FC00FFC00
1E0001FE00
100000FE00
0000007F00
0000003F00
0000003F00
0000001F00
0000001F80
0000001F80
0000001F80
000FFFFF80
00FFFFFF80
03FFFFFF80
0FFFFFFF80
1FFFFFFF80
3FF8001F80
3FC0001F80
7F00001F80
7E00001F80
FE00001F80
FC00001F80
FC00003F80
FC00003F80
FC00003F80
FC00007F80
FC00007F80
FE0000FF80
FE0001FF80
7F0003FF80
7F8007FF80
3FE03FDF80
1FFFFF9F80
1FFFFF1F80
07FFFE1F80
03FFF81F80
007FC00000
ENDCHAR
STARTCHAR b
ENCODING 98
SWIDTH 634 0
DWIDTH 46 0
BBX 35 56 7 -1
BITMAP
FC00000000
FC00000000
FC00000000
FC00000000
FC00000000
FC00000000
FC00000000
FC00000000
FC00000000
FC00000000
FC00000000
FC00000000
FC00000000
FC00000000
FC00000000
FC03FE0000
FC0FFF8000
FC3FFFE000
FC7FFFF000
FCFFFFF800
FDFC0FFC00
FFF003FE00
FFC000FF00
FF80007F00
FF80007F80
FF00003F80
FF00003FC0
FE00001FC0
FE00001FC0
FE00001FC0
FC00000FE0
FC00000FE0
FC00000FE0
FC00000FE0
FC00000FE0
FC00000FE0
FC00000FE0
FC00000FE0
FC00000FE0
FC00000FE0
FC00000FE0
FE00001FC0
FE00001FC0
FE00001FC0
FF00003FC0
FF00003F80
FF80007F80
FF80007F00
FFC000FF00
FFF003FE00
FDFC0FFC00
FCFFFFFC00
FC7FFFF000
FC3FFFE000
FC0FFF8000
0003FE0000
ENDCHAR
STARTCHAR c
ENCODING 99
SWIDTH 549 0
DWIDTH 40 0
BBX 31 41 4 -1
BITMAP
0001FFC0
001FFFFC
007FFFFE
00FFFFFE
03FFFFFE
07FF00FE
0FFC000E
0FF00002
1FE00000
3FC00000
3F800000
7F800000
7F000000
7F000000
7F000000
FE000000
FE000000
FE000000
FE000000
FE000000
FE000000
FE000000
FE000000
FE000000
FE000000
FE000000
7F000000
7F000000
7F000000
7F800000
3F800000
3FC00000
1FE00000
0FF00002
0FFC000E
07FF00FE
03FFFFFE
01FFFFFE
007FFFFE
001FFFFC
0003FF80
ENDCHAR
STARTCHAR d
ENCODING 100
SWIDTH 634 0
DWIDTH 46 0
BBX 35 56 4 -1
BITMAP
00000007E0
00000007E0
00000007E0
00000007E0
00000007E0
00000007E0
00000007E0
00000007E0
00000007E0
00000007E0
00000007E0
00000007E0
00000007E0
00000007E0
00000007E0
000FF807E0
003FFE07E0
00FFFF87E0
01FFFFC7E0
03FFFFE7E0
07FE07F7E0
0FF801FFE0
1FE0007FE0
1FC0003FE0
3FC0003FE0
3F80001FE0
7F80001FE0
7F00000FE0
7F00000FE0
7F00000FE0
FE000007E0
FE000007E0
FE000007E0
FE000007E0
FE000007E0
FE000007E0
FE000007E0
FE000007E0
FE000007E0
FE000007E0
FE000007E0
7F00000FE0
7F00000FE0
7F00000FE0
7F80001FE0
3F80001FE0
3FC0003FE0
1FC0003FE0
1FE0007FE0
0FF801FFE0
07FE07F7E0
07FFFFE7E0
01FFFFC7E0
00FFFF87E0
007FFE07E0
000FF80000
ENDCHAR
STARTCHAR e
ENCODING 101
SWIDTH 615 0
DWIDTH 44 0
BBX 37 41 4 -1
BITMAP
0001FF0000
001FFFE000
007FFFF800
00FFFFFE00
03FFFFFF00
07FF01FF80
07F8003F80
0FF0001FC0
1FE0000FE0
3FC00007E0
3F800007F0
3F800003F0
7F000003F0
7F000001F0
7F000001F8
FE000001F8
FE000001F8
FFFFFFFFF8
FFFFFFFFF8
FFFFFFFFF8
FFFFFFFFF8
FFFFFFFFF8
FE00000000
FE00000000
FE00000000
FE00000000
7F00000000
7F00000000
7F00000000
7F80000000
3F80000000
3FC0000000
1FE0000020
0FF00000E0
0FFC0003E0
07FF803FE0
03FFFFFFE0
00FFFFFFE0
007FFFFFC0
000FFFFE00
0001FFC000
ENDCHAR
STARTCHAR f
ENCODING 102
SWIDTH 352 0
DWIDTH 25 0
BBX 24 55 2 0
BITMAP
0003FF
001FFF
003FFF
007FFF
00FFFF
01FE00
01F800
01F800
03F000
03F000
03F000
03F000
03F000
03F000
03F000
03F000
FFFFFE
FFFFFE
FFFFFE
FFFFFE
FFFFFE
03F000
03F000
03F000
03F000
03F000
03F000
03F000
03F000
03F000
03F000
03F000
03F000
03F000
03F000
03F000
03F000
03F000
03F000
03F000
03F000
03F000
03F000
03F000
03F000
03F000
03F000
03F000
03F000
03F000
03F000
03F000
03F000
03F000
03F000
ENDCHAR
STARTCHAR g
ENCODING 103
SWIDTH 634 0
DWIDTH 46 0
BBX 35 55 4 -15
BITMAP
000FF80000
007FFE07E0
00FFFF87E0
03FFFFC7E0
07FFFFE7E0
0FFE07F7E0
0FF000FFE0
1FE0007FE0
3FC0003FE0
3F80003FE0
3F80001FE0
7F00000FE0
7F00000FE0
7F00000FE0
FF00000FE0
FE000007E0
FE000007E0
FE000007E0
FE000007E0
FE000007E0
FE000007E0
FE000007E0
FE000007E0
FE000007E0
FE000007E0
FF00000FE0
7F00000FE0
7F00000FE0
7F00000FE0
3F80001FE0
3F80003FE0
3FC0003FE0
1FE0007FE0
0FF000FFE0
0FFE07F7E0
07FFFFE7E0
03FFFFC7E0
00FFFF87E0
007FFE07E0
000FF807E0
00000007E0
0000000FC0
0000000FC0
0000000FC0
0000001FC0
0000001F80
0000003F80
0400007F80
070001FF00
07F007FE00
07FFFFFC00
07FFFFF800
07FFFFF000
03FFFFC000
001FFC0000
ENDCHAR
STARTCHAR h
ENCODING 104
SWIDTH 633 0
DWIDTH 46 0
BBX 33 55 7 0
BITMAP
FC00000000
FC00000000
FC00000000
FC00000000
FC00000000
FC00000000
FC00000000
FC00000000
FC00000000
FC00000000
FC00000000
FC00000000
FC00000000
FC00000000
FC00000000
FC01FE0000
FC0FFFC000
FC3FFFF000
FC7FFFF800
FCFFFFFC00
FDFC07FC00
FFF001FE00
FFC000FE00
FF80007F00
FF00003F00
FF00003F00
FE00003F80
FE00001F80
FE00001F80
FC00001F80
FC00001F80
FC00001F80
FC00001F80
FC00001F80
FC00001F80
FC00001F80
FC00001F80
FC00001F80
FC00001F80
FC00001F80
FC00001F80
FC00001F80
FC00001F80
FC00001F80
FC00001F80
FC00001F80
FC00001F80
FC00001F80
FC00001F80
FC00001F80
FC00001F80
FC00001F80
FC00001F80
FC00001F80
FC00001F80
ENDCHAR
STARTCHAR i
ENCODING 105
SWIDTH 277 0
DWIDTH 20 0
BBX 6 55 7 0
BITMAP
FC
FC
FC
FC
FC
FC
FC
FC
00
00
00
00
00
00
00
00
FC
FC
FC
FC
FC
FC
FC
FC
FC
FC
FC
FC
FC
FC
FC
FC
FC
FC
FC
FC
FC
FC
FC
FC
FC
FC
FC
FC
FC
FC
FC
FC
FC
FC
FC
FC
FC
FC
FC
ENDCHAR
STARTCHAR j
ENCODING 106
SWIDTH 277 0
DWIDTH 20 0
BBX 14 70 -1 -15
BITMAP
00FC
00FC
00FC
00FC
00FC
00FC
00FC
00FC
0000
0000
0000
0000
0000
0000
0000
0000
00FC
00FC
00FC
00FC
00FC
00FC
00FC
00FC
00FC
00FC
00FC
00FC
00FC
00FC
00FC
00FC
00FC
00FC
00FC
00FC
00FC
00FC
00FC
00FC
00FC
00FC
00FC
00FC
00FC
00FC
00FC
00FC
00FC
00FC
00FC
00FC
00FC
00FC
00FC
00FC
00FC
00FC
00FC
00FC
00FC
01FC
01F8
03F8
07F8
FFF0
FFE0
FFC0
FF80
FE00
ENDCHAR
STARTCHAR k
ENCODING 107
SWIDTH 579 0
DWIDTH 42 0
BBX 34 55 7 0
BITMAP
FC00000000
FC00000000
FC00000000
FC00000000
FC00000000
FC00000000
FC00000000
FC00000000
FC00000000
FC00000000
FC00000000
FC00000000
FC00000000
FC00000000
FC00000000
FC00000000
FC00007F80
FC0000FF00
FC0001FE00
FC0003FC00
FC000FF800
FC001FF000
FC003FC000
FC007F8000
FC00FF0000
FC01FE0000
FC07FC0000
FC0FF80000
FC1FE00000
FC3FC00000
FC7F800000
FCFF000000
FFFE000000
FFFC000000
FFF8000000
FFFC000000
FDFE000000
FCFF000000
FC7F800000
FC3FC00000
FC1FE00000
FC0FF80000
FC07FC0000
FC03FE0000
FC01FF0000
FC00FF8000
FC007FC000
FC003FE000
FC001FF000
FC0007F800
FC0003FC00
FC0001FE00
FC0000FF00
FC00007F80
FC00003FC0
ENDCHAR
STARTCHAR l
ENCODING 108
SWIDTH 277 0
DWIDTH 20 0
BBX 6 55 7 0
BITMAP
FC
FC
FC
FC
FC
FC
FC
FC
FC
FC
FC
FC
FC
FC
FC
FC
FC
FC
FC
FC
FC
FC
FC
FC
FC
FC
FC
FC
FC
FC
FC
FC
FC
FC
FC
FC
FC
FC
FC
FC
FC
FC
FC
FC
FC
FC
FC
FC
FC
FC
FC
FC
FC
FC
FC
ENDCHAR
STARTCHAR m
ENCODING 109
SWIDTH 974 0
DWIDTH 70 0
BBX 58 40 7 0
BITMAP
0001FE00007F8000
FC0FFF8003FFE000
FC3FFFE00FFFF800
FC7FFFF01FFFFC00
FCFFFFF83FFFFE00
FDFC07FC7F01FE00
FFE001FCF8007F00
FFC000FEF0003F00
FF8000FFE0003F80
FF00007FC0001F80
FF00007FC0001F80
FE00007F80001FC0
FE00003F80000FC0
FC00003F00000FC0
FC00003F00000FC0
FC00003F00000FC0
FC00003F00000FC0
FC00003F00000FC0
FC00003F00000FC0
FC00003F00000FC0
FC00003F00000FC0
FC00003F00000FC0
FC00003F00000FC0
FC00003F00000FC0
FC00003F00000FC0
FC00003F00000FC0
FC00003F00000FC0
FC00003F00000FC0
FC00003F00000FC0
FC00003F00000FC0
FC00003F00000FC0
FC00003F00000FC0
FC00003F00000FC0
FC00003F00000FC0
FC00003F00000FC0
FC00003F00000FC0
FC00003F00000FC0
FC00003F00000FC0
FC00003F00000FC0
FC00003F00000FC0
ENDCHAR
STARTCHAR n
ENCODING 110
SWIDTH 633 0
DWIDTH 46 0
BBX 33 40 7 0
BITMAP
0001FE0000
FC0FFFC000
FC3FFFF000
FC7FFFF800
FCFFFFFC00
FDFC07FC00
FFF001FE00
FFC000FE00
FF80007F00
FF00003F00
FF00003F00
FE00003F80
FE00001F80
FE00001F80
FC00001F80
FC00001F80
FC00001F80
FC00001F80
FC00001F80
FC00001F80
FC00001F80
FC00001F80
FC00001F80
FC00001F80
FC00001F80
FC00001F80
FC00001F80
FC00001F80
FC00001F80
FC00001F80
FC00001F80
FC00001F80
FC00001F80
FC00001F80
FC00001F80
FC00001F80
FC00001F80
FC00001F80
FC00001F80
FC00001F80
ENDCHAR
STARTCHAR o
ENCODING 111
SWIDTH 611 0
DWIDTH 44 0
BBX 36 41 4 -1
BITMAP
0007FE0000
003FFFC000
00FFFFF000
01FFFFF800
03FFFFFC00
07FE07FE00
0FF801FF00
1FE0007F80
1FC0007F80
3FC0003FC0
3F80001FC0
7F80001FE0
7F00000FE0
7F00000FE0
7F00000FE0
FE000007F0
FE000007F0
FE000007F0
FE000007F0
FE000007F0
FE000007F0
FE000007F0
FE000007F0
FE000007F0
FE000007F0
FE000007F0
7F00000FE0
7F00000FE0
7F00000FE0
7F80001FE0
3F80001FC0
3FC0003FC0
1FC0003F80
1FE0007F80
0FF801FF00
07FE07FE00
03FFFFFC00
01FFFFF800
00FFFFF000
003FFFC000
0007FE0000
ENDCHAR
STARTCHAR p
ENCODING 112
SWIDTH 634 0
DWIDTH 46 0
BBX 35 55 7 -15
BITMAP
0003FE0000
FC0FFF8000
FC3FFFE000
FC7FFFF000
FCFFFFF800
FDFC0FFC00
FFF003FE00
FFC000FF00
FF80007F00
FF80007F80
FF00003F80
FF00003FC0
FE00001FC0
FE00001FC0
FE00001FC0
FC00000FE0
FC00000FE0
FC00000FE0
FC00000FE0
FC00000FE0
FC00000FE0
FC00000FE0
FC00000FE0
FC00000FE0
FC00000FE0
FC00000FE0
FE00001FC0
FE00001FC0
FE00001FC0
FF00003FC0
FF00003F80
FF80007F80
FF80007F00
FFC000FF00
FFF003FE00
FDFC0FFC00
FCFFFFFC00
FC7FFFF000
FC3FFFE000
FC0FFF8000
FC03FE0000
FC00000000
FC00000000
FC00000000
FC00000000
FC00000000
FC00000000
FC00000000
FC00000000
FC00000000
FC00000000
FC00000000
FC00000000
FC00000000
FC00000000
ENDCHAR
STARTCHAR q
ENCODING 113
SWIDTH 634 0
DWIDTH 46 0
BBX 35 55 4 -15
BITMAP
000FF80000
003FFE07E0
00FFFF87E0
01FFFFC7E0
03FFFFE7E0
07FE07F7E0
0FF801FFE0
1FE0007FE0
1FC0003FE0
3FC0003FE0
3F80001FE0
7F80001FE0
7F00000FE0
7F00000FE0
7F00000FE0
FE000007E0
FE000007E0
FE000007E0
FE000007E0
FE000007E0
FE000007E0
FE000007E0
FE000007E0
FE000007E0
FE000007E0
FE000007E0
7F00000FE0
7F00000FE0
7F00000FE0
7F80001FE0
3F80001FE0
3FC0003FE0
1FC0003FE0
1FE0007FE0
0FF801FFE0
07FE07F7E0
07FFFFE7E0
01FFFFC7E0
00FFFF87E0
007FFE07E0
000FF807E0
00000007E0
00000007E0
00000007E0
00000007E0
00000007E0
00000007E0
00000007E0
00000007E0
00000007E0
00000007E0
00000007E0
00000007E0
00000007E0
00000007E0
ENDCHAR
STARTCHAR r
ENCODING 114
SWIDTH 411 0
DWIDTH 30 0
BBX 23 40 7 0
BITMAP
0001FE
FC0FFE
FC3FFE
FC7FFE
FCFFFE
FDFC06
FFF002
FFC000
FF8000
FF0000
FF0000
FE0000
FE0000
FE0000
FC0000
FC0000
FC0000
FC0000
FC0000
FC0000
FC0000
FC0000
FC0000
FC0000
FC0000
FC0000
FC0000
FC0000
FC0000
FC0000
FC0000
FC0000
FC0000
FC0000
FC0000
FC0000
FC0000
FC0000
FC0000
FC0000
ENDCHAR
STARTCHAR s
ENCODING 115
SWIDTH 520 0
DWIDTH 38 0
BBX 30 41 4 -1
BITMAP
003FFC00
01FFFFE0
07FFFFF0
1FFFFFF0
3FFFFFF0
3FE007F0
7F000070
7E000010
FE000000
FC000000
FC000000
FC000000
FC000000
FE000000
FF000000
7FC00000
7FF80000
3FFF8000
1FFFF800
0FFFFF00
07FFFFC0
00FFFFE0
000FFFF0
0000FFF8
00001FF8
000003F8
000001FC
000000FC
000000FC
000000FC
000000FC
000000FC
800001FC
E00001F8
FC0007F8
FF801FF0
FFFFFFE0
FFFFFFC0
FFFFFF80
3FFFFE00
01FFE000
ENDCHAR
STARTCHAR t
ENCODING 116
SWIDTH 392 0
DWIDTH 28 0
BBX 24 50 2 0
BITMAP
07E000
07E000
07E000
07E000
07E000
07E000
07E000
07E000
07E000
07E000
07E000
FFFFFF
FFFFFF
FFFFFF
FFFFFF
FFFFFF
07E000
07E000
07E000
07E000
07E000
07E000
07E000
07E000
07E000
07E000
07E000
07E000
07E000
07E000
07E000
07E000
07E000
07E000
07E000
07E000
07E000
07E000
07E000
07E000
07E000
07E000
07F000
03F000
03FC00
03FFFF
01FFFF
00FFFF
007FFF
000FFF
ENDCHAR
STARTCHAR u
ENCODING 117
SWIDTH 633 0
DWIDTH 46 0
BBX 33 40 7 -1
BITMAP
FC00001F80
FC00001F80
FC00001F80
FC00001F80
FC00001F80
FC00001F80
FC00001F80
FC00001F80
FC00001F80
FC00001F80
FC00001F80
FC00001F80
FC00001F80
FC00001F80
FC00001F80
FC00001F80
FC00001F80
FC00001F80
FC00001F80
FC00001F80
FC00001F80
FC00001F80
FC00001F80
FC00001F80
FC00001F80
FC00001F80
FC00003F80
FC00003F80
FE00003F80
7E00007F80
7E00007F80
7F0000FF80
3F8001FF80
3FC007FF80
1FF01FDF80
1FFFFF9F80
0FFFFF1F80
07FFFE1F80
01FFF81F80
003FC00000
ENDCHAR
STARTCHAR v
ENCODING 118
SWIDTH 591 0
DWIDTH 43 0
BBX 38 39 2 0
BITMAP
FE000001FC
7E000001F8
7F000003F8
7F000003F8
3F000003F0
3F800007F0
3F800007F0
1FC0000FE0
1FC0000FE0
0FC0000FC0
0FE0001FC0
0FE0001FC0
07E0001F80
07F0003F80
07F0003F80
03F8007F00
03F8007F00
01F8007E00
01FC00FE00
01FC00FE00
00FC00FC00
00FE01FC00
00FE01FC00
007F03F800
007F03F800
003F03F000
003F87F000
003F87F000
001F87E000
001FCFE000
001FCFE000
000FFFC000
000FFFC000
0007FF8000
0007FF8000
0007FF8000
0003FF0000
0003FF0000
0003FF0000
ENDCHAR
STARTCHAR w
ENCODING 119
SWIDTH 817 0
DWIDTH 59 0
BBX 53 39 3 0
BITMAP
FE0001FC0003F8
FE0003FE0003F8
7E0003FE0003F0
7E0003FE0003F0
7F0007FF0007F0
7F0007FF0007F0
3F0007FF0007E0
3F0007DF0007E0
3F800FDF800FE0
1F800FDF800FE0
1F800FDF800FC0
1FC00F8F801FC0
1FC01F8FC01FC0
0FC01F8FC01F80
0FC01F8FC01F80
0FE01F07C03F80
0FE03F07E03F80
07E03F07E03F00
07E03E03E03F00
07F07E03F07F00
07F07E03F07F00
03F07E03F07E00
03F07C01F07E00
03F8FC01F8FE00
03F8FC01F8FE00
01F8FC01F8FC00
01FCF800F9FC00
01FDF800FDFC00
00FDF800FDF800
00FDF800FDF800
00FFF0007FF800
00FFF0007FF800
007FF0007FF000
007FE0003FF000
007FE0003FF000
007FE0003FF000
003FE0003FE000
003FC0001FE000
003FC0001FE000
ENDCHAR
STARTCHAR x
ENCODING 120
SWIDTH 591 0
DWIDTH 43 0
BBX 38 39 2 0
BITMAP
7F800007F8
3FC0000FF0
1FC0000FE0
0FE0001FC0
0FF0003FC0
07F8007F80
03F8007F00
01FC00FE00
01FE01FE00
00FF03FC00
007F03F800
003F87F000
003FCFF000
001FFFE000
000FFFC000
0007FF8000
0007FF8000
0003FF0000
0001FE0000
0003FE0000
0003FF0000
0007FF8000
000FFF8000
001FFFC000
001FDFE000
003F8FF000
007F87F800
00FF03F800
00FE03FC00
01FC01FE00
03FC00FF00
07F8007F00
07F0007F80
0FF0003FC0
1FE0001FE0
1FC0000FE0
3F80000FF0
7F800007F8
FF000003FC
ENDCHAR
STARTCHAR y
ENCODING 121
SWIDTH 591 0
DWIDTH 43 0
BBX 38 54 2 -15
BITMAP
FE000001FC
7F000001F8
7F000003F8
7F800003F8
3F800003F0
3F800007F0
1FC00007E0
1FC0000FE0
0FE0000FE0
0FE0000FC0
0FE0001FC0
07F0001F80
07F0003F80
03F8003F80
03F8003F00
03F8007F00
01FC007F00
01FC00FE00
00FE00FE00
00FE00FC00
007E01FC00
007F01FC00
007F03F800
003F83F800
003F83F000
001F87F000
001FC7F000
001FCFE000
000FCFE000
000FEFC000
0007FFC000
0007FFC000
0003FF8000
0003FF8000
0003FF0000
0001FF0000
0001FF0000
0000FE0000
0000FE0000
0000FE0000
0001FC0000
0001FC0000
0001F80000
0003F80000
0003F80000
0007F00000
0007F00000
000FE00000
003FE00000
0FFFC00000
0FFF800000
0FFF000000
0FFE000000
0FF8000000
ENDCHAR
STARTCHAR z
ENCODING 122
SWIDTH 524 0
DWIDTH 38 0
BBX 32 39 3 0
BITMAP
7FFFFFFF
7FFFFFFF
7FFFFFFF
7FFFFFFF
7FFFFFFF
000000FF
000001FE
000003FE
000003FC
000007F8
00000FF0
00001FE0
00003FC0
00007F80
0000FF00
0001FF00
0001FE00
0003FC00
0007F800
000FF000
001FE000
003FC000
007FC000
00FF8000
00FF0000
01FE0000
03FC0000
07F80000
0FF00000
1FE00000
3FE00000
7FC00000
7F800000
FF000000
FFFFFFFF
FFFFFFFF
FFFFFFFF
FFFFFFFF
FFFFFFFF
ENDCHAR
STARTCHAR braceleft
ENCODING 123
SWIDTH 636 0
DWIDTH 46 0
BBX 27 66 9 -11
BITMAP
00001FE0
0001FFE0
0003FFE0
0007FFE0
000FFFE0
000FF000
000FE000
001FC000
001F8000
001F8000
001F8000
001F8000
001F8000
001F8000
001F8000
001F8000
001F8000
001F8000
001F8000
001F8000
001F8000
001F8000
001F8000
001F8000
001F8000
001F8000
003F8000
003F0000
007F0000
00FF0000
03FE0000
FFFC0000
FFF80000
FFE00000
FFF80000
FFFC0000
03FE0000
00FF0000
007F0000
003F8000
003F8000
001F8000
001F8000
001F8000
001F8000
001F8000
001F8000
001F8000
001F8000
001F8000
001F8000
001F8000
001F8000
001F8000
001F8000
001F8000
001F8000
001F8000
001FC000
000FC000
000FF000
000FFFE0
0007FFE0
0003FFE0
0001FFE0
00001FE0
ENDCHAR
STARTCHAR bar
ENCODING 124
SWIDTH 336 0
DWIDTH 24 0
BBX 6 72 9 -17
BITMAP
FC
FC
FC
FC
FC
FC
FC
FC
FC
FC
FC
FC
FC
FC
FC
FC
FC
FC
FC
FC
FC
FC
FC
FC
FC
FC
FC
FC
FC
FC
FC
FC
FC
FC
FC
FC
FC
FC
FC
FC
FC
FC
FC
FC
FC
FC
FC
FC
FC
FC
FC
FC
FC
FC
FC
FC
FC
FC
FC
FC
FC
FC
FC
FC
FC
FC
FC
FC
FC
FC
FC
FC
ENDCHAR
STARTCHAR braceright
ENCODING 125
SWIDTH 636 0
DWIDTH 46 0
BBX 27 66 9 -11
BITMAP
FF000000
FFF00000
FFF80000
FFFC0000
FFFE0000
01FE0000
00FE0000
007F0000
007F0000
003F0000
003F0000
003F0000
003F0000
003F0000
003F0000
003F0000
003F0000
003F0000
003F0000
003F0000
003F0000
003F0000
003F0000
003F0000
003F0000
003F0000
003F8000
003F8000
001FC000
001FE000
000FF800
0007FFE0
0003FFE0
0000FFE0
0003FFE0
0007FFE0
000FF800
001FE000
001FC000
003F8000
003F8000
003F0000
003F0000
003F0000
003F0000
003F0000
003F0000
003F0000
003F0000
003F0000
003F0000
003F0000
003F0000
003F0000
003F0000
003F0000
003F0000
003F0000
007F0000
007E0000
01FE0000
FFFE0000
FFFC0000
FFF80000
FFF00000
FF800000
ENDCHAR
STARTCHAR asciitilde
ENCODING 126
SWIDTH 837 0
DWIDTH 60 0
BBX 45 11 8 17
BITMAP
007F80000018
03FFF8000038
0FFFFE0000F8
1FFFFFC001F8
7FFFFFF80FF8
FFFFFFFFFFF8
FF80FFFFFFF0
FC001FFFFFC0
F00003FFFF80
E00000FFFE00
8000000FF000
ENDCHAR
STARTCHAR nonbreakingspace
ENCODING 160
SWIDTH 636 0
DWIDTH 46 0
BBX 1 1 0 0
BITMAP
00
ENDCHAR
STARTCHAR exclamdown
ENCODING 161
SWIDTH 400 0
DWIDTH 29 0
BBX 7 52 11 0
BITMAP
FE
FE
FE
FE
FE
FE
FE
FE
FE
00
00
00
00
00
00
00
00
7C
7C
7C
FE
FE
FE
FE
FE
FE
FE
FE
FE
FE
FE
FE
FE
FE
FE
FE
FE
FE
FE
FE
FE
FE
FE
FE
FE
FE
FE
FE
FE
FE
FE
FE
ENDCHAR
STARTCHAR cent
ENCODING 162
SWIDTH 636 0
DWIDTH 46 0
BBX 31 61 6 -11
BITMAP
00007800
00007800
00007800
00007800
00007800
00007800
00007800
00007800
00007800
00007800
0003FF80
001FFFFC
007FFFFE
01FFFFFE
03FFFFFE
07FE78FE
0FF8780E
1FF07802
1FE07800
3FC07800
3F807800
7F807800
7F007800
7F007800
7F007800
FE007800
FE007800
FE007800
FE007800
FE007800
FE007800
FE007800
FE007800
FE007800
FE007800
FE007800
7F007800
7F007800
7F007800
7F807800
3F807800
3FC07800
1FE07800
1FF07802
0FF8780E
07FE78FE
03FFFFFE
01FFFFFE
007FFFFE
001FFFFC
0003FFC0
00007800
00007800
00007800
00007800
00007800
00007800
00007800
00007800
00007800
00007800
ENDCHAR
STARTCHAR sterling
ENCODING 163
SWIDTH 636 0
DWIDTH 46 0
BBX 35 53 5 0
BITMAP
00001FF800
0000FFFF00
0003FFFFC0
000FFFFFC0
001FFFFFC0
001FFFFFC0
003FF007C0
003FC00040
007F800000
007F000000
007F000000
00FF000000
00FE000000
00FE000000
00FE000000
00FE000000
00FE000000
00FE000000
00FE000000
00FE000000
00FE000000
00FE000000
00FE000000
00FE000000
00FE000000
00FE000000
7FFFFFF800
7FFFFFF800
7FFFFFF800
7FFFFFF800
7FFFFFF800
00FE000000
00FE000000
00FE000000
00FE000000
00FE000000
00FE000000
00FE000000
00FE000000
00FE000000
00FE000000
00FE000000
00FE000000
00FE000000
00FE000000
00FE000000
00FE000000
FFFFFFFFE0
FFFFFFFFE0
FFFFFFFFE0
FFFFFFFFE0
FFFFFFFFE0
FFFFFFFFE0
ENDCHAR
STARTCHAR currency
ENCODING 164
SWIDTH 636 0
DWIDTH 46 0
BBX 40 40 3 3
BITMAP
0800000010
1C00000038
3E0000007C
7F000000FE
FF800001FF
7F80FE03FE
3FC7FFC7F8
1FFFFFFFF0
0FFFFFFFE0
03FFFFFFC0
01FF01FF80
01FC007F00
01F8003F80
03F0001FC0
03F0000FC0
03E0000FC0
07E0000FE0
07C00007E0
07C00007E0
07C00007E0
07C00007E0
07C00007E0
07C00007E0
07E0000FE0
03E0000FC0
03F0001FC0
03F0001F80
01F8003F80
01FC007F00
01FF01FF80
03FFFFFFC0
0FFFFFFFE0
1FFFFFFFF0
3FC7FFC7FC
7F80FE03FE
FF000001FF
7F000000FE
3E0000007C
1C00000038
0800000010
ENDCHAR
STARTCHAR yen
ENCODING 165
SWIDTH 636 0
DWIDTH 46 0
BBX 39 52 3 0
BITMAP
FC0000007E
7E000000FC
7E000000FC
3F000001F8
3F800003F8
1F800003F0
1FC00007F0
0FC00007E0
0FE0000FE0
07E0000FC0
03F0001F80
03F8003F80
01F8003F00
01FC007F00
00FC007E00
00FE00FE00
007E00FC00
007F01FC00
003F83F800
003F83F800
7FFFC7FFFC
7FFFC7FFFC
7FFFEFFFFC
7FFFEFFFFC
0007FFC000
0003FF8000
0003FF8000
0001FF0000
0000FE0000
0000FE0000
0000FE0000
7FFFFFFFFC
7FFFFFFFFC
7FFFFFFFFC
7FFFFFFFFC
0000FE0000
0000FE0000
0000FE0000
0000FE0000
0000FE0000
0000FE0000
0000FE0000
0000FE0000
0000FE0000
0000FE0000
0000FE0000
0000FE0000
0000FE0000
0000FE0000
0000FE0000
0000FE0000
0000FE0000
ENDCHAR
STARTCHAR brokenbar
ENCODING 166
SWIDTH 336 0
DWIDTH 24 0
BBX 6 63 9 -12
BITMAP
FC
FC
FC
FC
FC
FC
FC
FC
FC
FC
FC
FC
FC
FC
FC
FC
FC
FC
FC
FC
FC
FC
FC
FC
FC
FC
FC
00
00
00
00
00
00
00
00
00
FC
FC
FC
FC
FC
FC
FC
FC
FC
FC
FC
FC
FC
FC
FC
FC
FC
FC
FC
FC
FC
FC
FC
FC
FC
FC
FC
ENDCHAR
STARTCHAR section
ENCODING 167
SWIDTH 500 0
DWIDTH 36 0
BBX 29 60 3 -7
BITMAP
003FF000
01FFFF00
03FFFF80
07FFFF80
0FFFFF80
1FF01F80
1FC00380
3F800080
3F000000
3F000000
3F000000
3F000000
3F800000
1FC00000
1FE00000
0FF00000
07FC0000
03FF0000
03FFC000
0FFFE000
1FFFF800
3F1FFC00
7F07FF00
7E01FF80
7C00FFC0
FC003FE0
FC001FF0
FC000FF0
FC0007F8
FE0003F8
FE0001F8
7F0001F8
7F8001F8
3FE001F8
3FF001F8
0FFC03F0
07FF03F0
03FF87E0
00FFEFC0
007FFF80
001FFF00
0007FE00
0001FF00
0000FF80
00003FC0
00001FC0
00000FE0
00000FE0
000007E0
000007E0
000007E0
000007E0
10000FE0
1C001FC0
1FC07FC0
1FFFFF80
1FFFFF00
1FFFFE00
07FFF800
007FE000
ENDCHAR
STARTCHAR dieresis
ENCODING 168
SWIDTH 500 0
DWIDTH 36 0
BBX 21 7 8 48
BITMAP
FE03F8
FE03F8
FE03F8
FE03F8
FE03F8
FE03F8
FE03F8
ENDCHAR
STARTCHAR copyright
ENCODING 169
SWIDTH 1000 0
DWIDTH 72 0
BBX 52 52 10 0
BITMAP
000007FE000000
00007FFFE00000
0001FFFFF80000
0007FFFFFE0000
001FF801FF8000
003FC0003FC000
007F00000FE000
00FC000003F000
01F8000001F800
03F00000007C00
07E00000003E00
0FC003FF001F00
0F801FFFE01F00
1F007FFFF00F80
1E00FFFFF00780
3E01FF01F007C0
3C03F8007003C0
7C07F0001003E0
7807E0000001E0
780FE0000001E0
780FC0000001E0
F01FC0000000F0
F01F80000000F0
F01F80000000F0
F01F80000000F0
F01F80000000F0
F01F80000000F0
F01F80000000F0
F01F80000000F0
F01F80000000F0
F01FC0000000F0
780FC0000001E0
780FE0000001E0
7807E0000001E0
7C07F0000003E0
3C03FC001003C0
3E01FF00F007C0
1E00FFFFF00780
1F007FFFF00F80
0F801FFFE01F00
0FC003FE001F00
07E00000003E00
03F00000007C00
01F8000001F800
00FC000003F000
007F00000FE000
003FC0003FC000
001FF801FF8000
0007FFFFFE0000
0001FFFFF80000
00007FFFE00000
000007FE000000
ENDCHAR
STARTCHAR ordfeminine
ENCODING 170
SWIDTH 471 0
DWIDTH 34 0
BBX 25 37 4 16
BITMAP
01FF8000
1FFFF000
3FFFF800
3FFFFC00
3E01FE00
20003E00
00001F00
00001F00
00000F80
00000F80
00000F80
00FFFF80
07FFFF80
1FFFFF80
3FFFFF80
7F800F80
7E000F80
FC000F80
F8000F80
F8001F80
F8001F80
F8003F80
FC003F80
FE00FF80
7F03FF80
3FFFEF80
3FFFCF80
0FFF8F80
03FC0000
00000000
00000000
00000000
00000000
7FFFFF80
7FFFFF80
7FFFFF80
7FFFFF80
ENDCHAR
STARTCHAR guillemotleft
ENCODING 171
SWIDTH 611 0
DWIDTH 44 0
BBX 31 32 6 5
BITMAP
00010002
00030006
0007000E
000F001E
001F003E
003F007E
007F00FE
00FE01FC
01FC03F8
03F807F0
0FF01FE0
1FE03FC0
3FC07F80
7F80FE00
FE01FC00
FC01F800
FC01F800
FE01FC00
7F80FE00
3FC07F80
1FE03FC0
0FF01FE0
03F807F0
01FC03F8
00FE01FC
007F00FE
003F007E
001F003E
000F001E
0007000E
00030006
00010002
ENDCHAR
STARTCHAR logicalnot
ENCODING 172
SWIDTH 837 0
DWIDTH 60 0
BBX 45 20 8 10
BITMAP
FFFFFFFFFFF8
FFFFFFFFFFF8
FFFFFFFFFFF8
FFFFFFFFFFF8
FFFFFFFFFFF8
FFFFFFFFFFF8
0000000001F8
0000000001F8
0000000001F8
0000000001F8
0000000001F8
0000000001F8
0000000001F8
0000000001F8
0000000001F8
0000000001F8
0000000001F8
0000000001F8
0000000001F8
0000000001F8
ENDCHAR
STARTCHAR sfthyphen
ENCODING 173
SWIDTH 360 0
DWIDTH 26 0
BBX 19 6 4 17
BITMAP
FFFFE0
FFFFE0
FFFFE0
FFFFE0
FFFFE0
FFFFE0
ENDCHAR
STARTCHAR registered
ENCODING 174
SWIDTH 1000 0
DWIDTH 72 0
BBX 52 52 10 0
BITMAP
000007FE000000
00007FFFE00000
0001FFFFF80000
0007FFFFFE0000
001FF801FF8000
003FC0003FC000
007F00000FE000
00FC000003F000
01F8000001F800
03F00000007C00
07E00000003E00
0FC0FFFC001F00
0F80FFFF801F00
1F00FFFFE00F80
1E00FFFFF00780
3E00F807F007C0
3C00F801F803C0
7C00F800F803E0
7800F800F801E0
7800F800F801E0
7800F800F801E0
F000F800F800F0
F000F801F000F0
F000F807F000F0
F000FFFFE000F0
F000FFFFC000F0
F000FFFF0000F0
F000FFFE0000F0
F000F83F0000F0
F000F81F8000F0
F000F80FC000F0
7800F807C001E0
7800F807E001E0
7800F803F001E0
7C00F801F003E0
3C00F801F803C0
3E00F800FC07C0
1E00F8007C0780
1F00F8007E0F80
0F80F8003F1F00
0FC00000001F00
07E00000003E00
03F00000007C00
01F8000001F800
00FC000003F000
007F00000FE000
003FC0003FC000
001FF801FF8000
0007FFFFFE0000
0001FFFFF80000
00007FFFE00000
000007FE000000
ENDCHAR
STARTCHAR macron
ENCODING 175
SWIDTH 500 0
DWIDTH 36 0
BBX 21 5 7 49
BITMAP
FFFFF8
FFFFF8
FFFFF8
FFFFF8
FFFFF8
ENDCHAR
STARTCHAR degree
ENCODING 176
SWIDTH 500 0
DWIDTH 36 0
BBX 22 22 7 31
BITMAP
00FC00
07FF80
0FFFC0
1FFFE0
3F03F0
7E01F8
7C00F8
780078
F0003C
F0003C
F0003C
F0003C
F0003C
F0003C
F80078
7C00F8
7E01F8
3F03F0
1FFFE0
0FFFC0
07FF80
01FC00
ENDCHAR
STARTCHAR plusminus
ENCODING 177
SWIDTH 837 0
DWIDTH 60 0
BBX 46 46 7 0
BITMAP
00000FC00000
00000FC00000
00000FC00000
00000FC00000
00000FC00000
00000FC00000
00000FC00000
00000FC00000
00000FC00000
00000FC00000
00000FC00000
00000FC00000
00000FC00000
00000FC00000
FFFFFFFFFFFC
FFFFFFFFFFFC
FFFFFFFFFFFC
FFFFFFFFFFFC
FFFFFFFFFFFC
FFFFFFFFFFFC
00000FC00000
00000FC00000
00000FC00000
00000FC00000
00000FC00000
00000FC00000
00000FC00000
00000FC00000
00000FC00000
00000FC00000
00000FC00000
00000FC00000
00000FC00000
00000FC00000
000000000000
000000000000
000000000000
000000000000
000000000000
000000000000
FFFFFFFFFFFC
FFFFFFFFFFFC
FFFFFFFFFFFC
FFFFFFFFFFFC
FFFFFFFFFFFC
FFFFFFFFFFFC
ENDCHAR
STARTCHAR twosuperior
ENCODING 178
SWIDTH 400 0
DWIDTH 29 0
BBX 21 29 3 24
BITMAP
07FC00
7FFF80
FFFFC0
FFFFE0
F80FF0
8003F8
0001F8
0000F8
0000F8
0000F8
0001F0
0001F0
0003E0
0007E0
000FC0
001F80
003F00
007E00
00FC00
01F800
03F000
0FC000
1F8000
3F0000
7E0000
FFFFF8
FFFFF8
FFFFF8
FFFFF8
ENDCHAR
STARTCHAR threesuperior
ENCODING 179
SWIDTH 400 0
DWIDTH 29 0
BBX 22 29 3 24
BITMAP
0FFE00
7FFF80
7FFFE0
7FFFF0
7007F0
0001F8
0000F8
0000F8
0000F8
0001F0
0007F0
03FFE0
03FF00
03FFC0
03FFE0
0007F0
0001F8
0000FC
00007C
00007C
00007C
00007C
0000FC
0001F8
C007F8
FFFFF0
FFFFE0
FFFF80
1FFC00
ENDCHAR
STARTCHAR acute
ENCODING 180
SWIDTH 500 0
DWIDTH 36 0
BBX 17 13 13 45
BITMAP
003F80
007F00
00FE00
01FC00
03F800
03F000
07E000
0FC000
1F8000
1F8000
3F0000
7E0000
FC0000
ENDCHAR
STARTCHAR mu
ENCODING 181
SWIDTH 636 0
DWIDTH 46 0
BBX 38 54 7 -15
BITMAP
FC00001F80
FC00001F80
FC00001F80
FC00001F80
FC00001F80
FC00001F80
FC00001F80
FC00001F80
FC00001F80
FC00001F80
FC00001F80
FC00001F80
FC00001F80
FC00001F80
FC00001F80
FC00001F80
FC00001F80
FC00001F80
FC00001F80
FC00001F80
FC00001F80
FC00001F80
FC00001F80
FC00001F80
FC00001F80
FC00001F80
FC00001F80
FC00003F80
FE00003F80
FE00003F80
FE00007F80
FF00007F80
FF8000FF80
FFC003FFC4
FFF00FFFFC
FFFFFFFFFC
FDFFFFCFFC
FCFFFF8FFC
FC3FFE07FC
FC0FF803F0
FC00000000
FC00000000
FC00000000
FC00000000
FC00000000
FC00000000
FC00000000
FC00000000
FC00000000
FC00000000
FC00000000
FC00000000
FC00000000
FC00000000
ENDCHAR
STARTCHAR paragraph
ENCODING 182
SWIDTH 636 0
DWIDTH 46 0
BBX 32 59 6 -7
BITMAP
001FFFFF
00FFFFFF
03FFFFFF
07FFFFFF
0FFFF01F
1FFFF01F
3FFFF01F
3FFFF01F
7FFFF01F
7FFFF01F
FFFFF01F
FFFFF01F
FFFFF01F
FFFFF01F
FFFFF01F
FFFFF01F
FFFFF01F
FFFFF01F
FFFFF01F
7FFFF01F
7FFFF01F
7FFFF01F
3FFFF01F
1FFFF01F
0FFFF01F
07FFF01F
03FFF01F
00FFF01F
003FF01F
0001F01F
0001F01F
0001F01F
0001F01F
0001F01F
0001F01F
0001F01F
0001F01F
0001F01F
0001F01F
0001F01F
0001F01F
0001F01F
0001F01F
0001F01F
0001F01F
0001F01F
0001F01F
0001F01F
0001F01F
0001F01F
0001F01F
0001F01F
0001F01F
0001F01F
0001F01F
0001F01F
0001F01F
0001F01F
0001F01F
ENDCHAR
STARTCHAR periodcentered
ENCODING 183
SWIDTH 317 0
DWIDTH 23 0
BBX 7 9 8 20
BITMAP
FE
FE
FE
FE
FE
FE
FE
FE
FE
ENDCHAR
STARTCHAR cedilla
ENCODING 184
SWIDTH 500 0
DWIDTH 36 0
BBX 15 14 10 -14
BITMAP
01E0
00F0
0078
007C
003C
003E
003E
003E
007E
80FE
FFFC
FFFC
FFF8
7FC0
ENDCHAR
STARTCHAR onesuperior
ENCODING 185
SWIDTH 400 0
DWIDTH 29 0
BBX 19 29 5 24
BITMAP
0FF000
FFF000
FFF000
FFF000
F1F000
01F000
01F000
01F000
01F000
01F000
01F000
01F000
01F000
01F000
01F000
01F000
01F000
01F000
01F000
01F000
01F000
01F000
01F000
01F000
01F000
FFFFE0
FFFFE0
FFFFE0
FFFFE0
ENDCHAR
STARTCHAR ordmasculine
ENCODING 186
SWIDTH 471 0
DWIDTH 34 0
BBX 27 37 3 16
BITMAP
007FC000
01FFF000
07FFFC00
0FFFFE00
1FE0FF00
3F803F80
3F001F80
7E000FC0
7C0007C0
7C0007C0
FC0007E0
F80003E0
F80003E0
F80003E0
F80003E0
F80003E0
F80003E0
F80003E0
F80007E0
7C0007C0
7C0007C0
7E000FC0
3F001F80
3F803F80
1FE0FF00
0FFFFE00
07FFFC00
01FFF000
007FC000
00000000
00000000
00000000
00000000
7FFFFFC0
7FFFFFC0
7FFFFFC0
7FFFFFC0
ENDCHAR
STARTCHAR guillemotright
ENCODING 187
SWIDTH 611 0
DWIDTH 44 0
BBX 31 32 7 5
BITMAP
80010000
C0018000
E001C000
F001E000
F801F000
FC01F800
FE01FC00
7F00FE00
3F807F00
1FC03F80
0FF01FE0
07F80FF0
03FC07F8
00FE03FC
007F00FE
003F007E
003F007E
007F00FE
00FE03FC
03FC07F8
07F80FF0
0FF01FE0
1FC03F80
3F807F00
7F00FE00
FE01FC00
FC01F800
F801F000
F001E000
E001C000
C0018000
80010000
ENDCHAR
STARTCHAR onequarter
ENCODING 188
SWIDTH 969 0
DWIDTH 70 0
BBX 63 54 5 -1
BITMAP
0FF00000001F8000
FFF00000001F0000
FFF00000003F0000
FFF00000007E0000
F1F00000007C0000
01F0000000FC0000
01F0000000F80000
01F0000001F80000
01F0000003F00000
01F0000003E00000
01F0000007E00000
01F0000007C00000
01F000000FC00000
01F000001F800000
01F000001F000000
01F000003F000000
01F000003E000000
01F000007E000000
01F00000FC000000
01F00000F8000000
01F00001F8000000
01F00001F0000000
01F00003F0000000
01F00007E0000FC0
01F00007C0001FC0
FFFFE00FC0003FC0
FFFFE00F80007FC0
FFFFE01F00007FC0
FFFFE03F0000F7C0
0000003E0001E7C0
0000007E0003E7C0
000000FC0003C7C0
000000F8000787C0
000001F8000F07C0
000001F0001F07C0
000003F0001E07C0
000007E0003C07C0
000007C0007807C0
00000FC000F007C0
00000F8000F007C0
00001F8001E007C0
00003F0003C007C0
00003E0003FFFFFE
00007E0003FFFFFE
00007C0003FFFFFE
0000FC0003FFFFFE
0001F800000007C0
0001F000000007C0
0003F000000007C0
0003E000000007C0
0007E000000007C0
000FC000000007C0
000F800000000000
001F800000000000
ENDCHAR
STARTCHAR onehalf
ENCODING 189
SWIDTH 969 0
DWIDTH 70 0
BBX 60 54 5 -1
BITMAP
0FF00000001F8000
FFF00000001F0000
FFF00000003F0000
FFF00000007E0000
F1F00000007C0000
01F0000000FC0000
01F0000000F80000
01F0000001F80000
01F0000003F00000
01F0000003E00000
01F0000007E00000
01F0000007C00000
01F000000FC00000
01F000001F800000
01F000001F000000
01F000003F000000
01F000003E000000
01F000007E000000
01F00000FC000000
01F00000F8000000
01F00001F8000000
01F00001F0000000
01F00003F0000000
01F00007E00FF800
01F00007C0FFFF00
FFFFE00FC1FFFF80
FFFFE00F81FFFFC0
FFFFE01F01F01FE0
FFFFE03F010007F0
0000003E000003F0
0000007E000001F0
000000FC000001F0
000000F8000001F0
000001F8000003E0
000001F0000003E0
000003F0000007C0
000007E000000FC0
000007C000001F80
00000FC000003F00
00000F8000007E00
00001F800000FC00
00003F000001F800
00003E000003F000
00007E000007E000
00007C00001F8000
0000FC00003F0000
0001F800007E0000
0001F00000FC0000
0003F00001FFFFF0
0003E00001FFFFF0
0007E00001FFFFF0
000FC00001FFFFF0
000F800000000000
001F800000000000
ENDCHAR
STARTCHAR threequarters
ENCODING 190
SWIDTH 969 0
DWIDTH 70 0
BBX 65 54 3 -1
BITMAP
0FFE00000007E00000
7FFF80000007C00000
7FFFE000000FC00000
7FFFF000001F800000
7007F000001F000000
0001F800003F000000
0000F800003E000000
0000F800007E000000
0000F80000FC000000
0001F00000F8000000
0007F00001F8000000
03FFE00001F0000000
03FF000003F0000000
03FFC00007E0000000
03FFE00007C0000000
0007F0000FC0000000
0001F8000F80000000
0000FC001F80000000
00007C003F00000000
00007C003E00000000
00007C007E00000000
00007C007C00000000
0000FC00FC00000000
0001F801F80003F000
C007F801F00007F000
FFFFF003F0000FF000
FFFFE003E0001FF000
FFFF8007C0001FF000
1FFC000FC0003DF000
0000000F800079F000
0000001F8000F9F000
0000003F0000F1F000
0000003E0001E1F000
0000007E0003C1F000
0000007C0007C1F000
000000FC000781F000
000001F8000F01F000
000001F0001E01F000
000003F0003C01F000
000003E0003C01F000
000007E0007801F000
00000FC000F001F000
00000F8000FFFFFF80
00001F8000FFFFFF80
00001F0000FFFFFF80
00003F0000FFFFFF80
00007E00000001F000
00007C00000001F000
0000FC00000001F000
0000F800000001F000
0001F800000001F000
0003F000000001F000
0003E0000000000000
0007E0000000000000
ENDCHAR
STARTCHAR questiondown
ENCODING 191
SWIDTH 530 0
DWIDTH 38 0
BBX 28 53 5 -1
BITMAP
000FE000
000FE000
000FE000
000FE000
000FE000
000FE000
000FE000
000FE000
000FE000
00000000
00000000
00000000
00000000
00000000
000FE000
000FE000
000FE000
000FE000
000FE000
000FE000
000FE000
000FE000
000FE000
001FE000
001FC000
003FC000
007F8000
00FF0000
01FE0000
03FC0000
07F80000
0FF00000
1FE00000
3FC00000
3F800000
7F800000
7F000000
FE000000
FE000000
FE000000
FE000000
FE000000
FE000010
FF000030
7F8000F0
7FC003F0
7FF01FF0
3FFFFFF0
1FFFFFF0
0FFFFFE0
07FFFF80
01FFFE00
003FE000
ENDCHAR
STARTCHAR Agrave
ENCODING 192
SWIDTH 684 0
DWIDTH 49 0
BBX 48 66 1 0
BITMAP
0001FC000000
0000FE000000
00007F000000
00003F000000
00001F800000
00000FC00000
000007E00000
000003E00000
000001F00000
000000000000
000000000000
000000000000
000000000000
000000000000
00000FF00000
00001FF80000
00001FF80000
00001FF80000
00003FFC0000
00003FFC0000
00007FFE0000
00007FFE0000
00007E7E0000
0000FE7F0000
0000FE7F0000
0000FC3F0000
0001FC3F8000
0001FC3F8000
0003F81FC000
0003F81FC000
0003F00FC000
0007F00FE000
0007F00FE000
000FE007F000
000FE007F000
000FE007F000
001FC003F800
001FC003F800
001FC003F800
003F8001FC00
003F8001FC00
007F0000FE00
007F0000FE00
007F0000FE00
00FE00007F00
00FE00007F00
01FE00007F80
01FFFFFFFF80
01FFFFFFFF80
03FFFFFFFFC0
03FFFFFFFFC0
03FFFFFFFFC0
07FFFFFFFFE0
07F000000FE0
0FF000000FF0
0FE0000007F0
0FE0000007F0
1FE0000003F8
1FC0000003F8
3FC0000003F8
3FC0000001FC
3F80000001FC
7F80000001FE
7F00000000FE
7F00000000FE
FF00000000FF
ENDCHAR
STARTCHAR Aacute
ENCODING 193
SWIDTH 684 0
DWIDTH 49 0
BBX 48 66 1 0
BITMAP
0000003F0000
0000007E0000
000000FC0000
000001F80000
000003F00000
000003E00000
000007E00000
00000FC00000
00001F800000
000000000000
000000000000
000000000000
000000000000
000000000000
00000FF00000
00001FF80000
00001FF80000
00001FF80000
00003FFC0000
00003FFC0000
00007FFE0000
00007FFE0000
00007E7E0000
0000FE7F0000
0000FE7F0000
0000FC3F0000
0001FC3F8000
0001FC3F8000
0003F81FC000
0003F81FC000
0003F00FC000
0007F00FE000
0007F00FE000
000FE007F000
000FE007F000
000FE007F000
001FC003F800
001FC003F800
001FC003F800
003F8001FC00
003F8001FC00
007F0000FE00
007F0000FE00
007F0000FE00
00FE00007F00
00FE00007F00
01FE00007F80
01FFFFFFFF80
01FFFFFFFF80
03FFFFFFFFC0
03FFFFFFFFC0
03FFFFFFFFC0
07FFFFFFFFE0
07F000000FE0
0FF000000FF0
0FE0000007F0
0FE0000007F0
1FE0000003F8
1FC0000003F8
3FC0000003F8
3FC0000001FC
3F80000001FC
7F80000001FE
7F00000000FE
7F00000000FE
FF00000000FF
ENDCHAR
STARTCHAR Acircumflex
ENCODING 194
SWIDTH 684 0
DWIDTH 49 0
BBX 48 66 1 0
BITMAP
00000FE00000
00001FF00000
00003FF80000
00007EFC0000
00007C7C0000
0000F83E0000
0001F01F0000
0003E00F8000
0007C007C000
000000000000
000000000000
000000000000
000000000000
000000000000
00000FF00000
00001FF80000
00001FF80000
00001FF80000
00003FFC0000
00003FFC0000
00007FFE0000
00007FFE0000
00007E7E0000
0000FE7F0000
0000FE7F0000
0000FC3F0000
0001FC3F8000
0001FC3F8000
0003F81FC000
0003F81FC000
0003F00FC000
0007F00FE000
0007F00FE000
000FE007F000
000FE007F000
000FE007F000
001FC003F800
001FC003F800
001FC003F800
003F8001FC00
003F8001FC00
007F0000FE00
007F0000FE00
007F0000FE00
00FE00007F00
00FE00007F00
01FE00007F80
01FFFFFFFF80
01FFFFFFFF80
03FFFFFFFFC0
03FFFFFFFFC0
03FFFFFFFFC0
07FFFFFFFFE0
07F000000FE0
0FF000000FF0
0FE0000007F0
0FE0000007F0
1FE0000003F8
1FC0000003F8
3FC0000003F8
3FC0000001FC
3F80000001FC
7F80000001FE
7F00000000FE
7F00000000FE
FF00000000FF
ENDCHAR
STARTCHAR Atilde
ENCODING 195
SWIDTH 684 0
DWIDTH 49 0
BBX 48 67 1 0
BITMAP
0000F801E000
0003FE01E000
0003FF81E000
0007FFE3C000
000F8FFFC000
000F03FF8000
000F00FF0000
000F003E0000
000000000000
000000000000
000000000000
000000000000
000000000000
000000000000
000000000000
00000FF00000
00001FF80000
00001FF80000
00001FF80000
00003FFC0000
00003FFC0000
00007FFE0000
00007FFE0000
00007E7E0000
0000FE7F0000
0000FE7F0000
0000FC3F0000
0001FC3F8000
0001FC3F8000
0003F81FC000
0003F81FC000
0003F00FC000
0007F00FE000
0007F00FE000
000FE007F000
000FE007F000
000FE007F000
001FC003F800
001FC003F800
001FC003F800
003F8001FC00
003F8001FC00
007F0000FE00
007F0000FE00
007F0000FE00
00FE00007F00
00FE00007F00
01FE00007F80
01FFFFFFFF80
01FFFFFFFF80
03FFFFFFFFC0
03FFFFFFFFC0
03FFFFFFFFC0
07FFFFFFFFE0
07F000000FE0
0FF000000FF0
0FE0000007F0
0FE0000007F0
1FE0000003F8
1FC0000003F8
3FC0000003F8
3FC0000001FC
3F80000001FC
7F80000001FE
7F00000000FE
7F00000000FE
FF00000000FF
ENDCHAR
STARTCHAR Adieresis
ENCODING 196
SWIDTH 684 0
DWIDTH 49 0
BBX 48 66 1 0
BITMAP
0003F80FE000
0003F80FE000
0003F80FE000
0003F80FE000
0003F80FE000
0003F80FE000
0003F80FE000
000000000000
000000000000
000000000000
000000000000
000000000000
000000000000
000000000000
00000FF00000
00001FF80000
00001FF80000
00001FF80000
00003FFC0000
00003FFC0000
00007FFE0000
00007FFE0000
00007E7E0000
0000FE7F0000
0000FE7F0000
0000FC3F0000
0001FC3F8000
0001FC3F8000
0003F81FC000
0003F81FC000
0003F00FC000
0007F00FE000
0007F00FE000
000FE007F000
000FE007F000
000FE007F000
001FC003F800
001FC003F800
001FC003F800
003F8001FC00
003F8001FC00
007F0000FE00
007F0000FE00
007F0000FE00
00FE00007F00
00FE00007F00
01FE00007F80
01FFFFFFFF80
01FFFFFFFF80
03FFFFFFFFC0
03FFFFFFFFC0
03FFFFFFFFC0
07FFFFFFFFE0
07F000000FE0
0FF000000FF0
0FE0000007F0
0FE0000007F0
1FE0000003F8
1FC0000003F8
3FC0000003F8
3FC0000001FC
3F80000001FC
7F80000001FE
7F00000000FE
7F00000000FE
FF00000000FF
ENDCHAR
STARTCHAR Aring
ENCODING 197
SWIDTH 684 0
DWIDTH 49 0
BBX 48 67 1 0
BITMAP
000007E00000
00001FF80000
00007FFE0000
0000FFFF0000
0001F83F0000
0001F00F8000
0003E0078000
0003C003C000
0003C003C000
0003C003C000
0003C003C000
0003C003C000
0003E007C000
0001F00F8000
0001F81F8000
0000FFFF0000
00007FFE0000
00003FFC0000
00003FFC0000
00007FFE0000
00007FFE0000
00007FFE0000
0000FFFF0000
0000FE7F0000
0000FE7F0000
0001FC7F8000
0001FC3F8000
0003FC3FC000
0003F81FC000
0003F81FC000
0007F81FE000
0007F00FE000
0007F00FE000
000FE00FF000
000FE007F000
000FE007F000
001FC003F800
001FC003F800
003FC003FC00
003F8001FC00
003F8001FC00
007F8001FE00
007F0000FE00
007F0000FE00
00FE00007F00
00FE00007F00
01FE00007F80
01FC00003F80
01FFFFFFFF80
03FFFFFFFFC0
03FFFFFFFFC0
03FFFFFFFFC0
07FFFFFFFFE0
07FFFFFFFFE0
07F000000FE0
0FE0000007F0
0FE0000007F0
1FE0000007F8
1FC0000003F8
1FC0000003F8
3FC0000003FC
3F80000001FC
3F80000001FC
7F80000000FE
7F00000000FE
7F00000000FE
FE000000007F
ENDCHAR
STARTCHAR AE
ENCODING 198
SWIDTH 974 0
DWIDTH 70 0
BBX 65 52 0 0
BITMAP
000007FFFFFFFFFF00
000007FFFFFFFFFF00
000007FFFFFFFFFF00
00000FFFFFFFFFFF00
00000FFFFFFFFFFF00
00001FFFFFFFFFFF00
00001FC1FC00000000
00001FC1FC00000000
00003F81FC00000000
00003F81FC00000000
00007F81FC00000000
00007F01FC00000000
0000FF01FC00000000
0000FE01FC00000000
0000FE01FC00000000
0001FC01FC00000000
0001FC01FC00000000
0003FC01FC00000000
0003F801FC00000000
0003F801FC00000000
0007F001FC00000000
0007F001FFFFFFFE00
000FF001FFFFFFFE00
000FE001FFFFFFFE00
001FE001FFFFFFFE00
001FC001FFFFFFFE00
001FC001FFFFFFFE00
003F8001FC00000000
003F8001FC00000000
007F8001FC00000000
007F0001FC00000000
007F0001FC00000000
00FE0001FC00000000
00FFFFFFFC00000000
01FFFFFFFC00000000
01FFFFFFFC00000000
03FFFFFFFC00000000
03FFFFFFFC00000000
03FFFFFFFC00000000
07F00001FC00000000
07F00001FC00000000
0FF00001FC00000000
0FE00001FC00000000
0FE00001FC00000000
1FC00001FC00000000
1FC00001FC00000000
3F800001FFFFFFFF80
3F800001FFFFFFFF80
7F800001FFFFFFFF80
7F000001FFFFFFFF80
7F000001FFFFFFFF80
FE000001FFFFFFFF80
ENDCHAR
STARTCHAR Ccedilla
ENCODING 199
SWIDTH 698 0
DWIDTH 50 0
BBX 42 67 4 -14
BITMAP
00000FFE0000
0000FFFFE000
0007FFFFFC00
001FFFFFFF00
003FFFFFFF80
007FFFFFFFC0
00FFF801FFC0
01FF80003FC0
03FE000007C0
07FC000003C0
0FF8000000C0
0FF000000040
1FE000000000
1FC000000000
3FC000000000
3F8000000000
7F8000000000
7F0000000000
7F0000000000
7F0000000000
FF0000000000
FE0000000000
FE0000000000
FE0000000000
FE0000000000
FE0000000000
FE0000000000
FE0000000000
FE0000000000
FE0000000000
FE0000000000
FE0000000000
FE0000000000
FF0000000000
7F0000000000
7F0000000000
7F0000000000
7F8000000000
3F8000000000
3FC000000000
1FC000000000
1FE000000000
0FF000000040
0FF8000000C0
07FC000003C0
03FE000007C0
01FF80003FC0
01FFF801FFC0
007FFFFFFFC0
003FFFFFFF80
001FFFFFFE00
0007FFFFFC00
0000FFFFE000
00001FFE0000
000000780000
0000003C0000
0000003E0000
0000001E0000
0000001F0000
0000001F0000
0000001F0000
0000003F0000
0000407F0000
00007FFE0000
00007FFE0000
00007FFC0000
00003FE00000
ENDCHAR
STARTCHAR Egrave
ENCODING 200
SWIDTH 631 0
DWIDTH 46 0
BBX 34 66 7 0
BITMAP
00FE000000
007F000000
003F800000
001F800000
000FC00000
0007E00000
0003F00000
0001F00000
0000F80000
0000000000
0000000000
0000000000
0000000000
0000000000
FFFFFFFF80
FFFFFFFF80
FFFFFFFF80
FFFFFFFF80
FFFFFFFF80
FFFFFFFF80
FE00000000
FE00000000
FE00000000
FE00000000
FE00000000
FE00000000
FE00000000
FE00000000
FE00000000
FE00000000
FE00000000
FE00000000
FE00000000
FE00000000
FE00000000
FFFFFFFF00
FFFFFFFF00
FFFFFFFF00
FFFFFFFF00
FFFFFFFF00
FFFFFFFF00
FE00000000
FE00000000
FE00000000
FE00000000
FE00000000
FE00000000
FE00000000
FE00000000
FE00000000
FE00000000
FE00000000
FE00000000
FE00000000
FE00000000
FE00000000
FE00000000
FE00000000
FE00000000
FE00000000
FFFFFFFFC0
FFFFFFFFC0
FFFFFFFFC0
FFFFFFFFC0
FFFFFFFFC0
FFFFFFFFC0
ENDCHAR
STARTCHAR Eacute
ENCODING 201
SWIDTH 631 0
DWIDTH 46 0
BBX 34 66 7 0
BITMAP
00001F8000
00003F0000
00007E0000
0000FC0000
0001F80000
0001F00000
0003F00000
0007E00000
000FC00000
0000000000
0000000000
0000000000
0000000000
0000000000
FFFFFFFF80
FFFFFFFF80
FFFFFFFF80
FFFFFFFF80
FFFFFFFF80
FFFFFFFF80
FE00000000
FE00000000
FE00000000
FE00000000
FE00000000
FE00000000
FE00000000
FE00000000
FE00000000
FE00000000
FE00000000
FE00000000
FE00000000
FE00000000
FE00000000
FFFFFFFF00
FFFFFFFF00
FFFFFFFF00
FFFFFFFF00
FFFFFFFF00
FFFFFFFF00
FE00000000
FE00000000
FE00000000
FE00000000
FE00000000
FE00000000
FE00000000
FE00000000
FE00000000
FE00000000
FE00000000
FE00000000
FE00000000
FE00000000
FE00000000
FE00000000
FE00000000
FE00000000
FE00000000
FFFFFFFFC0
FFFFFFFFC0
FFFFFFFFC0
FFFFFFFFC0
FFFFFFFFC0
FFFFFFFFC0
ENDCHAR
STARTCHAR Ecircumflex
ENCODING 202
SWIDTH 631 0
DWIDTH 46 0
BBX 34 66 7 0
BITMAP
0007F00000
000FF80000
001FFC0000
003F7E0000
003E3E0000
007C1F0000
00F80F8000
01F007C000
03E003E000
0000000000
0000000000
0000000000
0000000000
0000000000
FFFFFFFF80
FFFFFFFF80
FFFFFFFF80
FFFFFFFF80
FFFFFFFF80
FFFFFFFF80
FE00000000
FE00000000
FE00000000
FE00000000
FE00000000
FE00000000
FE00000000
FE00000000
FE00000000
FE00000000
FE00000000
FE00000000
FE00000000
FE00000000
FE00000000
FFFFFFFF00
FFFFFFFF00
FFFFFFFF00
FFFFFFFF00
FFFFFFFF00
FFFFFFFF00
FE00000000
FE00000000
FE00000000
FE00000000
FE00000000
FE00000000
FE00000000
FE00000000
FE00000000
FE00000000
FE00000000
FE00000000
FE00000000
FE00000000
FE00000000
FE00000000
FE00000000
FE00000000
FE00000000
FFFFFFFFC0
FFFFFFFFC0
FFFFFFFFC0
FFFFFFFFC0
FFFFFFFFC0
FFFFFFFFC0
ENDCHAR
STARTCHAR Edieresis
ENCODING 203
SWIDTH 631 0
DWIDTH 46 0
BBX 34 66 7 0
BITMAP
01FC07F000
01FC07F000
01FC07F000
01FC07F000
01FC07F000
01FC07F000
01FC07F000
0000000000
0000000000
0000000000
0000000000
0000000000
0000000000
0000000000
FFFFFFFF80
FFFFFFFF80
FFFFFFFF80
FFFFFFFF80
FFFFFFFF80
FFFFFFFF80
FE00000000
FE00000000
FE00000000
FE00000000
FE00000000
FE00000000
FE00000000
FE00000000
FE00000000
FE00000000
FE00000000
FE00000000
FE00000000
FE00000000
FE00000000
FFFFFFFF00
FFFFFFFF00
FFFFFFFF00
FFFFFFFF00
FFFFFFFF00
FFFFFFFF00
FE00000000
FE00000000
FE00000000
FE00000000
FE00000000
FE00000000
FE00000000
FE00000000
FE00000000
FE00000000
FE00000000
FE00000000
FE00000000
FE00000000
FE00000000
FE00000000
FE00000000
FE00000000
FE00000000
FFFFFFFFC0
FFFFFFFFC0
FFFFFFFFC0
FFFFFFFFC0
FFFFFFFFC0
FFFFFFFFC0
ENDCHAR
STARTCHAR Igrave
ENCODING 204
SWIDTH 294 0
DWIDTH 21 0
BBX 13 66 2 0
BITMAP
FE00
7F00
3F80
1F80
0FC0
07E0
03F0
01F0
00F8
0000
0000
0000
0000
0000
07F0
07F0
07F0
07F0
07F0
07F0
07F0
07F0
07F0
07F0
07F0
07F0
07F0
07F0
07F0
07F0
07F0
07F0
07F0
07F0
07F0
07F0
07F0
07F0
07F0
07F0
07F0
07F0
07F0
07F0
07F0
07F0
07F0
07F0
07F0
07F0
07F0
07F0
07F0
07F0
07F0
07F0
07F0
07F0
07F0
07F0
07F0
07F0
07F0
07F0
07F0
07F0
ENDCHAR
STARTCHAR Iacute
ENCODING 205
SWIDTH 294 0
DWIDTH 21 0
BBX 13 66 6 0
BITMAP
01F8
03F0
07E0
0FC0
1F80
1F00
3F00
7E00
FC00
0000
0000
0000
0000
0000
7F00
7F00
7F00
7F00
7F00
7F00
7F00
7F00
7F00
7F00
7F00
7F00
7F00
7F00
7F00
7F00
7F00
7F00
7F00
7F00
7F00
7F00
7F00
7F00
7F00
7F00
7F00
7F00
7F00
7F00
7F00
7F00
7F00
7F00
7F00
7F00
7F00
7F00
7F00
7F00
7F00
7F00
7F00
7F00
7F00
7F00
7F00
7F00
7F00
7F00
7F00
7F00
ENDCHAR
STARTCHAR Icircumflex
ENCODING 206
SWIDTH 294 0
DWIDTH 21 0
BBX 21 66 0 0
BITMAP
01FC00
03FE00
07FF00
0FDF80
0F8F80
1F07C0
3E03E0
7C01F0
F800F8
000000
000000
000000
000000
000000
01FC00
01FC00
01FC00
01FC00
01FC00
01FC00
01FC00
01FC00
01FC00
01FC00
01FC00
01FC00
01FC00
01FC00
01FC00
01FC00
01FC00
01FC00
01FC00
01FC00
01FC00
01FC00
01FC00
01FC00
01FC00
01FC00
01FC00
01FC00
01FC00
01FC00
01FC00
01FC00
01FC00
01FC00
01FC00
01FC00
01FC00
01FC00
01FC00
01FC00
01FC00
01FC00
01FC00
01FC00
01FC00
01FC00
01FC00
01FC00
01FC00
01FC00
01FC00
01FC00
ENDCHAR
STARTCHAR Idieresis
ENCODING 207
SWIDTH 294 0
DWIDTH 21 0
BBX 21 66 1 0
BITMAP
FE03F8
FE03F8
FE03F8
FE03F8
FE03F8
FE03F8
FE03F8
000000
000000
000000
000000
000000
000000
000000
03F800
03F800
03F800
03F800
03F800
03F800
03F800
03F800
03F800
03F800
03F800
03F800
03F800
03F800
03F800
03F800
03F800
03F800
03F800
03F800
03F800
03F800
03F800
03F800
03F800
03F800
03F800
03F800
03F800
03F800
03F800
03F800
03F800
03F800
03F800
03F800
03F800
03F800
03F800
03F800
03F800
03F800
03F800
03F800
03F800
03F800
03F800
03F800
03F800
03F800
03F800
03F800
ENDCHAR
STARTCHAR Eth
ENCODING 208
SWIDTH 774 0
DWIDTH 56 0
BBX 51 52 0 0
BITMAP
01FFFFF8000000
01FFFFFFE00000
01FFFFFFFC0000
01FFFFFFFF0000
01FFFFFFFFC000
01FFFFFFFFE000
01FC0007FFF000
01FC00007FF800
01FC00001FFC00
01FC000007FE00
01FC000003FE00
01FC000000FF00
01FC000000FF00
01FC0000007F80
01FC0000003F80
01FC0000003FC0
01FC0000003FC0
01FC0000001FC0
01FC0000001FC0
01FC0000001FE0
01FC0000000FE0
01FC0000000FE0
FFFFFFC0000FE0
FFFFFFC0000FE0
FFFFFFC0000FE0
FFFFFFC0000FE0
FFFFFFC0000FE0
01FC0000000FE0
01FC0000000FE0
01FC0000000FE0
01FC0000000FE0
01FC0000000FE0
01FC0000001FE0
01FC0000001FC0
01FC0000001FC0
01FC0000003FC0
01FC0000003FC0
01FC0000003F80
01FC0000007F80
01FC000000FF00
01FC000000FF00
01FC000001FE00
01FC000007FE00
01FC00000FFC00
01FC00007FF800
01FC0007FFF000
01FFFFFFFFE000
01FFFFFFFFC000
01FFFFFFFF0000
01FFFFFFF80000
01FFFFFFC00000
01FFFFF8000000
ENDCHAR
STARTCHAR Ntilde
ENCODING 209
SWIDTH 748 0
DWIDTH 54 0
BBX 40 67 7 0
BITMAP
000F801E00
003FE01E00
003FF81E00
007FFE3C00
00F8FFFC00
00F03FF800
00F00FF000
00F003E000
0000000000
0000000000
0000000000
0000000000
0000000000
0000000000
0000000000
FFC000007F
FFC000007F
FFE000007F
FFF000007F
FFF000007F
FFF800007F
FFF800007F
FFFC00007F
FFFC00007F
FEFE00007F
FEFE00007F
FE7F00007F
FE7F00007F
FE3F80007F
FE3F80007F
FE1FC0007F
FE1FE0007F
FE0FE0007F
FE0FF0007F
FE07F0007F
FE07F8007F
FE03F8007F
FE01FC007F
FE01FC007F
FE00FE007F
FE00FE007F
FE007F007F
FE007F007F
FE003F807F
FE003F807F
FE001FC07F
FE001FE07F
FE000FE07F
FE000FF07F
FE0007F07F
FE0007F87F
FE0003F87F
FE0001FC7F
FE0001FC7F
FE0000FE7F
FE0000FE7F
FE00007F7F
FE00007F7F
FE00003FFF
FE00003FFF
FE00001FFF
FE00001FFF
FE00000FFF
FE00000FFF
FE000007FF
FE000003FF
FE000003FF
ENDCHAR
STARTCHAR Ograve
ENCODING 210
SWIDTH 787 0
DWIDTH 57 0
BBX 49 67 4 -1
BITMAP
0001FC00000000
0000FE00000000
00007F00000000
00003F00000000
00001F80000000
00000FC0000000
000007E0000000
000003E0000000
000001F0000000
00000000000000
00000000000000
00000000000000
00000000000000
00001FFC000000
0001FFFFC00000
0007FFFFF00000
001FFFFFFC0000
003FFFFFFE0000
007FFFFFFF0000
01FFF007FFC000
01FF8000FFC000
03FE00003FE000
07FC00001FF000
0FF800000FF800
0FF0000007F800
1FE0000003FC00
1FC0000001FC00
3FC0000001FE00
3F80000000FE00
7F80000000FF00
7F000000007F00
7F000000007F00
7F000000007F00
FF000000007F00
FE000000003F80
FE000000003F80
FE000000003F80
FE000000003F80
FE000000003F80
FE000000003F80
FE000000003F80
FE000000003F80
FE000000003F80
FE000000003F80
FE000000003F80
FE000000003F80
FF000000007F00
7F000000007F00
7F000000007F00
7F000000007F00
7F80000000FF00
3F80000000FE00
3FC0000001FE00
1FC0000001FC00
1FE0000003FC00
0FF0000007F800
0FF800000FF800
07FC00001FF000
03FE00003FE000
03FF8000FFC000
01FFF007FFC000
007FFFFFFF8000
003FFFFFFE0000
001FFFFFFC0000
0007FFFFF00000
0001FFFFC00000
00001FFC000000
ENDCHAR
STARTCHAR Oacute
ENCODING 211
SWIDTH 787 0
DWIDTH 57 0
BBX 49 67 4 -1
BITMAP
0000003F000000
0000007E000000
000000FC000000
000001F8000000
000003F0000000
000003E0000000
000007E0000000
00000FC0000000
00001F80000000
00000000000000
00000000000000
00000000000000
00000000000000
00001FFC000000
0001FFFFC00000
0007FFFFF00000
001FFFFFFC0000
003FFFFFFE0000
007FFFFFFF0000
01FFF007FFC000
01FF8000FFC000
03FE00003FE000
07FC00001FF000
0FF800000FF800
0FF0000007F800
1FE0000003FC00
1FC0000001FC00
3FC0000001FE00
3F80000000FE00
7F80000000FF00
7F000000007F00
7F000000007F00
7F000000007F00
FF000000007F00
FE000000003F80
FE000000003F80
FE000000003F80
FE000000003F80
FE000000003F80
FE000000003F80
FE000000003F80
FE000000003F80
FE000000003F80
FE000000003F80
FE000000003F80
FE000000003F80
FF000000007F00
7F000000007F00
7F000000007F00
7F000000007F00
7F80000000FF00
3F80000000FE00
3FC0000001FE00
1FC0000001FC00
1FE0000003FC00
0FF0000007F800
0FF800000FF800
07FC00001FF000
03FE00003FE000
03FF8000FFC000
01FFF007FFC000
007FFFFFFF8000
003FFFFFFE0000
001FFFFFFC0000
0007FFFFF00000
0001FFFFC00000
00001FFC000000
ENDCHAR
STARTCHAR Ocircumflex
ENCODING 212
SWIDTH 787 0
DWIDTH 57 0
BBX 49 67 4 -1
BITMAP
00000FE0000000
00001FF0000000
00003FF8000000
00007EFC000000
00007C7C000000
0000F83E000000
0001F01F000000
0003E00F800000
0007C007C00000
00000000000000
00000000000000
00000000000000
00000000000000
00001FFC000000
0001FFFFC00000
0007FFFFF00000
001FFFFFFC0000
003FFFFFFE0000
007FFFFFFF0000
01FFF007FFC000
01FF8000FFC000
03FE00003FE000
07FC00001FF000
0FF800000FF800
0FF0000007F800
1FE0000003FC00
1FC0000001FC00
3FC0000001FE00
3F80000000FE00
7F80000000FF00
7F000000007F00
7F000000007F00
7F000000007F00
FF000000007F00
FE000000003F80
FE000000003F80
FE000000003F80
FE000000003F80
FE000000003F80
FE000000003F80
FE000000003F80
FE000000003F80
FE000000003F80
FE000000003F80
FE000000003F80
FE000000003F80
FF000000007F00
7F000000007F00
7F000000007F00
7F000000007F00
7F80000000FF00
3F80000000FE00
3FC0000001FE00
1FC0000001FC00
1FE0000003FC00
0FF0000007F800
0FF800000FF800
07FC00001FF000
03FE00003FE000
03FF8000FFC000
01FFF007FFC000
007FFFFFFF8000
003FFFFFFE0000
001FFFFFFC0000
0007FFFFF00000
0001FFFFC00000
00001FFC000000
ENDCHAR
STARTCHAR Otilde
ENCODING 213
SWIDTH 787 0
DWIDTH 57 0
BBX 49 68 4 -1
BITMAP
0000F801E00000
0003FE01E00000
0003FF81E00000
0007FFE3C00000
000F8FFFC00000
000F03FF800000
000F00FF000000
000F003E000000
00000000000000
00000000000000
00000000000000
00000000000000
00000000000000
00000000000000
00001FFC000000
0001FFFFC00000
0007FFFFF00000
001FFFFFFC0000
003FFFFFFE0000
007FFFFFFF0000
01FFF007FFC000
01FF8000FFC000
03FE00003FE000
07FC00001FF000
0FF800000FF800
0FF0000007F800
1FE0000003FC00
1FC0000001FC00
3FC0000001FE00
3F80000000FE00
7F80000000FF00
7F000000007F00
7F000000007F00
7F000000007F00
FF000000007F00
FE000000003F80
FE000000003F80
FE000000003F80
FE000000003F80
FE000000003F80
FE000000003F80
FE000000003F80
FE000000003F80
FE000000003F80
FE000000003F80
FE000000003F80
FE000000003F80
FF000000007F00
7F000000007F00
7F000000007F00
7F000000007F00
7F80000000FF00
3F80000000FE00
3FC0000001FE00
1FC0000001FC00
1FE0000003FC00
0FF0000007F800
0FF800000FF800
07FC00001FF000
03FE00003FE000
03FF8000FFC000
01FFF007FFC000
007FFFFFFF8000
003FFFFFFE0000
001FFFFFFC0000
0007FFFFF00000
0001FFFFC00000
00001FFC000000
ENDCHAR
STARTCHAR Odieresis
ENCODING 214
SWIDTH 787 0
DWIDTH 57 0
BBX 49 67 4 -1
BITMAP
0003F80FE00000
0003F80FE00000
0003F80FE00000
0003F80FE00000
0003F80FE00000
0003F80FE00000
0003F80FE00000
00000000000000
00000000000000
00000000000000
00000000000000
00000000000000
00000000000000
00001FFC000000
0001FFFFC00000
0007FFFFF00000
001FFFFFFC0000
003FFFFFFE0000
007FFFFFFF0000
01FFF007FFC000
01FF8000FFC000
03FE00003FE000
07FC00001FF000
0FF800000FF800
0FF0000007F800
1FE0000003FC00
1FC0000001FC00
3FC0000001FE00
3F80000000FE00
7F80000000FF00
7F000000007F00
7F000000007F00
7F000000007F00
FF000000007F00
FE000000003F80
FE000000003F80
FE000000003F80
FE000000003F80
FE000000003F80
FE000000003F80
FE000000003F80
FE000000003F80
FE000000003F80
FE000000003F80
FE000000003F80
FE000000003F80
FF000000007F00
7F000000007F00
7F000000007F00
7F000000007F00
7F80000000FF00
3F80000000FE00
3FC0000001FE00
1FC0000001FC00
1FE0000003FC00
0FF0000007F800
0FF800000FF800
07FC00001FF000
03FE00003FE000
03FF8000FFC000
01FFF007FFC000
007FFFFFFF8000
003FFFFFFE0000
001FFFFFFC0000
0007FFFFF00000
0001FFFFC00000
00001FFC000000
ENDCHAR
STARTCHAR multiply
ENCODING 215
SWIDTH 837 0
DWIDTH 60 0
BBX 41 41 10 2
BITMAP
080000000800
1C0000001C00
3E0000003E00
7F0000007F00
FF800000FF80
7FC00001FF00
3FE00003FE00
1FF00007FC00
0FF8000FF800
07FC001FF000
03FE003FE000
01FF007FC000
00FF80FF8000
007FC1FF0000
003FE3FE0000
001FF7FC0000
000FFFF80000
0007FFF00000
0003FFE00000
0001FFC00000
0000FF800000
0001FFC00000
0003FFE00000
0007FFF00000
000FFFF80000
001FF7FC0000
003FE3FE0000
007FC1FF0000
00FF80FF8000
01FF007FC000
03FE003FE000
07FC001FF000
0FF8000FF800
1FF00007FC00
3FE00003FE00
7FC00001FF00
FF800000FF80
7F0000007F00
3E0000003E00
1C0000001C00
080000000800
ENDCHAR
STARTCHAR Oslash
ENCODING 216
SWIDTH 787 0
DWIDTH 57 0
BBX 49 56 4 -2
BITMAP
00000000000600
00001FFC000700
0000FFFFC00F80
0007FFFFF01F80
001FFFFFFC3F00
003FFFFFFE7E00
007FFFFFFFFE00
00FFF007FFFC00
01FF8000FFF800
03FE00003FF000
07FC00001FF000
0FF800000FF800
0FF000001FF800
1FE000003FFC00
1FC000007FFC00
3FC000007FFE00
3F800000FCFE00
7F800001F8FF00
7F000003F07F00
7F000007E07F00
7F00000FE07F00
FF00001FC07F00
FE00003F803F80
FE00007F003F80
FE0000FE003F80
FE0000FC003F80
FE0001F8003F80
FE0003F0003F80
FE0007E0003F80
FE000FC0003F80
FE001FC0003F80
FE003F80003F80
FE007F00003F80
FE00FE00003F80
FF01FC00007F00
7F01F800007F00
7F03F000007F00
7F07E000007F00
7F8FC00000FF00
3F9F800000FE00
3FFF800001FE00
1FFF000001FC00
1FFE000003FC00
0FFC000007F800
0FF800000FF800
07FC00001FF000
07FE00003FE000
0FFF8000FFC000
1FFFF007FF8000
1FFFFFFFFF0000
3F3FFFFFFE0000
7E1FFFFFFC0000
FC07FFFFF00000
F801FFFF800000
70001FFC000000
30000000000000
ENDCHAR
STARTCHAR Ugrave
ENCODING 217
SWIDTH 731 0
DWIDTH 53 0
BBX 40 67 7 -1
BITMAP
003F800000
001FC00000
000FE00000
0007E00000
0003F00000
0001F80000
0000FC0000
00007C0000
00003E0000
0000000000
0000000000
0000000000
0000000000
0000000000
FE0000007F
FE0000007F
FE0000007F
FE0000007F
FE0000007F
FE0000007F
FE0000007F
FE0000007F
FE0000007F
FE0000007F
FE0000007F
FE0000007F
FE0000007F
FE0000007F
FE0000007F
FE0000007F
FE0000007F
FE0000007F
FE0000007F
FE0000007F
FE0000007F
FE0000007F
FE0000007F
FE0000007F
FE0000007F
FE0000007F
FE0000007F
FE0000007F
FE0000007F
FE0000007F
FE0000007F
FE0000007F
FE0000007F
FE0000007F
FE0000007F
FE0000007F
FE0000007F
FF000000FF
7F000000FE
7F000000FE
7F000000FE
7F800001FE
3F800001FC
3FC00003FC
1FE00007F8
1FF8001FF8
0FFF007FF0
07FFFFFFE0
03FFFFFFC0
01FFFFFF80
007FFFFE00
001FFFF800
0003FFC000
ENDCHAR
STARTCHAR Uacute
ENCODING 218
SWIDTH 731 0
DWIDTH 53 0
BBX 40 67 7 -1
BITMAP
000007E000
00000FC000
00001F8000
00003F0000
00007E0000
00007C0000
0000FC0000
0001F80000
0003F00000
0000000000
0000000000
0000000000
0000000000
0000000000
FE0000007F
FE0000007F
FE0000007F
FE0000007F
FE0000007F
FE0000007F
FE0000007F
FE0000007F
FE0000007F
FE0000007F
FE0000007F
FE0000007F
FE0000007F
FE0000007F
FE0000007F
FE0000007F
FE0000007F
FE0000007F
FE0000007F
FE0000007F
FE0000007F
FE0000007F
FE0000007F
FE0000007F
FE0000007F
FE0000007F
FE0000007F
FE0000007F
FE0000007F
FE0000007F
FE0000007F
FE0000007F
FE0000007F
FE0000007F
FE0000007F
FE0000007F
FE0000007F
FF000000FF
7F000000FE
7F000000FE
7F000000FE
7F800001FE
3F800001FC
3FC00003FC
1FE00007F8
1FF8001FF8
0FFF007FF0
07FFFFFFE0
03FFFFFFC0
01FFFFFF80
007FFFFE00
001FFFF800
0003FFC000
ENDCHAR
STARTCHAR Ucircumflex
ENCODING 219
SWIDTH 731 0
DWIDTH 53 0
BBX 40 67 7 -1
BITMAP
0001FC0000
0003FE0000
0007FF0000
000FDF8000
000F8F8000
001F07C000
003E03E000
007C01F000
00F800F800
0000000000
0000000000
0000000000
0000000000
0000000000
FE0000007F
FE0000007F
FE0000007F
FE0000007F
FE0000007F
FE0000007F
FE0000007F
FE0000007F
FE0000007F
FE0000007F
FE0000007F
FE0000007F
FE0000007F
FE0000007F
FE0000007F
FE0000007F
FE0000007F
FE0000007F
FE0000007F
FE0000007F
FE0000007F
FE0000007F
FE0000007F
FE0000007F
FE0000007F
FE0000007F
FE0000007F
FE0000007F
FE0000007F
FE0000007F
FE0000007F
FE0000007F
FE0000007F
FE0000007F
FE0000007F
FE0000007F
FE0000007F
FF000000FF
7F000000FE
7F000000FE
7F000000FE
7F800001FE
3F800001FC
3FC00003FC
1FE00007F8
1FF8001FF8
0FFF007FF0
07FFFFFFE0
03FFFFFFC0
01FFFFFF80
007FFFFE00
001FFFF800
0003FFC000
ENDCHAR
STARTCHAR Udieresis
ENCODING 220
SWIDTH 731 0
DWIDTH 53 0
BBX 40 67 7 -1
BITMAP
007F01FC00
007F01FC00
007F01FC00
007F01FC00
007F01FC00
007F01FC00
007F01FC00
0000000000
0000000000
0000000000
0000000000
0000000000
0000000000
0000000000
FE0000007F
FE0000007F
FE0000007F
FE0000007F
FE0000007F
FE0000007F
FE0000007F
FE0000007F
FE0000007F
FE0000007F
FE0000007F
FE0000007F
FE0000007F
FE0000007F
FE0000007F
FE0000007F
FE0000007F
FE0000007F
FE0000007F
FE0000007F
FE0000007F
FE0000007F
FE0000007F
FE0000007F
FE0000007F
FE0000007F
FE0000007F
FE0000007F
FE0000007F
FE0000007F
FE0000007F
FE0000007F
FE0000007F
FE0000007F
FE0000007F
FE0000007F
FE0000007F
FF000000FF
7F000000FE
7F000000FE
7F000000FE
7F800001FE
3F800001FC
3FC00003FC
1FE00007F8
1FF8001FF8
0FFF007FF0
07FFFFFFE0
03FFFFFFC0
01FFFFFF80
007FFFFE00
001FFFF800
0003FFC000
ENDCHAR
STARTCHAR Yacute
ENCODING 221
SWIDTH 610 0
DWIDTH 44 0
BBX 45 66 -1 0
BITMAP
0000007E0000
000000FC0000
000001F80000
000003F00000
000007E00000
000007C00000
00000FC00000
00001F800000
00003F000000
000000000000
000000000000
000000000000
000000000000
000000000000
FF00000007F8
7F8000000FF0
3F8000000FE0
3FC000001FE0
1FE000003FC0
0FF000007F80
07F000007F00
07F80000FF00
03FC0001FE00
01FC0001FC00
01FE0003FC00
00FF0007F800
007F0007F000
007F800FF000
003FC01FE000
001FC01FC000
000FE03FC000
000FF07F8000
0007F87F0000
0003F8FE0000
0003FDFE0000
0001FFFC0000
0000FFF80000
0000FFF80000
00007FF00000
00003FE00000
00003FE00000
00001FC00000
00001FC00000
00001FC00000
00001FC00000
00001FC00000
00001FC00000
00001FC00000
00001FC00000
00001FC00000
00001FC00000
00001FC00000
00001FC00000
00001FC00000
00001FC00000
00001FC00000
00001FC00000
00001FC00000
00001FC00000
00001FC00000
00001FC00000
00001FC00000
00001FC00000
00001FC00000
00001FC00000
00001FC00000
ENDCHAR
STARTCHAR Thorn
ENCODING 222
SWIDTH 604 0
DWIDTH 44 0
BBX 34 52 7 0
BITMAP
FE00000000
FE00000000
FE00000000
FE00000000
FE00000000
FE00000000
FE00000000
FE00000000
FE00000000
FFFFFC0000
FFFFFF8000
FFFFFFF000
FFFFFFF800
FFFFFFFC00
FFFFFFFE00
FE000FFF00
FE0001FF00
FE0000FF80
FE00007F80
FE00003F80
FE00003FC0
FE00001FC0
FE00001FC0
FE00001FC0
FE00001FC0
FE00001FC0
FE00001FC0
FE00001FC0
FE00003FC0
FE00003F80
FE00007F80
FE0000FF80
FE0001FF00
FE000FFF00
FFFFFFFE00
FFFFFFFC00
FFFFFFF800
FFFFFFE000
FFFFFFC000
FFFFFC0000
FE00000000
FE00000000
FE00000000
FE00000000
FE00000000
FE00000000
FE00000000
FE00000000
FE00000000
FE00000000
FE00000000
FE00000000
ENDCHAR
STARTCHAR germandbls
ENCODING 223
SWIDTH 629 0
DWIDTH 45 0
BBX 36 56 7 -1
BITMAP
001FF80000
00FFFF0000
03FFFFC000
07FFFFE000
0FFFFFF000
1FF00FF800
3FC003FC00
7F8000FC00
7F00007E00
7E00007E00
FE00003E00
FC00003F00
FC00003F00
FC0001FF00
FC0007FF00
FC001FFF00
FC003FF000
FC007F8000
FC00FE0000
FC01FC0000
FC01F80000
FC03F00000
FC03F00000
FC03F00000
FC03F00000
FC03F00000
FC03F80000
FC03FC0000
FC01FE0000
FC01FF8000
FC00FFC000
FC00FFF000
FC007FF800
FC003FFC00
FC000FFF00
FC0007FF80
FC0001FFC0
FC00007FC0
FC00001FE0
FC00000FE0
FC000007F0
FC000007F0
FC000003F0
FC000003F0
FC000003F0
FC000003F0
FC000003F0
FC000007E0
FC000007E0
FC30001FE0
FC3F007FC0
FC3FFFFF80
FC3FFFFF00
FC3FFFFE00
FC3FFFF800
0007FF8000
ENDCHAR
STARTCHAR agrave
ENCODING 224
SWIDTH 612 0
DWIDTH 44 0
BBX 33 59 4 -1
BITMAP
07F0000000
03F8000000
01FC000000
00FE000000
007E000000
003F000000
001F800000
000FC00000
0007E00000
0007E00000
0003F00000
0001F80000
0000FC0000
0000000000
0000000000
0000000000
0000000000
0000000000
003FF80000
07FFFF8000
1FFFFFE000
1FFFFFF000
1FFFFFF800
1FC00FFC00
1E0001FE00
100000FE00
0000007F00
0000003F00
0000003F00
0000001F00
0000001F80
0000001F80
0000001F80
000FFFFF80
00FFFFFF80
03FFFFFF80
0FFFFFFF80
1FFFFFFF80
3FF8001F80
3FC0001F80
7F00001F80
7E00001F80
FE00001F80
FC00001F80
FC00003F80
FC00003F80
FC00003F80
FC00007F80
FC00007F80
FE0000FF80
FE0001FF80
7F0003FF80
7F8007FF80
3FE03FDF80
1FFFFF9F80
1FFFFF1F80
07FFFE1F80
03FFF81F80
007FC00000
ENDCHAR
STARTCHAR aacute
ENCODING 225
SWIDTH 612 0
DWIDTH 44 0
BBX 33 59 4 -1
BITMAP
000003F800
000007F000
00000FE000
00001FC000
00003F8000
00003F0000
00007E0000
0000FC0000
0001F80000
0001F80000
0003F00000
0007E00000
000FC00000
0000000000
0000000000
0000000000
0000000000
0000000000
003FF80000
07FFFF8000
1FFFFFE000
1FFFFFF000
1FFFFFF800
1FC00FFC00
1E0001FE00
100000FE00
0000007F00
0000003F00
0000003F00
0000001F00
0000001F80
0000001F80
0000001F80
000FFFFF80
00FFFFFF80
03FFFFFF80
0FFFFFFF80
1FFFFFFF80
3FF8001F80
3FC0001F80
7F00001F80
7E00001F80
FE00001F80
FC00001F80
FC00003F80
FC00003F80
FC00003F80
FC00007F80
FC00007F80
FE0000FF80
FE0001FF80
7F0003FF80
7F8007FF80
3FE03FDF80
1FFFFF9F80
1FFFFF1F80
07FFFE1F80
03FFF81F80
007FC00000
ENDCHAR
STARTCHAR acircumflex
ENCODING 226
SWIDTH 612 0
DWIDTH 44 0
BBX 33 59 4 -1
BITMAP
0003F00000
0007F80000
0007F80000
000FFC0000
000FFC0000
001F3E0000
003F3F0000
003E1F0000
007C0F8000
00F807C000
00F807C000
01F003E000
03E001F000
0000000000
0000000000
0000000000
0000000000
0000000000
003FF80000
07FFFF8000
1FFFFFE000
1FFFFFF000
1FFFFFF800
1FC00FFC00
1E0001FE00
100000FE00
0000007F00
0000003F00
0000003F00
0000001F00
0000001F80
0000001F80
0000001F80
000FFFFF80
00FFFFFF80
03FFFFFF80
0FFFFFFF80
1FFFFFFF80
3FF8001F80
3FC0001F80
7F00001F80
7E00001F80
FE00001F80
FC00001F80
FC00003F80
FC00003F80
FC00003F80
FC00007F80
FC00007F80
FE0000FF80
FE0001FF80
7F0003FF80
7F8007FF80
3FE03FDF80
1FFFFF9F80
1FFFFF1F80
07FFFE1F80
03FFF81F80
007FC00000
ENDCHAR
STARTCHAR atilde
ENCODING 227
SWIDTH 612 0
DWIDTH 44 0
BBX 33 57 4 -1
BITMAP
007C00F000
00FF00F000
01FF80F000
03FFE1F000
03C7F1E000
07C3FFE000
0780FFC000
07807F8000
07801F0000
0000000000
0000000000
0000000000
0000000000
0000000000
0000000000
0000000000
003FF80000
07FFFF8000
1FFFFFE000
1FFFFFF000
1FFFFFF800
1FC00FFC00
1E0001FE00
100000FE00
0000007F00
0000003F00
0000003F00
0000001F00
0000001F80
0000001F80
0000001F80
000FFFFF80
00FFFFFF80
03FFFFFF80
0FFFFFFF80
1FFFFFFF80
3FF8001F80
3FC0001F80
7F00001F80
7E00001F80
FE00001F80
FC00001F80
FC00003F80
FC00003F80
FC00003F80
FC00007F80
FC00007F80
FE0000FF80
FE0001FF80
7F0003FF80
7F8007FF80
3FE03FDF80
1FFFFF9F80
1FFFFF1F80
07FFFE1F80
03FFF81F80
007FC00000
ENDCHAR
STARTCHAR adieresis
ENCODING 228
SWIDTH 612 0
DWIDTH 44 0
BBX 33 56 4 -1
BITMAP
01FC07F000
01FC07F000
01FC07F000
01FC07F000
01FC07F000
01FC07F000
01FC07F000
0000000000
0000000000
0000000000
0000000000
0000000000
0000000000
0000000000
0000000000
003FF80000
07FFFF8000
1FFFFFE000
1FFFFFF000
1FFFFFF800
1FC00FFC00
1E0001FE00
100000FE00
0000007F00
0000003F00
0000003F00
0000001F00
0000001F80
0000001F80
0000001F80
000FFFFF80
00FFFFFF80
03FFFFFF80
0FFFFFFF80
1FFFFFFF80
3FF8001F80
3FC0001F80
7F00001F80
7E00001F80
FE00001F80
FC00001F80
FC00003F80
FC00003F80
FC00003F80
FC00007F80
FC00007F80
FE0000FF80
FE0001FF80
7F0003FF80
7F8007FF80
3FE03FDF80
1FFFFF9F80
1FFFFF1F80
07FFFE1F80
03FFF81F80
007FC00000
ENDCHAR
STARTCHAR aring
ENCODING 229
SWIDTH 612 0
DWIDTH 44 0
BBX 33 64 4 -1
BITMAP
0007F00000
001FFC0000
003FFE0000
007FFF0000
00FC1F8000
00F80F8000
01F007C000
01E003C000
01E003C000
01E003C000
01E003C000
01E003C000
01F007C000
00F80F8000
00FC1F8000
007FFF0000
003FFE0000
001FFC0000
0007F00000
0000000000
0000000000
0000000000
0000000000
003FF80000
07FFFF8000
1FFFFFE000
1FFFFFF000
1FFFFFF800
1FC00FFC00
1E0001FE00
100000FE00
0000007F00
0000003F00
0000003F00
0000001F00
0000001F80
0000001F80
0000001F80
000FFFFF80
00FFFFFF80
03FFFFFF80
0FFFFFFF80
1FFFFFFF80
3FF8001F80
3FC0001F80
7F00001F80
7E00001F80
FE00001F80
FC00001F80
FC00003F80
FC00003F80
FC00003F80
FC00007F80
FC00007F80
FE0000FF80
FE0001FF80
7F0003FF80
7F8007FF80
3FE03FDF80
1FFFFF9F80
1FFFFF1F80
07FFFE1F80
03FFF81F80
007FC00000
ENDCHAR
STARTCHAR ae
ENCODING 230
SWIDTH 981 0
DWIDTH 71 0
BBX 63 41 4 -1
BITMAP
003FFC00007FC000
07FFFF8007FFF800
1FFFFFE01FFFFE00
1FFFFFF83FFFFF80
1FFFFFFCFFFFFFC0
1FC00FFDFFC07FE0
1E0001FFFE000FF0
100000FFFC0007F0
0000007FF80003F8
0000003FF00001F8
0000003FE00000FC
0000001FE00000FC
0000001FC00000FC
0000001FC000007E
0000001FC000007E
000FFFFF8000007E
00FFFFFF8000007E
03FFFFFFFFFFFFFE
0FFFFFFFFFFFFFFE
1FFFFFFFFFFFFFFE
3FF8001FFFFFFFFE
3FC0001FFFFFFFFE
7F00001F80000000
7E00001F80000000
FE00001F80000000
FC00001F80000000
FC00003FC0000000
FC00003FC0000000
FC00003FC0000000
FC00007FE0000000
FC00007FE0000000
FE0000FFF0000000
FE0001FFF8000008
7F0003FBFC000038
7F8007F1FF0000F8
3FE03FE1FFE00FF8
1FFFFFE07FFFFFF8
1FFFFF803FFFFFF8
07FFFF001FFFFFF0
03FFFC0003FFFF80
007FE000007FF000
ENDCHAR
STARTCHAR ccedilla
ENCODING 231
SWIDTH 549 0
DWIDTH 40 0
BBX 31 54 4 -14
BITMAP
0001FFC0
001FFFFC
007FFFFE
00FFFFFE
03FFFFFE
07FF00FE
0FFC000E
0FF00002
1FE00000
3FC00000
3F800000
7F800000
7F000000
7F000000
7F000000
FE000000
FE000000
FE000000
FE000000
FE000000
FE000000
FE000000
FE000000
FE000000
FE000000
FE000000
7F000000
7F000000
7F000000
7F800000
3F800000
3FC00000
1FE00000
0FF00002
0FFC000E
07FF00FE
03FFFFFE
01FFFFFE
007FFFFE
001FFFFC
0003FF80
00001E00
00000F00
00000F80
00000780
000007C0
000007C0
000007C0
00000FC0
00101FC0
001FFF80
001FFF80
001FFF00
000FF800
ENDCHAR
STARTCHAR egrave
ENCODING 232
SWIDTH 615 0
DWIDTH 44 0
BBX 37 59 4 -1
BITMAP
01FC000000
00FE000000
007F000000
003F800000
001F800000
000FC00000
0007E00000
0003F00000
0001F80000
0001F80000
0000FC0000
00007E0000
00003F0000
0000000000
0000000000
0000000000
0000000000
0000000000
0001FF0000
001FFFE000
007FFFF800
00FFFFFE00
03FFFFFF00
07FF01FF80
07F8003F80
0FF0001FC0
1FE0000FE0
3FC00007E0
3F800007F0
3F800003F0
7F000003F0
7F000001F0
7F000001F8
FE000001F8
FE000001F8
FFFFFFFFF8
FFFFFFFFF8
FFFFFFFFF8
FFFFFFFFF8
FFFFFFFFF8
FE00000000
FE00000000
FE00000000
FE00000000
7F00000000
7F00000000
7F00000000
7F80000000
3F80000000
3FC0000000
1FE0000020
0FF00000E0
0FFC0003E0
07FF803FE0
03FFFFFFE0
00FFFFFFE0
007FFFFFC0
000FFFFE00
0001FFC000
ENDCHAR
STARTCHAR eacute
ENCODING 233
SWIDTH 615 0
DWIDTH 44 0
BBX 37 59 4 -1
BITMAP
000000FE00
000001FC00
000003F800
000007F000
00000FE000
00000FC000
00001F8000
00003F0000
00007E0000
00007E0000
0000FC0000
0001F80000
0003F00000
0000000000
0000000000
0000000000
0000000000
0000000000
0001FF0000
001FFFE000
007FFFF800
00FFFFFE00
03FFFFFF00
07FF01FF80
07F8003F80
0FF0001FC0
1FE0000FE0
3FC00007E0
3F800007F0
3F800003F0
7F000003F0
7F000001F0
7F000001F8
FE000001F8
FE000001F8
FFFFFFFFF8
FFFFFFFFF8
FFFFFFFFF8
FFFFFFFFF8
FFFFFFFFF8
FE00000000
FE00000000
FE00000000
FE00000000
7F00000000
7F00000000
7F00000000
7F80000000
3F80000000
3FC0000000
1FE0000020
0FF00000E0
0FFC0003E0
07FF803FE0
03FFFFFFE0
00FFFFFFE0
007FFFFFC0
000FFFFE00
0001FFC000
ENDCHAR
STARTCHAR ecircumflex
ENCODING 234
SWIDTH 615 0
DWIDTH 44 0
BBX 37 59 4 -1
BITMAP
0000FC0000
0001FE0000
0001FE0000
0003FF0000
0003FF0000
0007CF8000
000FCFC000
000F87C000
001F03E000
003E01F000
003E01F000
007C00F800
00F8007C00
0000000000
0000000000
0000000000
0000000000
0000000000
0001FF0000
001FFFE000
007FFFF800
00FFFFFE00
03FFFFFF00
07FF01FF80
07F8003F80
0FF0001FC0
1FE0000FE0
3FC00007E0
3F800007F0
3F800003F0
7F000003F0
7F000001F0
7F000001F8
FE000001F8
FE000001F8
FFFFFFFFF8
FFFFFFFFF8
FFFFFFFFF8
FFFFFFFFF8
FFFFFFFFF8
FE00000000
FE00000000
FE00000000
FE00000000
7F00000000
7F00000000
7F00000000
7F80000000
3F80000000
3FC0000000
1FE0000020
0FF00000E0
0FFC0003E0
07FF803FE0
03FFFFFFE0
00FFFFFFE0
007FFFFFC0
000FFFFE00
0001FFC000
ENDCHAR
STARTCHAR edieresis
ENCODING 235
SWIDTH 615 0
DWIDTH 44 0
BBX 37 56 4 -1
BITMAP
007F01FC00
007F01FC00
007F01FC00
007F01FC00
007F01FC00
007F01FC00
007F01FC00
0000000000
0000000000
0000000000
0000000000
0000000000
0000000000
0000000000
0000000000
0001FF0000
001FFFE000
007FFFF800
00FFFFFE00
03FFFFFF00
07FF01FF80
07F8003F80
0FF0001FC0
1FE0000FE0
3FC00007E0
3F800007F0
3F800003F0
7F000003F0
7F000001F0
7F000001F8
FE000001F8
FE000001F8
FFFFFFFFF8
FFFFFFFFF8
FFFFFFFFF8
FFFFFFFFF8
FFFFFFFFF8
FE00000000
FE00000000
FE00000000
FE00000000
7F00000000
7F00000000
7F00000000
7F80000000
3F80000000
3FC0000000
1FE0000020
0FF00000E0
0FFC0003E0
07FF803FE0
03FFFFFFE0
00FFFFFFE0
007FFFFFC0
000FFFFE00
0001FFC000
ENDCHAR
STARTCHAR igrave
ENCODING 236
SWIDTH 277 0
DWIDTH 20 0
BBX 17 58 -2 0
BITMAP
FE0000
7F0000
3F8000
1FC000
0FC000
07E000
03F000
01F800
00FC00
00FC00
007E00
003F00
001F80
000000
000000
000000
000000
000000
000000
007E00
007E00
007E00
007E00
007E00
007E00
007E00
007E00
007E00
007E00
007E00
007E00
007E00
007E00
007E00
007E00
007E00
007E00
007E00
007E00
007E00
007E00
007E00
007E00
007E00
007E00
007E00
007E00
007E00
007E00
007E00
007E00
007E00
007E00
007E00
007E00
007E00
007E00
007E00
ENDCHAR
STARTCHAR iacute
ENCODING 237
SWIDTH 277 0
DWIDTH 20 0
BBX 17 58 5 0
BITMAP
003F80
007F00
00FE00
01FC00
03F800
03F000
07E000
0FC000
1F8000
1F8000
3F0000
7E0000
FC0000
000000
000000
000000
000000
000000
000000
3F0000
3F0000
3F0000
3F0000
3F0000
3F0000
3F0000
3F0000
3F0000
3F0000
3F0000
3F0000
3F0000
3F0000
3F0000
3F0000
3F0000
3F0000
3F0000
3F0000
3F0000
3F0000
3F0000
3F0000
3F0000
3F0000
3F0000
3F0000
3F0000
3F0000
3F0000
3F0000
3F0000
3F0000
3F0000
3F0000
3F0000
3F0000
3F0000
ENDCHAR
STARTCHAR icircumflex
ENCODING 238
SWIDTH 277 0
DWIDTH 20 0
BBX 22 58 -1 0
BITMAP
00FC00
01FE00
01FE00
03FF00
03FF00
07CF80
0FCFC0
0F87C0
1F03E0
3E01F0
3E01F0
7C00F8
F8007C
000000
000000
000000
000000
000000
000000
00FC00
00FC00
00FC00
00FC00
00FC00
00FC00
00FC00
00FC00
00FC00
00FC00
00FC00
00FC00
00FC00
00FC00
00FC00
00FC00
00FC00
00FC00
00FC00
00FC00
00FC00
00FC00
00FC00
00FC00
00FC00
00FC00
00FC00
00FC00
00FC00
00FC00
00FC00
00FC00
00FC00
00FC00
00FC00
00FC00
00FC00
00FC00
00FC00
ENDCHAR
STARTCHAR idieresis
ENCODING 239
SWIDTH 277 0
DWIDTH 20 0
BBX 21 55 0 0
BITMAP
FE03F8
FE03F8
FE03F8
FE03F8
FE03F8
FE03F8
FE03F8
000000
000000
000000
000000
000000
000000
000000
000000
000000
01F800
01F800
01F800
01F800
01F800
01F800
01F800
01F800
01F800
01F800
01F800
01F800
01F800
01F800
01F800
01F800
01F800
01F800
01F800
01F800
01F800
01F800
01F800
01F800
01F800
01F800
01F800
01F800
01F800
01F800
01F800
01F800
01F800
01F800
01F800
01F800
01F800
01F800
01F800
ENDCHAR
STARTCHAR eth
ENCODING 240
SWIDTH 611 0
DWIDTH 44 0
BBX 36 56 4 -1
BITMAP
00FE000000
00FF000200
007F801E00
003FC0FF00
001FE7FF00
000FFFF800
0007FFC000
000FFE0000
007FFC0000
03FFFE0000
0FFEFF0000
0FF07F8000
0F803FC000
04001FE000
00000FE000
000007F000
0007FFF800
003FFFFC00
00FFFFFE00
01FFFFFE00
03FFFFFF00
07FE01FF00
0FF8007F80
1FF0003F80
1FE0001FC0
3FC0001FC0
3F80000FE0
7F80000FE0
7F00000FE0
7F00000FE0
FF000007F0
FE000007F0
FE000007F0
FE000007F0
FE000007F0
FE000007F0
FE000007F0
FE000007F0
FE000007F0
FE000007F0
FE000007F0
7F00000FE0
7F00000FE0
7F00000FE0
7F80001FE0
3F80001FC0
3FC0003FC0
1FC0003F80
1FE0007F80
0FF801FF00
07FE07FE00
03FFFFFC00
01FFFFF800
00FFFFE000
003FFFC000
0007FC0000
ENDCHAR
STARTCHAR ntilde
ENCODING 241
SWIDTH 633 0
DWIDTH 46 0
BBX 33 56 7 0
BITMAP
00F801E000
01FE01E000
03FF01E000
07FFC3E000
078FE3C000
0F87FFC000
0F01FF8000
0F00FF0000
0F003E0000
0000000000
0000000000
0000000000
0000000000
0000000000
0000000000
0000000000
0001FE0000
FC0FFFC000
FC3FFFF000
FC7FFFF800
FCFFFFFC00
FDFC07FC00
FFF001FE00
FFC000FE00
FF80007F00
FF00003F00
FF00003F00
FE00003F80
FE00001F80
FE00001F80
FC00001F80
FC00001F80
FC00001F80
FC00001F80
FC00001F80
FC00001F80
FC00001F80
FC00001F80
FC00001F80
FC00001F80
FC00001F80
FC00001F80
FC00001F80
FC00001F80
FC00001F80
FC00001F80
FC00001F80
FC00001F80
FC00001F80
FC00001F80
FC00001F80
FC00001F80
FC00001F80
FC00001F80
FC00001F80
FC00001F80
ENDCHAR
STARTCHAR ograve
ENCODING 242
SWIDTH 611 0
DWIDTH 44 0
BBX 36 59 4 -1
BITMAP
03F8000000
01FC000000
00FE000000
007F000000
003F000000
001F800000
000FC00000
0007E00000
0003F00000
0003F00000
0001F80000
0000FC0000
00007E0000
0000000000
0000000000
0000000000
0000000000
0000000000
0007FE0000
003FFFC000
00FFFFF000
01FFFFF800
03FFFFFC00
07FE07FE00
0FF801FF00
1FE0007F80
1FC0007F80
3FC0003FC0
3F80001FC0
7F80001FE0
7F00000FE0
7F00000FE0
7F00000FE0
FE000007F0
FE000007F0
FE000007F0
FE000007F0
FE000007F0
FE000007F0
FE000007F0
FE000007F0
FE000007F0
FE000007F0
FE000007F0
7F00000FE0
7F00000FE0
7F00000FE0
7F80001FE0
3F80001FC0
3FC0003FC0
1FC0003F80
1FE0007F80
0FF801FF00
07FE07FE00
03FFFFFC00
01FFFFF800
00FFFFF000
003FFFC000
0007FE0000
ENDCHAR
STARTCHAR oacute
ENCODING 243
SWIDTH 611 0
DWIDTH 44 0
BBX 36 59 4 -1
BITMAP
000001FC00
000003F800
000007F000
00000FE000
00001FC000
00001F8000
00003F0000
00007E0000
0000FC0000
0000FC0000
0001F80000
0003F00000
0007E00000
0000000000
0000000000
0000000000
0000000000
0000000000
0007FE0000
003FFFC000
00FFFFF000
01FFFFF800
03FFFFFC00
07FE07FE00
0FF801FF00
1FE0007F80
1FC0007F80
3FC0003FC0
3F80001FC0
7F80001FE0
7F00000FE0
7F00000FE0
7F00000FE0
FE000007F0
FE000007F0
FE000007F0
FE000007F0
FE000007F0
FE000007F0
FE000007F0
FE000007F0
FE000007F0
FE000007F0
FE000007F0
7F00000FE0
7F00000FE0
7F00000FE0
7F80001FE0
3F80001FC0
3FC0003FC0
1FC0003F80
1FE0007F80
0FF801FF00
07FE07FE00
03FFFFFC00
01FFFFF800
00FFFFF000
003FFFC000
0007FE0000
ENDCHAR
STARTCHAR ocircumflex
ENCODING 244
SWIDTH 611 0
DWIDTH 44 0
BBX 36 59 4 -1
BITMAP
0001F80000
0003FC0000
0003FC0000
0007FE0000
0007FE0000
000F9F0000
001F9F8000
001F0F8000
003E07C000
007C03E000
007C03E000
00F801F000
01F000F800
0000000000
0000000000
0000000000
0000000000
0000000000
0007FE0000
003FFFC000
00FFFFF000
01FFFFF800
03FFFFFC00
07FE07FE00
0FF801FF00
1FE0007F80
1FC0007F80
3FC0003FC0
3F80001FC0
7F80001FE0
7F00000FE0
7F00000FE0
7F00000FE0
FE000007F0
FE000007F0
FE000007F0
FE000007F0
FE000007F0
FE000007F0
FE000007F0
FE000007F0
FE000007F0
FE000007F0
FE000007F0
7F00000FE0
7F00000FE0
7F00000FE0
7F80001FE0
3F80001FC0
3FC0003FC0
1FC0003F80
1FE0007F80
0FF801FF00
07FE07FE00
03FFFFFC00
01FFFFF800
00FFFFF000
003FFFC000
0007FE0000
ENDCHAR
STARTCHAR otilde
ENCODING 245
SWIDTH 611 0
DWIDTH 44 0
BBX 36 57 4 -1
BITMAP
003E007800
007F807800
00FFC07800
01FFF0F800
01E3F8F000
03E1FFF000
03C07FE000
03C03FC000
03C00F8000
0000000000
0000000000
0000000000
0000000000
0000000000
0000000000
0000000000
0007FE0000
003FFFC000
00FFFFF000
01FFFFF800
03FFFFFC00
07FE07FE00
0FF801FF00
1FE0007F80
1FC0007F80
3FC0003FC0
3F80001FC0
7F80001FE0
7F00000FE0
7F00000FE0
7F00000FE0
FE000007F0
FE000007F0
FE000007F0
FE000007F0
FE000007F0
FE000007F0
FE000007F0
FE000007F0
FE000007F0
FE000007F0
FE000007F0
7F00000FE0
7F00000FE0
7F00000FE0
7F80001FE0
3F80001FC0
3FC0003FC0
1FC0003F80
1FE0007F80
0FF801FF00
07FE07FE00
03FFFFFC00
01FFFFF800
00FFFFF000
003FFFC000
0007FE0000
ENDCHAR
STARTCHAR odieresis
ENCODING 246
SWIDTH 611 0
DWIDTH 44 0
BBX 36 56 4 -1
BITMAP
00FE03F800
00FE03F800
00FE03F800
00FE03F800
00FE03F800
00FE03F800
00FE03F800
0000000000
0000000000
0000000000
0000000000
0000000000
0000000000
0000000000
0000000000
0007FE0000
003FFFC000
00FFFFF000
01FFFFF800
03FFFFFC00
07FE07FE00
0FF801FF00
1FE0007F80
1FC0007F80
3FC0003FC0
3F80001FC0
7F80001FE0
7F00000FE0
7F00000FE0
7F00000FE0
FE000007F0
FE000007F0
FE000007F0
FE000007F0
FE000007F0
FE000007F0
FE000007F0
FE000007F0
FE000007F0
FE000007F0
FE000007F0
7F00000FE0
7F00000FE0
7F00000FE0
7F80001FE0
3F80001FC0
3FC0003FC0
1FC0003F80
1FE0007F80
0FF801FF00
07FE07FE00
03FFFFFC00
01FFFFF800
00FFFFF000
003FFFC000
0007FE0000
ENDCHAR
STARTCHAR divide
ENCODING 247
SWIDTH 837 0
DWIDTH 60 0
BBX 45 36 8 5
BITMAP
00003FE00000
00003FE00000
00003FE00000
00003FE00000
00003FE00000
00003FE00000
00003FE00000
00003FE00000
00003FE00000
000000000000
000000000000
000000000000
000000000000
000000000000
000000000000
FFFFFFFFFFF8
FFFFFFFFFFF8
FFFFFFFFFFF8
FFFFFFFFFFF8
FFFFFFFFFFF8
FFFFFFFFFFF8
000000000000
000000000000
000000000000
000000000000
000000000000
000000000000
00003FE00000
00003FE00000
00003FE00000
00003FE00000
00003FE00000
00003FE00000
00003FE00000
00003FE00000
00003FE00000
ENDCHAR
STARTCHAR oslash
ENCODING 248
SWIDTH 611 0
DWIDTH 44 0
BBX 38 45 3 -3
BITMAP
0000000030
0000000078
0003FF00FC
001FFFE0F8
007FFFF9F8
00FFFFFFF0
01FFFFFFE0
03FF03FFC0
07FC00FF80
0FF0003FC0
0FE0003FC0
1FE0007FE0
1FC000FFE0
3FC001FFF0
3F8001F7F0
3F8003E7F0
3F8007C7F0
7F000FC3F8
7F001F83F8
7F001F03F8
7F003E03F8
7F007E03F8
7F00FC03F8
7F01F803F8
7F01F003F8
7F03E003F8
7F07E003F8
7F0FC003F8
3F1F8007F0
3F9F0007F0
3FBE0007F0
3FFE000FF0
1FFC000FE0
1FF8001FE0
0FF0001FC0
0FF0003FC0
07FC00FF80
0FFF03FF00
1FFFFFFE00
3FFFFFFC00
7E7FFFF800
FC1FFFE000
F803FF0000
7800000000
3000000000
ENDCHAR
STARTCHAR ugrave
ENCODING 249
SWIDTH 633 0
DWIDTH 46 0
BBX 33 59 7 -1
BITMAP
1FC0000000
0FE0000000
07F0000000
03F8000000
01F8000000
00FC000000
007E000000
003F000000
001F800000
001F800000
000FC00000
0007E00000
0003F00000
0000000000
0000000000
0000000000
0000000000
0000000000
0000000000
FC00001F80
FC00001F80
FC00001F80
FC00001F80
FC00001F80
FC00001F80
FC00001F80
FC00001F80
FC00001F80
FC00001F80
FC00001F80
FC00001F80
FC00001F80
FC00001F80
FC00001F80
FC00001F80
FC00001F80
FC00001F80
FC00001F80
FC00001F80
FC00001F80
FC00001F80
FC00001F80
FC00001F80
FC00001F80
FC00001F80
FC00003F80
FC00003F80
FE00003F80
7E00007F80
7E00007F80
7F0000FF80
3F8001FF80
3FC007FF80
1FF01FDF80
1FFFFF9F80
0FFFFF1F80
07FFFE1F80
01FFF81F80
003FC00000
ENDCHAR
STARTCHAR uacute
ENCODING 250
SWIDTH 633 0
DWIDTH 46 0
BBX 33 59 7 -1
BITMAP
00000FE000
00001FC000
00003F8000
00007F0000
0000FE0000
0000FC0000
0001F80000
0003F00000
0007E00000
0007E00000
000FC00000
001F800000
003F000000
0000000000
0000000000
0000000000
0000000000
0000000000
0000000000
FC00001F80
FC00001F80
FC00001F80
FC00001F80
FC00001F80
FC00001F80
FC00001F80
FC00001F80
FC00001F80
FC00001F80
FC00001F80
FC00001F80
FC00001F80
FC00001F80
FC00001F80
FC00001F80
FC00001F80
FC00001F80
FC00001F80
FC00001F80
FC00001F80
FC00001F80
FC00001F80
FC00001F80
FC00001F80
FC00001F80
FC00003F80
FC00003F80
FE00003F80
7E00007F80
7E00007F80
7F0000FF80
3F8001FF80
3FC007FF80
1FF01FDF80
1FFFFF9F80
0FFFFF1F80
07FFFE1F80
01FFF81F80
003FC00000
ENDCHAR
STARTCHAR ucircumflex
ENCODING 251
SWIDTH 633 0
DWIDTH 46 0
BBX 33 59 7 -1
BITMAP
000FC00000
001FE00000
001FE00000
003FF00000
003FF00000
007CF80000
00FCFC0000
00F87C0000
01F03E0000
03E01F0000
03E01F0000
07C00F8000
0F8007C000
0000000000
0000000000
0000000000
0000000000
0000000000
0000000000
FC00001F80
FC00001F80
FC00001F80
FC00001F80
FC00001F80
FC00001F80
FC00001F80
FC00001F80
FC00001F80
FC00001F80
FC00001F80
FC00001F80
FC00001F80
FC00001F80
FC00001F80
FC00001F80
FC00001F80
FC00001F80
FC00001F80
FC00001F80
FC00001F80
FC00001F80
FC00001F80
FC00001F80
FC00001F80
FC00001F80
FC00003F80
FC00003F80
FE00003F80
7E00007F80
7E00007F80
7F0000FF80
3F8001FF80
3FC007FF80
1FF01FDF80
1FFFFF9F80
0FFFFF1F80
07FFFE1F80
01FFF81F80
003FC00000
ENDCHAR
STARTCHAR udieresis
ENCODING 252
SWIDTH 633 0
DWIDTH 46 0
BBX 33 56 7 -1
BITMAP
07F01FC000
07F01FC000
07F01FC000
07F01FC000
07F01FC000
07F01FC000
07F01FC000
0000000000
0000000000
0000000000
0000000000
0000000000
0000000000
0000000000
0000000000
0000000000
FC00001F80
FC00001F80
FC00001F80
FC00001F80
FC00001F80
FC00001F80
FC00001F80
FC00001F80
FC00001F80
FC00001F80
FC00001F80
FC00001F80
FC00001F80
FC00001F80
FC00001F80
FC00001F80
FC00001F80
FC00001F80
FC00001F80
FC00001F80
FC00001F80
FC00001F80
FC00001F80
FC00001F80
FC00001F80
FC00001F80
FC00003F80
FC00003F80
FE00003F80
7E00007F80
7E00007F80
7F0000FF80
3F8001FF80
3FC007FF80
1FF01FDF80
1FFFFF9F80
0FFFFF1F80
07FFFE1F80
01FFF81F80
003FC00000
ENDCHAR
STARTCHAR yacute
ENCODING 253
SWIDTH 591 0
DWIDTH 43 0
BBX 38 73 2 -15
BITMAP
000000FE00
000001FC00
000003F800
000007F000
00000FE000
00000FC000
00001F8000
00003F0000
00007E0000
00007E0000
0000FC0000
0001F80000
0003F00000
0000000000
0000000000
0000000000
0000000000
0000000000
0000000000
FE000001FC
7F000001F8
7F000003F8
7F800003F8
3F800003F0
3F800007F0
1FC00007E0
1FC0000FE0
0FE0000FE0
0FE0000FC0
0FE0001FC0
07F0001F80
07F0003F80
03F8003F80
03F8003F00
03F8007F00
01FC007F00
01FC00FE00
00FE00FE00
00FE00FC00
007E01FC00
007F01FC00
007F03F800
003F83F800
003F83F000
001F87F000
001FC7F000
001FCFE000
000FCFE000
000FEFC000
0007FFC000
0007FFC000
0003FF8000
0003FF8000
0003FF0000
0001FF0000
0001FF0000
0000FE0000
0000FE0000
0000FE0000
0001FC0000
0001FC0000
0001F80000
0003F80000
0003F80000
0007F00000
0007F00000
000FE00000
003FE00000
0FFFC00000
0FFF800000
0FFF000000
0FFE000000
0FF8000000
ENDCHAR
STARTCHAR thorn
ENCODING 254
SWIDTH 634 0
DWIDTH 46 0
BBX 35 70 7 -15
BITMAP
FC00000000
FC00000000
FC00000000
FC00000000
FC00000000
FC00000000
FC00000000
FC00000000
FC00000000
FC00000000
FC00000000
FC00000000
FC00000000
FC00000000
FC00000000
FC03FE0000
FC0FFF8000
FC3FFFE000
FC7FFFF000
FCFFFFF800
FDFC0FFC00
FFF003FE00
FFC000FF00
FF80007F00
FF80007F80
FF00003F80
FF00003FC0
FE00001FC0
FE00001FC0
FE00001FC0
FC00000FE0
FC00000FE0
FC00000FE0
FC00000FE0
FC00000FE0
FC00000FE0
FC00000FE0
FC00000FE0
FC00000FE0
FC00000FE0
FC00000FE0
FE00001FC0
FE00001FC0
FE00001FC0
FF00003FC0
FF00003F80
FF80007F80
FF80007F00
FFC000FF00
FFF003FE00
FDFC0FFC00
FCFFFFFC00
FC7FFFF000
FC3FFFE000
FC0FFF8000
FC03FE0000
FC00000000
FC00000000
FC00000000
FC00000000
FC00000000
FC00000000
FC00000000
FC00000000
FC00000000
FC00000000
FC00000000
FC00000000
FC00000000
FC00000000
ENDCHAR
STARTCHAR ydieresis
ENCODING 255
SWIDTH 591 0
DWIDTH 43 0
BBX 38 70 2 -15
BITMAP
007F01FC00
007F01FC00
007F01FC00
007F01FC00
007F01FC00
007F01FC00
007F01FC00
0000000000
0000000000
0000000000
0000000000
0000000000
0000000000
0000000000
0000000000
0000000000
FE000001FC
7F000001F8
7F000003F8
7F800003F8
3F800003F0
3F800007F0
1FC00007E0
1FC0000FE0
0FE0000FE0
0FE0000FC0
0FE0001FC0
07F0001F80
07F0003F80
03F8003F80
03F8003F00
03F8007F00
01FC007F00
01FC00FE00
00FE00FE00
00FE00FC00
007E01FC00
007F01FC00
007F03F800
003F83F800
003F83F000
001F87F000
001FC7F000
001FCFE000
000FCFE000
000FEFC000
0007FFC000
0007FFC000
0003FF8000
0003FF8000
0003FF0000
0001FF0000
0001FF0000
0000FE0000
0000FE0000
0000FE0000
0001FC0000
0001FC0000
0001F80000
0003F80000
0003F80000
0007F00000
0007F00000
000FE00000
003FE00000
0FFFC00000
0FFF800000
0FFF000000
0FFE000000
0FF8000000
ENDCHAR
STARTCHAR .notdef
ENCODING -1
SWIDTH 600 0
DWIDTH 43 0
BBX 36 64 4 -13
BITMAP
FFFFFFFFF0
FFFFFFFFF0
FFFFFFFFF0
FFFFFFFFF0
F0000000F0
F0000000F0
F0000000F0
F0000000F0
F0000000F0
F0000000F0
F0000000F0
F0000000F0
F0000000F0
F0000000F0
F0000000F0
F0000000F0
F0000000F0
F0000000F0
F0000000F0
F0000000F0
F0000000F0
F0000000F0
F0000000F0
F0000000F0
F0000000F0
F0000000F0
F0000000F0
F0000000F0
F0000000F0
F0000000F0
F0000000F0
F0000000F0
F0000000F0
F0000000F0
F0000000F0
F0000000F0
F0000000F0
F0000000F0
F0000000F0
F0000000F0
F0000000F0
F0000000F0
F0000000F0
F0000000F0
F0000000F0
F0000000F0
F0000000F0
F0000000F0
F0000000F0
F0000000F0
F0000000F0
F0000000F0
F0000000F0
F0000000F0
F0000000F0
F0000000F0
F0000000F0
F0000000F0
F0000000F0
F0000000F0
FFFFFFFFF0
FFFFFFFFF0
FFFFFFFFF0
FFFFFFFFF0
ENDCHAR
STARTCHAR .null
ENCODING -1
SWIDTH 0 0
DWIDTH 0 0
BBX 1 1 0 0
BITMAP
00
ENDCHAR
STARTCHAR nonmarkingreturn
ENCODING -1
SWIDTH 317 0
DWIDTH 23 0
BBX 1 1 0 0
BITMAP
00
ENDCHAR
STARTCHAR dagger
ENCODING -1
SWIDTH 500 0
DWIDTH 36 0
BBX 32 59 2 -7
BITMAP
0007E000
0007E000
0007E000
0007E000
0007E000
0007E000
0007E000
0007E000
0007E000
0007E000
0007E000
0007E000
0007E000
0007E000
0007E000
FFFFFFFF
FFFFFFFF
FFFFFFFF
FFFFFFFF
FFFFFFFF
0007E000
0007E000
0007E000
0007E000
0007E000
0007E000
0007E000
0007E000
0007E000
0007E000
0007E000
0007E000
0007E000
0007E000
0007E000
0007E000
0007E000
0007E000
0007E000
0007E000
0007E000
0007E000
0007E000
0007E000
0007E000
0007E000
0007E000
0007E000
0007E000
0007E000
0007E000
0007E000
0007E000
0007E000
0007E000
0007E000
0007E000
0007E000
0007E000
ENDCHAR
STARTCHAR bullet
ENCODING -1
SWIDTH 589 0
DWIDTH 42 0
BBX 21 21 11 16
BITMAP
01FC00
07FF00
0FFF80
1FFFC0
3FFFE0
7FFFF0
7FFFF0
FFFFF8
FFFFF8
FFFFF8
FFFFF8
FFFFF8
FFFFF8
FFFFF8
7FFFF0
7FFFF0
3FFFE0
1FFFC0
0FFF80
07FF00
01FC00
ENDCHAR
STARTCHAR trademark
ENCODING -1
SWIDTH 1000 0
DWIDTH 72 0
BBX 46 20 10 32
BITMAP
FFFFC3F000FC
FFFFC3F801FC
FFFFC3FC03FC
FFFFC3FC03FC
01E003FE07FC
01E003DF07BC
01E003CF0F3C
01E003CF9F3C
01E003C7DE3C
01E003C3FC3C
01E003C1FC3C
01E003C1F83C
01E003C0F03C
01E003C0603C
01E003C0003C
01E003C0003C
01E003C0003C
01E003C0003C
01E003C0003C
01E003C0003C
ENDCHAR
STARTCHAR notequal
ENCODING -1
SWIDTH 837 0
DWIDTH 60 0
BBX 45 42 8 1
BITMAP
000000000800
000000001C00
000000003E00
000000007F00
00000000FF00
00000000FE00
00000001FC00
00000003F800
00000007F000
0000000FF000
0000001FE000
FFFFFFFFFFF8
FFFFFFFFFFF8
FFFFFFFFFFF8
FFFFFFFFFFF8
FFFFFFFFFFF8
FFFFFFFFFFF8
000003F80000
000007F00000
00000FE00000
00001FE00000
00003FC00000
00007F800000
00007F000000
0000FE000000
FFFFFFFFFFF8
FFFFFFFFFFF8
FFFFFFFFFFF8
FFFFFFFFFFF8
FFFFFFFFFFF8
FFFFFFFFFFF8
003F80000000
007F80000000
00FF00000000
00FE00000000
01FC00000000
03F800000000
07F800000000
0FF000000000
03E000000000
01C000000000
008000000000
ENDCHAR
STARTCHAR infinity
ENCODING -1
SWIDTH 833 0
DWIDTH 60 0
BBX 45 27 8 8
BITMAP
01FC0003F800
07FF000FFE00
0FFF801FFF00
1FFFC03FFF80
3FFFE07FFFC0
3FFFF0FFDFE0
7F03F0FE03E0
7C00F9FC00F0
78003DF80070
F0001FF00078
F0001FE00038
E0000FE00038
E0000FC00038
E0000FC00038
E0001F800038
E0001F800038
E0003F800078
F0007FC00078
70007FE000F0
7800FCF000F0
7C01F8F803F0
3F07F87F9FE0
1FFFF03FFFE0
0FFFE01FFFC0
07FFC00FFF80
03FF8007FE00
00FC0000F800
ENDCHAR
STARTCHAR lessequal
ENCODING -1
SWIDTH 837 0
DWIDTH 60 0
BBX 45 42 8 0
BITMAP
000000000018
0000000000F8
000000000FF8
000000007FF8
00000007FFF8
0000003FFFF8
000003FFFFF0
00001FFFFF80
0000FFFFF800
000FFFFFC000
007FFFFC0000
07FFFFE00000
3FFFFE000000
FFFFF0000000
FFFF80000000
FFF800000000
FFF800000000
FFFF80000000
FFFFF0000000
3FFFFE000000
07FFFFE00000
007FFFFC0000
000FFFFFC000
0000FFFFF800
00001FFFFF80
000003FFFFF0
0000003FFFF8
00000007FFF8
000000007FF8
000000000FF8
0000000000F8
000000000018
000000000000
000000000000
000000000000
000000000000
FFFFFFFFFFF8
FFFFFFFFFFF8
FFFFFFFFFFF8
FFFFFFFFFFF8
FFFFFFFFFFF8
FFFFFFFFFFF8
ENDCHAR
STARTCHAR greaterequal
ENCODING -1
SWIDTH 837 0
DWIDTH 60 0
BBX 45 42 8 0
BITMAP
C00000000000
F80000000000
FF8000000000
FFF000000000
FFFF00000000
FFFFE0000000
7FFFFE000000
0FFFFFC00000
00FFFFFC0000
001FFFFF8000
0001FFFFF000
00003FFFFF00
000003FFFFE0
0000007FFFF8
00000007FFF8
00000000FFF8
00000000FFF8
00000007FFF8
0000007FFFF8
000003FFFFE0
00003FFFFF00
0001FFFFF000
001FFFFF8000
00FFFFF80000
0FFFFFC00000
7FFFFC000000
FFFFE0000000
FFFF00000000
FFF000000000
FF8000000000
F80000000000
C00000000000
000000000000
000000000000
000000000000
000000000000
FFFFFFFFFFF8
FFFFFFFFFFF8
FFFFFFFFFFF8
FFFFFFFFFFF8
FFFFFFFFFFF8
FFFFFFFFFFF8
ENDCHAR
STARTCHAR partialdiff
ENCODING -1
SWIDTH 517 0
DWIDTH 37 0
BBX 30 48 4 -1
BITMAP
0007F000
001FFC00
003FFF00
007FFF80
00FF87C0
00FE03C0
00FC01E0
007801E0
000001F0
000001F0
000000F8
000000F8
000000F8
000000F8
000000FC
000000FC
000000FC
000000FC
000000FC
003F80FC
01FFE1FC
03FFF1FC
07F839FC
0FF01DFC
1FE00DFC
3FC00FFC
3F8007FC
7F8007F8
7F0007F8
7F0007F8
FF0007F8
FF0007F8
FE0007F0
FE0007F0
FE0007F0
FE0007E0
FE000FE0
FE000FC0
FE000FC0
7E000F80
7E001F80
3E001F00
3F003E00
1F007C00
0F80F800
07C1F000
03FFC000
007F0000
ENDCHAR
STARTCHAR summation
ENCODING -1
SWIDTH 673 0
DWIDTH 49 0
BBX 46 66 1 -14
BITMAP
7FFFFFFFFFF8
7FFFFFFFFFF8
7FFFFFFFFFF8
7FFFFFFFFFF8
7FFFFFFFFFF8
7FFFFFFFFFF8
7FFFFFFFFFF8
3FF000000000
1FF800000000
0FFC00000000
07FE00000000
03FF00000000
01FF80000000
00FFC0000000
007FE0000000
003FE0000000
001FF0000000
001FF8000000
000FFC000000
0007FE000000
0003FF000000
0001FF800000
0000FFC00000
00007FE00000
00003FF00000
00001FF80000
00000FFC0000
000007FE0000
000003FF0000
000001FF8000
000000FF8000
0000007FC000
0000007FE000
000000FFC000
000001FF8000
000001FF0000
000003FE0000
000007FC0000
00000FF80000
00001FF00000
00003FF00000
00007FE00000
0000FFC00000
0001FF800000
0001FF000000
0003FE000000
0007FC000000
000FF8000000
001FF0000000
003FE0000000
007FC0000000
00FFC0000000
01FF80000000
03FF00000000
03FE00000000
07FC00000000
0FF800000000
1FF000000000
3FE000000000
7FFFFFFFFFFC
FFFFFFFFFFFC
FFFFFFFFFFFC
FFFFFFFFFFFC
FFFFFFFFFFFC
FFFFFFFFFFFC
FFFFFFFFFFFC
ENDCHAR
STARTCHAR product
ENCODING -1
SWIDTH 756 0
DWIDTH 55 0
BBX 43 66 5 -14
BITMAP
FFFFFFFFFFE0
FFFFFFFFFFE0
FFFFFFFFFFE0
FFFFFFFFFFE0
FFFFFFFFFFE0
FFFFFFFFFFE0
FFFFFFFFFFE0
FF0000001FE0
FF0000001FE0
FF0000001FE0
FF0000001FE0
FF0000001FE0
FF0000001FE0
FF0000001FE0
FF0000001FE0
FF0000001FE0
FF0000001FE0
FF0000001FE0
FF0000001FE0
FF0000001FE0
FF0000001FE0
FF0000001FE0
FF0000001FE0
FF0000001FE0
FF0000001FE0
FF0000001FE0
FF0000001FE0
FF0000001FE0
FF0000001FE0
FF0000001FE0
FF0000001FE0
FF0000001FE0
FF0000001FE0
FF0000001FE0
FF0000001FE0
FF0000001FE0
FF0000001FE0
FF0000001FE0
FF0000001FE0
FF0000001FE0
FF0000001FE0
FF0000001FE0
FF0000001FE0
FF0000001FE0
FF0000001FE0
FF0000001FE0
FF0000001FE0
FF0000001FE0
FF0000001FE0
FF0000001FE0
FF0000001FE0
FF0000001FE0
FF0000001FE0
FF0000001FE0
FF0000001FE0
FF0000001FE0
FF0000001FE0
FF0000001FE0
FF0000001FE0
FF0000001FE0
FF0000001FE0
FF0000001FE0
FF0000001FE0
FF0000001FE0
FF0000001FE0
FF0000001FE0
ENDCHAR
STARTCHAR pi
ENCODING -1
SWIDTH 588 0
DWIDTH 42 0
BBX 43 39 -1 -1
BITMAP
01FFFFFFFFE0
0FFFFFFFFFE0
1FFFFFFFFFC0
3FFFFFFFFFC0
3FFFFFFFFFC0
7F1F8007F000
7E1F8007E000
7C1F8007E000
FC3F800FE000
FC3F000FE000
003F000FE000
003F000FC000
003F000FC000
007F001FC000
007E001FC000
007E001FC000
007E001F8000
007E003F8000
00FE003F8000
00FC003F8000
00FC003F8000
00FC003F0000
00FC007F0000
01FC007F0000
01F8007F0000
01F8007F0000
01F8007E0000
01F800FE0000
03F800FE0000
03F000FE0000
03F000FE0000
03F000FE0000
03F000FE0000
07F000FF0000
07E000FFFC00
07E0007FF800
07E0003FF800
0FE0001FF800
00000007F000
ENDCHAR
STARTCHAR integral
ENCODING -1
SWIDTH 520 0
DWIDTH 38 0
BBX 35 67 1 -12
BITMAP
0000007E00
000001FF80
000007FFC0
00000FFFE0
00000FBFE0
00001F3FE0
00003E1FE0
00003E1FE0
00007E1FC0
00007E0F80
00007C0000
0000FC0000
0000FC0000
0000FC0000
0000FC0000
0000FC0000
0001FC0000
0001FC0000
0001FC0000
0001FC0000
0001F80000
0001F80000
0001F80000
0003F80000
0003F80000
0003F80000
0003F80000
0003F80000
0003F80000
0003F80000
0003F80000
0003F80000
0003F80000
0003F80000
0003F80000
0003F80000
0003F80000
0003F80000
0003F80000
0003F80000
0003F80000
0003F80000
0003F80000
0003F80000
0003F00000
0003F00000
0003F00000
0003F00000
0007F00000
0007F00000
0007F00000
0007E00000
0007E00000
0007E00000
0007E00000
0007E00000
0007C00000
3E0FC00000
7F0FC00000
FF0F800000
FF8F800000
FF9F000000
FF9E000000
FFFE000000
7FFC000000
3FF0000000
0FC0000000
ENDCHAR
STARTCHAR Omega
ENCODING -1
SWIDTH 764 0
DWIDTH 55 0
BBX 50 53 2 0
BITMAP
00000FFC000000
0000FFFFC00000
0003FFFFF00000
000FFFFFFC0000
003FFFFFFF0000
007FFFFFFF8000
00FFF807FFC000
01FFC000FFE000
03FF00003FF000
03FC00000FF000
07F8000007F800
0FF0000003FC00
0FF0000003FC00
1FE0000001FE00
1FC0000000FE00
3FC0000000FF00
3F800000007F00
3F800000007F00
3F800000007F00
7F800000007F80
7F000000003F80
7F000000003F80
7F000000003F80
7F000000003F80
7F000000003F80
7F000000003F80
7F000000003F80
7F000000003F80
7F000000003F80
7F000000003F80
7F800000007F80
3F800000007F00
3F800000007F00
3FC0000000FF00
1FC0000000FE00
1FC0000000FE00
1FE0000001FE00
0FF0000003FC00
0FF0000003FC00
07F8000007F800
03FC00000FF000
03FE00001FF000
01FF00003FE000
00FF80007FC000
007FC000FF8000
003FE001FF0000
001FF807FE0000
FFFFFC0FFFFFC0
FFFFFC0FFFFFC0
FFFFFC0FFFFFC0
FFFFFC0FFFFFC0
FFFFFC0FFFFFC0
FFFFFC0FFFFFC0
ENDCHAR
STARTCHAR radical
ENCODING -1
SWIDTH 637 0
DWIDTH 46 0
BBX 44 60 2 -2
BITMAP
0000000007F0
0000000007F0
000000000FF0
000000000F00
000000000E00
000000001E00
000000001E00
000000003C00
000000003C00
000000003C00
000000007800
000000007800
000000007000
00000000F000
00000000F000
00000001E000
00000001E000
00000001E000
00000003C000
00000003C000
000000038000
000000078000
000000078000
0000000F0000
00C0000F0000
07E0000F0000
3FE0001E0000
FFE0001E0000
FFF0001E0000
43F0003C0000
03F0003C0000
03F800780000
01F800780000
01FC00780000
01FC00F00000
00FC00F00000
00FE00F00000
007E01E00000
007E01E00000
007F03C00000
003F03C00000
003F03C00000
003F87800000
001F87800000
001FC7800000
001FCF000000
000FCF000000
000FFF000000
000FFE000000
0007FE000000
0007FC000000
0003FC000000
0003FC000000
0003F8000000
0001F8000000
0001F8000000
0001F0000000
0000F0000000
0000E0000000
0000E0000000
ENDCHAR
STARTCHAR florin
ENCODING -1
SWIDTH 636 0
DWIDTH 46 0
BBX 44 70 1 -15
BITMAP
000000007FC0
00000001FFF0
00000007FFF0
0000000FFFF0
0000001FFFF0
0000003FE070
0000003FC010
0000007F8000
0000007F0000
000000FE0000
000000FE0000
000000FE0000
000000FC0000
000001FC0000
000001FC0000
000001FC0000
000001FC0000
000001F80000
000003F80000
000003F80000
000003F80000
000003F80000
000003F00000
000003F00000
000007F00000
001FFFFFFC00
001FFFFFFC00
001FFFFFFC00
001FFFFFFC00
001FFFFFFC00
00000FE00000
00000FE00000
00000FC00000
00001FC00000
00001FC00000
00001FC00000
00001FC00000
00001F800000
00003F800000
00003F800000
00003F800000
00003F800000
00003F000000
00007F000000
00007F000000
00007F000000
00007F000000
00007E000000
0000FE000000
0000FE000000
0000FE000000
0000FE000000
0000FC000000
0001FC000000
0001FC000000
0001FC000000
0001F8000000
0003F8000000
0003F8000000
0003F8000000
0007F0000000
0007F0000000
800FE0000000
C01FE0000000
F03FC0000000
FFFFC0000000
FFFF80000000
FFFF00000000
7FFC00000000
1FE000000000
ENDCHAR
STARTCHAR approxequal
ENCODING -1
SWIDTH 837 0
DWIDTH 60 0
BBX 45 25 8 10
BITMAP
007F80000018
03FFF8000038
0FFFFE0000F8
1FFFFFC001F8
7FFFFFF80FF8
FFFFFFFFFFF8
FF80FFFFFFF0
FC001FFFFFC0
F00003FFFF80
E00000FFFE00
C000000FF000
000000000000
000000000000
000000000000
007F80000018
03FFF8000038
0FFFFE0000F8
1FFFFFC001F8
7FFFFFF80FF8
FFFFFFFFFFF8
FF80FFFFFFF0
FC001FFFFFC0
F00003FFFF80
E00000FFFE00
8000000FF000
ENDCHAR
STARTCHAR Delta
ENCODING -1
SWIDTH 668 0
DWIDTH 48 0
BBX 49 52 0 0
BITMAP
00000FF8000000
00000FF8000000
00001FF8000000
00001FFC000000
00001FFC000000
00003FFE000000
00003FFE000000
00007FFE000000
00007F7F000000
00007F7F000000
0000FE3F800000
0000FE3F800000
0001FC3F800000
0001FC1FC00000
0001FC1FC00000
0003F81FE00000
0003F80FE00000
0003F80FE00000
0007F007F00000
0007F007F00000
000FE007F80000
000FE003F80000
000FE003F80000
001FC001FC0000
001FC001FC0000
003F8001FC0000
003F8000FE0000
003F8000FE0000
007F0000FF0000
007F00007F0000
00FE00007F0000
00FE00003F8000
00FE00003F8000
01FC00003FC000
01FC00001FC000
03FC00001FC000
03F800000FE000
03F800000FE000
07F000000FF000
07F0000007F000
07F0000007F000
0FE0000003F800
0FE0000003F800
1FC0000003FC00
1FC0000001FC00
1FC0000001FC00
3FFFFFFFFFFE00
3FFFFFFFFFFE00
7FFFFFFFFFFF00
7FFFFFFFFFFF00
7FFFFFFFFFFF00
FFFFFFFFFFFF80
ENDCHAR
STARTCHAR ellipsis
ENCODING -1
SWIDTH 1000 0
DWIDTH 72 0
BBX 55 9 8 0
BITMAP
FE0000FE0000FE
FE0000FE0000FE
FE0000FE0000FE
FE0000FE0000FE
FE0000FE0000FE
FE0000FE0000FE
FE0000FE0000FE
FE0000FE0000FE
FE0000FE0000FE
ENDCHAR
STARTCHAR OE
ENCODING -1
SWIDTH 1069 0
DWIDTH 77 0
BBX 68 52 4 0
BITMAP
000001FFFFFFFFFFE0
00003FFFFFFFFFFFE0
0001FFFFFFFFFFFFE0
000FFFFFFFFFFFFFE0
001FFFFFFFFFFFFFE0
007FFFFFFFFFFFFFE0
00FFFE003F80000000
01FFE0003F80000000
03FF00003F80000000
07FE00003F80000000
0FF800003F80000000
0FF000003F80000000
1FE000003F80000000
3FC000003F80000000
3FC000003F80000000
3F8000003F80000000
7F8000003F80000000
7F0000003F80000000
7F0000003F80000000
7F0000003F80000000
FE0000003F80000000
FE0000003FFFFFFFC0
FE0000003FFFFFFFC0
FE0000003FFFFFFFC0
FE0000003FFFFFFFC0
FE0000003FFFFFFFC0
FE0000003FFFFFFFC0
FE0000003F80000000
FE0000003F80000000
FE0000003F80000000
FE0000003F80000000
FE0000003F80000000
7F0000003F80000000
7F0000003F80000000
7F0000003F80000000
7F8000003F80000000
3F8000003F80000000
3FC000003F80000000
3FC000003F80000000
1FE000003F80000000
0FF000003F80000000
0FF800003F80000000
07FE00003F80000000
03FF00003F80000000
01FFE0003F80000000
00FFFE003F80000000
007FFFFFFFFFFFFFF0
001FFFFFFFFFFFFFF0
000FFFFFFFFFFFFFF0
0001FFFFFFFFFFFFF0
00003FFFFFFFFFFFF0
000003FFFFFFFFFFF0
ENDCHAR
STARTCHAR oe
ENCODING -1
SWIDTH 1022 0
DWIDTH 74 0
BBX 66 41 4 -1
BITMAP
0007FE00000FF80000
003FFF80007FFF0000
00FFFFE001FFFFC000
01FFFFF807FFFFF000
03FFFFFC0FFFFFF800
07FE07FE1FF807FC00
0FF801FF3FC001FC00
1FE0007F7F8000FE00
1FC0007FFF00007F00
3FC0003FFE00003F00
3F80001FFC00003F80
7F80001FFC00001F80
7F00000FF800001F80
7F00000FF800000F80
7F00000FF800000FC0
FE000007F000000FC0
FE000007F000000FC0
FE000007FFFFFFFFC0
FE000007FFFFFFFFC0
FE000007FFFFFFFFC0
FE000007FFFFFFFFC0
FE000007FFFFFFFFC0
FE000007F000000000
FE000007F000000000
FE000007F000000000
FE000007F000000000
7F00000FF800000000
7F00000FF800000000
7F00000FF800000000
7F80001FFC00000000
3F80001FFC00000000
3FC0003FFE00000000
1FC0003FFF00000100
1FE0007F7F80000700
0FF801FF3FE0001F00
07FE07FE1FFC01FF00
03FFFFFC0FFFFFFF00
01FFFFF807FFFFFF00
00FFFFE001FFFFFE00
003FFFC0007FFFF000
0007FE00000FFE0000
ENDCHAR
STARTCHAR endash
ENCODING -1
SWIDTH 500 0
DWIDTH 36 0
BBX 36 5 0 17
BITMAP
FFFFFFFFF0
FFFFFFFFF0
FFFFFFFFF0
FFFFFFFFF0
FFFFFFFFF0
ENDCHAR
STARTCHAR emdash
ENCODING -1
SWIDTH 1000 0
DWIDTH 72 0
BBX 72 5 0 17
BITMAP
FFFFFFFFFFFFFFFFFF
FFFFFFFFFFFFFFFFFF
FFFFFFFFFFFFFFFFFF
FFFFFFFFFFFFFFFFFF
FFFFFFFFFFFFFFFFFF
ENDCHAR
STARTCHAR quotedblleft
ENCODING -1
SWIDTH 518 0
DWIDTH 37 0
BBX 24 17 6 35
BITMAP
07C01F
0FC03F
0F803E
1F807E
1F807E
3F80FE
3F00FC
3F00FC
7F01FC
7E01F8
FE03F8
FE03F8
FE03F8
FE03F8
FE03F8
FE03F8
FE03F8
ENDCHAR
STARTCHAR quotedblright
ENCODING -1
SWIDTH 518 0
DWIDTH 37 0
BBX 24 17 6 35
BITMAP
1FC07F
1FC07F
1FC07F
1FC07F
1FC07F
1FC07F
1FC07F
1F807E
3F80FE
3F00FC
3F00FC
7F01FC
7E01F8
7E01F8
7C01F0
FC03F0
F803E0
ENDCHAR
STARTCHAR quoteleft
ENCODING -1
SWIDTH 317 0
DWIDTH 23 0
BBX 10 17 6 35
BITMAP
07C0
0FC0
0F80
1F80
1F80
3F80
3F00
3F00
7F00
7E00
FE00
FE00
FE00
FE00
FE00
FE00
FE00
ENDCHAR
STARTCHAR quoteright
ENCODING -1
SWIDTH 317 0
DWIDTH 23 0
BBX 10 17 6 35
BITMAP
1FC0
1FC0
1FC0
1FC0
1FC0
1FC0
1FC0
3F80
3F80
3F00
3F00
7E00
7E00
7E00
7C00
FC00
F800
ENDCHAR
STARTCHAR lozenge
ENCODING -1
SWIDTH 494 0
DWIDTH 36 0
BBX 35 75 0 -17
BITMAP
0000400000
0000400000
0000E00000
0000E00000
0001F00000
0001F00000
0003F80000
0003F80000
0003F80000
0007BC0000
0007BC0000
000F1E0000
000F1E0000
001E0F0000
001E0F0000
003C078000
003C078000
007803C000
007803C000
00F001E000
00F001E000
01E000F000
01E000F000
03E000F800
03C0007800
03C0007800
0780003C00
0780003C00
0F00001E00
0F00001E00
1E00000F00
1E00000F00
3C00000780
3C00000780
78000003C0
78000003C0
F0000001E0
F0000001E0
78000003C0
78000003C0
7C000007C0
3C00000780
3C00000780
1E00000F00
1E00000F00
0F00001E00
0F00001E00
0780003C00
0780003C00
03C0007800
03C0007800
01E000F000
01E000F000
01F001F000
00F001E000
00F001E000
007803C000
007803C000
003C078000
003C078000
001E0F0000
001E0F0000
000F1E0000
000F1E0000
0007BC0000
0007BC0000
0003F80000
0003F80000
0003F80000
0001F00000
0001F00000
0000E00000
0000E00000
0000400000
0000400000
ENDCHAR
STARTCHAR Ydieresis
ENCODING -1
SWIDTH 610 0
DWIDTH 44 0
BBX 45 66 -1 0
BITMAP
0007F01FC000
0007F01FC000
0007F01FC000
0007F01FC000
0007F01FC000
0007F01FC000
0007F01FC000
000000000000
000000000000
000000000000
000000000000
000000000000
000000000000
000000000000
FF00000007F8
7F8000000FF0
3F8000000FE0
3FC000001FE0
1FE000003FC0
0FF000007F80
07F000007F00
07F80000FF00
03FC0001FE00
01FC0001FC00
01FE0003FC00
00FF0007F800
007F0007F000
007F800FF000
003FC01FE000
001FC01FC000
000FE03FC000
000FF07F8000
0007F87F0000
0003F8FE0000
0003FDFE0000
0001FFFC0000
0000FFF80000
0000FFF80000
00007FF00000
00003FE00000
00003FE00000
00001FC00000
00001FC00000
00001FC00000
00001FC00000
00001FC00000
00001FC00000
00001FC00000
00001FC00000
00001FC00000
00001FC00000
00001FC00000
00001FC00000
00001FC00000
00001FC00000
00001FC00000
00001FC00000
00001FC00000
00001FC00000
00001FC00000
00001FC00000
00001FC00000
00001FC00000
00001FC00000
00001FC00000
00001FC00000
ENDCHAR
STARTCHAR fraction
ENCODING -1
SWIDTH 166 0
DWIDTH 12 0
BBX 38 54 -13 -1
BITMAP
00000000FC
00000000F8
00000001F8
00000003F0
00000003E0
00000007E0
00000007C0
0000000FC0
0000001F80
0000001F00
0000003F00
0000003E00
0000007E00
000000FC00
000000F800
000001F800
000001F000
000003F000
000007E000
000007C000
00000FC000
00000F8000
00001F8000
00003F0000
00003E0000
00007E0000
00007C0000
0000F80000
0001F80000
0001F00000
0003F00000
0007E00000
0007C00000
000FC00000
000F800000
001F800000
003F000000
003E000000
007E000000
007C000000
00FC000000
01F8000000
01F0000000
03F0000000
03E0000000
07E0000000
0FC0000000
0F80000000
1F80000000
1F00000000
3F00000000
7E00000000
7C00000000
FC00000000
ENDCHAR
STARTCHAR guilsinglleft
ENCODING -1
SWIDTH 399 0
DWIDTH 29 0
BBX 16 32 6 5
BITMAP
0001
0003
0007
000F
001F
003F
007F
00FE
01FC
03F8
0FF0
1FE0
3FC0
7F80
FE00
FC00
FC00
FE00
7F00
3FC0
1FE0
0FF0
03F8
01FC
00FE
007F
003F
001F
000F
0007
0003
0001
ENDCHAR
STARTCHAR guilsinglright
ENCODING -1
SWIDTH 399 0
DWIDTH 29 0
BBX 16 32 7 5
BITMAP
8000
C000
E000
F000
F800
FC00
FE00
7F00
3F80
1FC0
0FF0
07F8
03FC
00FE
007F
003F
003F
007F
01FE
03FC
07F8
0FF0
1FC0
3F80
7F00
FE00
FC00
F800
F000
E000
C000
8000
ENDCHAR
STARTCHAR fi
ENCODING -1
SWIDTH 629 0
DWIDTH 45 0
BBX 37 55 2 0
BITMAP
0007FF01F8
001FFF01F8
003FFF01F8
007FFF01F8
00FFFF01F8
01FE0001F8
01F80001F8
01F80001F8
03F0000000
03F0000000
03F0000000
03F0000000
03F0000000
03F0000000
03F0000000
03F0000000
FFFFFFFFF8
FFFFFFFFF8
FFFFFFFFF8
FFFFFFFFF8
FFFFFFFFF8
03F00001F8
03F00001F8
03F00001F8
03F00001F8
03F00001F8
03F00001F8
03F00001F8
03F00001F8
03F00001F8
03F00001F8
03F00001F8
03F00001F8
03F00001F8
03F00001F8
03F00001F8
03F00001F8
03F00001F8
03F00001F8
03F00001F8
03F00001F8
03F00001F8
03F00001F8
03F00001F8
03F00001F8
03F00001F8
03F00001F8
03F00001F8
03F00001F8
03F00001F8
03F00001F8
03F00001F8
03F00001F8
03F00001F8
03F00001F8
ENDCHAR
STARTCHAR fl
ENCODING -1
SWIDTH 629 0
DWIDTH 45 0
BBX 37 55 2 0
BITMAP
0003FFFFF8
001FFFFFF8
003FFFFFF8
007FFFFFF8
00FFFFFFF8
01FE0001F8
01F80001F8
01F80001F8
03F00001F8
03F00001F8
03F00001F8
03F00001F8
03F00001F8
03F00001F8
03F00001F8
03F00001F8
FFFFFE01F8
FFFFFE01F8
FFFFFE01F8
FFFFFE01F8
FFFFFE01F8
03F00001F8
03F00001F8
03F00001F8
03F00001F8
03F00001F8
03F00001F8
03F00001F8
03F00001F8
03F00001F8
03F00001F8
03F00001F8
03F00001F8
03F00001F8
03F00001F8
03F00001F8
03F00001F8
03F00001F8
03F00001F8
03F00001F8
03F00001F8
03F00001F8
03F00001F8
03F00001F8
03F00001F8
03F00001F8
03F00001F8
03F00001F8
03F00001F8
03F00001F8
03F00001F8
03F00001F8
03F00001F8
03F00001F8
03F00001F8
ENDCHAR
STARTCHAR daggerdbl
ENCODING -1
SWIDTH 500 0
DWIDTH 36 0
BBX 32 59 2 -7
BITMAP
0007E000
0007E000
0007E000
0007E000
0007E000
0007E000
0007E000
0007E000
0007E000
0007E000
0007E000
0007E000
0007E000
0007E000
0007E000
FFFFFFFF
FFFFFFFF
FFFFFFFF
FFFFFFFF
FFFFFFFF
0007E000
0007E000
0007E000
0007E000
0007E000
0007E000
0007E000
0007E000
0007E000
0007E000
0007E000
0007E000
0007E000
0007E000
0007E000
0007E000
0007E000
0007E000
0007E000
FFFFFFFF
FFFFFFFF
FFFFFFFF
FFFFFFFF
FFFFFFFF
0007E000
0007E000
0007E000
0007E000
0007E000
0007E000
0007E000
0007E000
0007E000
0007E000
0007E000
0007E000
0007E000
0007E000
0007E000
ENDCHAR
STARTCHAR quotesinglbase
ENCODING -1
SWIDTH 317 0
DWIDTH 23 0
BBX 10 17 6 -8
BITMAP
1FC0
1FC0
1FC0
1FC0
1FC0
1FC0
1FC0
1F80
3F80
3F00
3F00
7F00
7E00
7E00
7C00
FC00
F800
ENDCHAR
STARTCHAR quotedblbase
ENCODING -1
SWIDTH 518 0
DWIDTH 37 0
BBX 24 17 6 -8
BITMAP
1FC07F
1FC07F
1FC07F
1FC07F
1FC07F
1FC07F
1FC07F
1F807E
3F80FE
3F00FC
3F00FC
7F01FC
7E01F8
7E01F8
7C01F0
FC03F0
F803E0
ENDCHAR
STARTCHAR perthousand
ENCODING -1
SWIDTH 1341 0
DWIDTH 97 0
BBX 88 54 4 -1
BITMAP
00FF0000001F8000000000
03FFC000001F0000000000
07FFE000003F0000000000
0FFFF000007E0000000000
1FC3F800007C0000000000
3F81FC0000FC0000000000
3F00FC0000F80000000000
7E007E0001F80000000000
7E007E0003F00000000000
7E007E0003E00000000000
FC003F0007E00000000000
FC003F0007C00000000000
FC003F000FC00000000000
FC003F001F800000000000
FC003F001F000000000000
FC003F003F000000000000
FC003F003E000000000000
FC003F007E000000000000
FC003F00FC000000000000
7E007E00F8000000000000
7E007E01F8000000000000
7E007E01F0000000000000
3F00FC03F0000000000000
3F81FC07E0000000000000
1FC3F807C0000000000000
0FFFF00FC00FF00000FF00
07FFE00F803FFC0003FFC0
03FFC01F807FFE0007FFE0
00FF003F00FFFF000FFFF0
0000003E01FC3F801FC3F8
0000007E03F81FC03F81FC
0000007C03F00FC03F00FC
000000F807E007E07E007E
000001F807E007E07E007E
000001F007E007E07E007E
000003F00FC003F0FC003F
000007E00FC003F0FC003F
000007C00FC003F0FC003F
00000FC00FC003F0FC003F
00000F800FC003F0FC003F
00001F800FC003F0FC003F
00003F000FC003F0FC003F
00003E000FC003F0FC003F
00007E000FC003F0FC003F
00007C0007E007E07E007E
0000FC0007E007E07E007E
0001F80007E007E07E007E
0001F00003F00FC03F00FC
0003F00003F81FC03F81FC
0003E00001FC3F801FC3F8
0007E00000FFFF000FFFF0
000FC000007FFE0007FFE0
000F8000003FFC0003FFC0
001F8000000FF00000FF00
ENDCHAR
STARTCHAR dotlessi
ENCODING -1
SWIDTH 277 0
DWIDTH 20 0
BBX 6 39 7 0
BITMAP
FC
FC
FC
FC
FC
FC
FC
FC
FC
FC
FC
FC
FC
FC
FC
FC
FC
FC
FC
FC
FC
FC
FC
FC
FC
FC
FC
FC
FC
FC
FC
FC
FC
FC
FC
FC
FC
FC
FC
ENDCHAR
STARTCHAR circumflex
ENCODING -1
SWIDTH 500 0
DWIDTH 36 0
BBX 22 13 7 45
BITMAP
00FC00
01FE00
01FE00
03FF00
03FF00
07CF80
0FCFC0
0F87C0
1F03E0
3E01F0
3E01F0
7C00F8
F8007C
ENDCHAR
STARTCHAR tilde
ENCODING -1
SWIDTH 500 0
DWIDTH 36 0
BBX 23 9 6 47
BITMAP
0F801E
1FE01E
3FF01E
7FFC3E
78FE3C
F87FFC
F01FF8
F00FF0
F003E0
ENDCHAR
STARTCHAR breve
ENCODING -1
SWIDTH 500 0
DWIDTH 36 0
BBX 22 10 7 48
BITMAP
F0003C
F0003C
F8007C
7C00F8
7F03F8
7FFFF8
3FFFF0
1FFFE0
0FFFC0
01FE00
ENDCHAR
STARTCHAR dotaccent
ENCODING -1
SWIDTH 500 0
DWIDTH 36 0
BBX 7 7 14 48
BITMAP
FE
FE
FE
FE
FE
FE
FE
ENDCHAR
STARTCHAR ring
ENCODING -1
SWIDTH 500 0
DWIDTH 36 0
BBX 19 19 8 44
BITMAP
03F800
0FFE00
1FFF00
3FFF80
7E0FC0
7C07C0
F803E0
F001E0
F001E0
F001E0
F001E0
F001E0
F803E0
7C07C0
7E0FC0
3FFF80
1FFF00
0FFE00
03F800
ENDCHAR
STARTCHAR hungarumlaut
ENCODING -1
SWIDTH 500 0
DWIDTH 36 0
BBX 25 13 8 45
BITMAP
01F83F80
03F03F00
03E07E00
07E07E00
07C0FC00
0FC0F800
0F81F800
1F01F000
3F03F000
3E03E000
7E07C000
7C07C000
F80F8000
ENDCHAR
STARTCHAR ogonek
ENCODING -1
SWIDTH 500 0
DWIDTH 36 0
BBX 13 14 12 -14
BITMAP
0F00
1E00
3C00
7C00
7800
F800
F800
F800
F800
FC08
7FF8
7FF8
3FF8
0FF0
ENDCHAR
STARTCHAR caron
ENCODING -1
SWIDTH 500 0
DWIDTH 36 0
BBX 22 13 7 45
BITMAP
F8007C
7C00F8
3E01F0
3E01F0
1F03E0
0F87C0
0FCFC0
07CF80
03FF00
03FF00
01FE00
01FE00
00FC00
ENDCHAR
STARTCHAR Lslash
ENCODING -1
SWIDTH 562 0
DWIDTH 40 0
BBX 41 52 -1 0
BITMAP
00FE00000000
00FE00000000
00FE00000000
00FE00000000
00FE00000000
00FE00000000
00FE00000000
00FE00000000
00FE00000000
00FE00000000
00FE00000000
00FE00000000
00FE00000000
00FE00000000
00FE00600000
00FE00E00000
00FE03F00000
00FE07F80000
00FE1FF00000
00FE3FC00000
00FEFF800000
00FFFE000000
00FFFC000000
00FFF0000000
00FFE0000000
00FF80000000
00FF00000000
03FE00000000
07FE00000000
0FFE00000000
3FFE00000000
7FFE00000000
FEFE00000000
7CFE00000000
38FE00000000
00FE00000000
00FE00000000
00FE00000000
00FE00000000
00FE00000000
00FE00000000
00FE00000000
00FE00000000
00FE00000000
00FE00000000
00FE00000000
00FFFFFFFF80
00FFFFFFFF80
00FFFFFFFF80
00FFFFFFFF80
00FFFFFFFF80
00FFFFFFFF80
ENDCHAR
STARTCHAR lslash
ENCODING -1
SWIDTH 284 0
DWIDTH 20 0
BBX 20 55 0 0
BITMAP
01F800
01F800
01F800
01F800
01F800
01F800
01F800
01F800
01F800
01F800
01F800
01F800
01F800
01F800
01F800
01F800
01F800
01F800
01F840
01F9C0
01FBE0
01FFF0
01FFE0
01FFC0
01FF00
01FE00
03F800
07F800
1FF800
3FF800
FFF800
FFF800
7DF800
31F800
01F800
01F800
01F800
01F800
01F800
01F800
01F800
01F800
01F800
01F800
01F800
01F800
01F800
01F800
01F800
01F800
01F800
01F800
01F800
01F800
01F800
ENDCHAR
STARTCHAR Scaron
ENCODING -1
SWIDTH 634 0
DWIDTH 46 0
BBX 37 67 5 -1
BITMAP
01F001F000
00F803E000
007C07C000
003E0F8000
001F1F0000
001FBF0000
000FFE0000
0007FC0000
0003F80000
0000000000
0000000000
0000000000
0000000000
0007FF8000
007FFFF800
01FFFFFF80
03FFFFFFC0
0FFFFFFFC0
1FFFFFFFC0
1FFC00FFC0
3FF0000FC0
7FC00001C0
7F80000040
7F00000000
FF00000000
FE00000000
FE00000000
FE00000000
FE00000000
FE00000000
FE00000000
FF00000000
7F80000000
7FC0000000
7FF0000000
3FFF000000
1FFFF80000
1FFFFF8000
07FFFFF000
03FFFFFC00
00FFFFFF00
001FFFFF80
0003FFFFC0
00000FFFE0
000000FFE0
0000003FF0
0000001FF0
0000000FF0
00000007F8
00000003F8
00000003F8
00000003F8
00000003F8
00000003F8
00000003F8
00000007F8
00000007F0
8000000FF0
F000001FF0
FE00007FE0
FFE003FFC0
FFFFFFFFC0
FFFFFFFF80
FFFFFFFE00
7FFFFFFC00
07FFFFE000
003FFE0000
ENDCHAR
STARTCHAR scaron
ENCODING -1
SWIDTH 520 0
DWIDTH 38 0
BBX 30 59 4 -1
BITMAP
0F8007C0
07C00F80
03E01F00
03E01F00
01F03E00
00F87C00
00FCFC00
007CF800
003FF000
003FF000
001FE000
001FE000
000FC000
00000000
00000000
00000000
00000000
00000000
003FFC00
01FFFFE0
07FFFFF0
1FFFFFF0
3FFFFFF0
3FE007F0
7F000070
7E000010
FE000000
FC000000
FC000000
FC000000
FC000000
FE000000
FF000000
7FC00000
7FF80000
3FFF8000
1FFFF800
0FFFFF00
07FFFFC0
00FFFFE0
000FFFF0
0000FFF8
00001FF8
000003F8
000001FC
000000FC
000000FC
000000FC
000000FC
000000FC
800001FC
E00001F8
FC0007F8
FF801FF0
FFFFFFE0
FFFFFFC0
FFFFFF80
3FFFFE00
01FFE000
ENDCHAR
STARTCHAR Zcaron
ENCODING -1
SWIDTH 685 0
DWIDTH 49 0
BBX 43 66 3 0
BITMAP
001F001F0000
000F803E0000
0007C07C0000
0003E0F80000
0001F1F00000
0001FBF00000
0000FFE00000
00007FC00000
00003F800000
000000000000
000000000000
000000000000
000000000000
000000000000
7FFFFFFFFFC0
7FFFFFFFFFC0
7FFFFFFFFFC0
7FFFFFFFFFC0
7FFFFFFFFFC0
7FFFFFFFFFC0
000000007F80
00000000FF00
00000001FE00
00000003FE00
00000007FC00
00000007F800
0000000FF000
0000001FE000
0000003FE000
0000007FC000
0000007F8000
000000FF0000
000001FE0000
000003FE0000
000007FC0000
000007F80000
00000FF00000
00001FE00000
00003FC00000
00007FC00000
0000FF800000
0000FF000000
0001FE000000
0003FC000000
0007FC000000
000FF8000000
000FF0000000
001FE0000000
003FC0000000
007FC0000000
00FF80000000
01FF00000000
01FE00000000
03FC00000000
07F800000000
0FF800000000
1FF000000000
1FE000000000
3FC000000000
7F8000000000
FFFFFFFFFFE0
FFFFFFFFFFE0
FFFFFFFFFFE0
FFFFFFFFFFE0
FFFFFFFFFFE0
FFFFFFFFFFE0
ENDCHAR
STARTCHAR zcaron
ENCODING -1
SWIDTH 524 0
DWIDTH 38 0
BBX 32 58 3 0
BITMAP
07C003E0
03E007C0
01F00F80
01F00F80
00F81F00
007C3E00
007E7E00
003E7C00
001FF800
001FF800
000FF000
000FF000
0007E000
00000000
00000000
00000000
00000000
00000000
00000000
7FFFFFFF
7FFFFFFF
7FFFFFFF
7FFFFFFF
7FFFFFFF
000000FF
000001FE
000003FE
000003FC
000007F8
00000FF0
00001FE0
00003FC0
00007F80
0000FF00
0001FF00
0001FE00
0003FC00
0007F800
000FF000
001FE000
003FC000
007FC000
00FF8000
00FF0000
01FE0000
03FC0000
07F80000
0FF00000
1FE00000
3FE00000
7FC00000
7F800000
FF000000
FFFFFFFF
FFFFFFFF
FFFFFFFF
FFFFFFFF
FFFFFFFF
ENDCHAR
STARTCHAR minus
ENCODING -1
SWIDTH 837 0
DWIDTH 60 0
BBX 45 6 8 20
BITMAP
FFFFFFFFFFF8
FFFFFFFFFFF8
FFFFFFFFFFF8
FFFFFFFFFFF8
FFFFFFFFFFF8
FFFFFFFFFFF8
ENDCHAR
STARTCHAR Gbreve
ENCODING -1
SWIDTH 774 0
DWIDTH 56 0
BBX 46 67 4 -1
BITMAP
00078001E000
0007C003E000
0003E007C000
0003F00FC000
0001FFFF8000
0000FFFF0000
00007FFE0000
00001FF00000
000000000000
000000000000
000000000000
000000000000
000000000000
00000FFF8000
0000FFFFF800
0003FFFFFF00
000FFFFFFFC0
003FFFFFFFF0
007FFFFFFFF8
00FFF800FFF8
01FFC0000FF8
03FF000001F8
07FC00000078
0FF800000018
0FF000000008
1FE000000000
1FC000000000
3FC000000000
3F8000000000
7F8000000000
7F0000000000
7F0000000000
7F0000000000
FF0000000000
FE0000000000
FE0000000000
FE0000000000
FE0000000000
FE00001FFFFC
FE00001FFFFC
FE00001FFFFC
FE00001FFFFC
FE00001FFFFC
FE00001FFFFC
FE00000001FC
FE00000001FC
FF00000001FC
7F00000001FC
7F00000001FC
7F00000001FC
7F80000001FC
3F80000001FC
3FC0000001FC
1FC0000001FC
1FE0000001FC
0FF0000001FC
0FF8000001FC
07FC000001FC
03FF000001FC
01FFC0000FFC
00FFF8007FFC
007FFFFFFFF8
003FFFFFFFF0
000FFFFFFFC0
0007FFFFFF00
0000FFFFF800
00000FFF0000
ENDCHAR
STARTCHAR gbreve
ENCODING -1
SWIDTH 634 0
DWIDTH 46 0
BBX 35 73 4 -15
BITMAP
00F0003C00
00F0003C00
00F8007C00
007C00F800
007F03F800
007FFFF800
003FFFF000
001FFFE000
000FFFC000
0001FE0000
0000000000
0000000000
0000000000
0000000000
0000000000
0000000000
0000000000
0000000000
000FF80000
007FFE07E0
00FFFF87E0
03FFFFC7E0
07FFFFE7E0
0FFE07F7E0
0FF000FFE0
1FE0007FE0
3FC0003FE0
3F80003FE0
3F80001FE0
7F00000FE0
7F00000FE0
7F00000FE0
FF00000FE0
FE000007E0
FE000007E0
FE000007E0
FE000007E0
FE000007E0
FE000007E0
FE000007E0
FE000007E0
FE000007E0
FE000007E0
FF00000FE0
7F00000FE0
7F00000FE0
7F00000FE0
3F80001FE0
3F80003FE0
3FC0003FE0
1FE0007FE0
0FF000FFE0
0FFE07F7E0
07FFFFE7E0
03FFFFC7E0
00FFFF87E0
007FFE07E0
000FF807E0
00000007E0
0000000FC0
0000000FC0
0000000FC0
0000001FC0
0000001F80
0000003F80
0400007F80
070001FF00
07F007FE00
07FFFFFC00
07FFFFF800
07FFFFF000
03FFFFC000
001FFC0000
ENDCHAR
STARTCHAR Idotaccent
ENCODING -1
SWIDTH 294 0
DWIDTH 21 0
BBX 7 66 7 0
BITMAP
FE
FE
FE
FE
FE
FE
FE
00
00
00
00
00
00
00
FE
FE
FE
FE
FE
FE
FE
FE
FE
FE
FE
FE
FE
FE
FE
FE
FE
FE
FE
FE
FE
FE
FE
FE
FE
FE
FE
FE
FE
FE
FE
FE
FE
FE
FE
FE
FE
FE
FE
FE
FE
FE
FE
FE
FE
FE
FE
FE
FE
FE
FE
FE
ENDCHAR
STARTCHAR Scedilla
ENCODING -1
SWIDTH 634 0
DWIDTH 46 0
BBX 37 67 5 -14
BITMAP
0007FF8000
007FFFF800
01FFFFFF80
03FFFFFFC0
0FFFFFFFC0
1FFFFFFFC0
1FFC00FFC0
3FF0000FC0
7FC00001C0
7F80000040
7F00000000
FF00000000
FE00000000
FE00000000
FE00000000
FE00000000
FE00000000
FE00000000
FF00000000
7F80000000
7FC0000000
7FF0000000
3FFF000000
1FFFF80000
1FFFFF8000
07FFFFF000
03FFFFFC00
00FFFFFF00
001FFFFF80
0003FFFFC0
00000FFFE0
000000FFE0
0000003FF0
0000001FF0
0000000FF0
00000007F8
00000003F8
00000003F8
00000003F8
00000003F8
00000003F8
00000003F8
00000007F8
00000007F0
8000000FF0
F000001FF0
FE00007FE0
FFE003FFC0
FFFFFFFFC0
FFFFFFFF80
FFFFFFFE00
7FFFFFFC00
07FFFFE000
003FFE0000
00003C0000
00001E0000
00001F0000
00000F0000
00000F8000
00000F8000
00000F8000
00001F8000
00203F8000
003FFF0000
003FFF0000
003FFE0000
001FF00000
ENDCHAR
STARTCHAR scedilla
ENCODING -1
SWIDTH 520 0
DWIDTH 38 0
BBX 30 54 4 -14
BITMAP
003FFC00
01FFFFE0
07FFFFF0
1FFFFFF0
3FFFFFF0
3FE007F0
7F000070
7E000010
FE000000
FC000000
FC000000
FC000000
FC000000
FE000000
FF000000
7FC00000
7FF80000
3FFF8000
1FFFF800
0FFFFF00
07FFFFC0
00FFFFE0
000FFFF0
0000FFF8
00001FF8
000003F8
000001FC
000000FC
000000FC
000000FC
000000FC
000000FC
800001FC
E00001F8
FC0007F8
FF801FF0
FFFFFFE0
FFFFFFC0
FFFFFF80
3FFFFE00
01FFE000
0001E000
0000F000
0000F800
00007800
00007C00
00007C00
00007C00
0000FC00
0101FC00
01FFF800
01FFF800
01FFF000
00FF8000
ENDCHAR
STARTCHAR Cacute
ENCODING -1
SWIDTH 698 0
DWIDTH 50 0
BBX 42 67 4 -1
BITMAP
0000001F8000
0000003F0000
0000007E0000
000000FC0000
000001F80000
000001F00000
000003F00000
000007E00000
00000FC00000
000000000000
000000000000
000000000000
000000000000
00000FFE0000
0000FFFFE000
0007FFFFFC00
001FFFFFFF00
003FFFFFFF80
007FFFFFFFC0
00FFF801FFC0
01FF80003FC0
03FE000007C0
07FC000003C0
0FF8000000C0
0FF000000040
1FE000000000
1FC000000000
3FC000000000
3F8000000000
7F8000000000
7F0000000000
7F0000000000
7F0000000000
FF0000000000
FE0000000000
FE0000000000
FE0000000000
FE0000000000
FE0000000000
FE0000000000
FE0000000000
FE0000000000
FE0000000000
FE0000000000
FE0000000000
FE0000000000
FF0000000000
7F0000000000
7F0000000000
7F0000000000
7F8000000000
3F8000000000
3FC000000000
1FC000000000
1FE000000000
0FF000000040
0FF8000000C0
07FC000003C0
03FE000007C0
01FF80003FC0
01FFF801FFC0
007FFFFFFFC0
003FFFFFFF80
001FFFFFFE00
0007FFFFFC00
0000FFFFE000
00001FFE0000
ENDCHAR
STARTCHAR cacute
ENCODING -1
SWIDTH 549 0
DWIDTH 40 0
BBX 31 59 4 -1
BITMAP
000000FE
000001FC
000003F8
000007F0
00000FE0
00000FC0
00001F80
00003F00
00007E00
00007E00
0000FC00
0001F800
0003F000
00000000
00000000
00000000
00000000
00000000
0001FFC0
001FFFFC
007FFFFE
00FFFFFE
03FFFFFE
07FF00FE
0FFC000E
0FF00002
1FE00000
3FC00000
3F800000
7F800000
7F000000
7F000000
7F000000
FE000000
FE000000
FE000000
FE000000
FE000000
FE000000
FE000000
FE000000
FE000000
FE000000
FE000000
7F000000
7F000000
7F000000
7F800000
3F800000
3FC00000
1FE00000
0FF00002
0FFC000E
07FF00FE
03FFFFFE
01FFFFFE
007FFFFE
001FFFFC
0003FF80
ENDCHAR
STARTCHAR Ccaron
ENCODING -1
SWIDTH 698 0
DWIDTH 50 0
BBX 42 67 4 -1
BITMAP
0003E003E000
0001F007C000
0000F80F8000
00007C1F0000
00003E3E0000
00003F7E0000
00001FFC0000
00000FF80000
000007F00000
000000000000
000000000000
000000000000
000000000000
00000FFE0000
0000FFFFE000
0007FFFFFC00
001FFFFFFF00
003FFFFFFF80
007FFFFFFFC0
00FFF801FFC0
01FF80003FC0
03FE000007C0
07FC000003C0
0FF8000000C0
0FF000000040
1FE000000000
1FC000000000
3FC000000000
3F8000000000
7F8000000000
7F0000000000
7F0000000000
7F0000000000
FF0000000000
FE0000000000
FE0000000000
FE0000000000
FE0000000000
FE0000000000
FE0000000000
FE0000000000
FE0000000000
FE0000000000
FE0000000000
FE0000000000
FE0000000000
FF0000000000
7F0000000000
7F0000000000
7F0000000000
7F8000000000
3F8000000000
3FC000000000
1FC000000000
1FE000000000
0FF000000040
0FF8000000C0
07FC000003C0
03FE000007C0
01FF80003FC0
01FFF801FFC0
007FFFFFFFC0
003FFFFFFF80
001FFFFFFE00
0007FFFFFC00
0000FFFFE000
00001FFE0000
ENDCHAR
STARTCHAR ccaron
ENCODING -1
SWIDTH 549 0
DWIDTH 40 0
BBX 31 59 4 -1
BITMAP
00F8007C
007C00F8
003E01F0
003E01F0
001F03E0
000F87C0
000FCFC0
0007CF80
0003FF00
0003FF00
0001FE00
0001FE00
0000FC00
00000000
00000000
00000000
00000000
00000000
0001FFC0
001FFFFC
007FFFFE
00FFFFFE
03FFFFFE
07FF00FE
0FFC000E
0FF00002
1FE00000
3FC00000
3F800000
7F800000
7F000000
7F000000
7F000000
FE000000
FE000000
FE000000
FE000000
FE000000
FE000000
FE000000
FE000000
FE000000
FE000000
FE000000
7F000000
7F000000
7F000000
7F800000
3F800000
3FC00000
1FE00000
0FF00002
0FFC000E
07FF00FE
03FFFFFE
01FFFFFE
007FFFFE
001FFFFC
0003FF80
ENDCHAR
STARTCHAR dcroat
ENCODING -1
SWIDTH 634 0
DWIDTH 46 0
BBX 40 56 4 -1
BITMAP
00000007E0
00000007E0
00000007E0
00000007E0
00000007E0
00000007E0
00003FFFFF
00003FFFFF
00003FFFFF
00003FFFFF
00000007E0
00000007E0
00000007E0
00000007E0
00000007E0
000FF807E0
003FFE07E0
00FFFF87E0
01FFFFC7E0
03FFFFE7E0
07FE07F7E0
0FF801FFE0
1FE0007FE0
1FC0003FE0
3FC0003FE0
3F80001FE0
7F80001FE0
7F00000FE0
7F00000FE0
7F00000FE0
FE000007E0
FE000007E0
FE000007E0
FE000007E0
FE000007E0
FE000007E0
FE000007E0
FE000007E0
FE000007E0
FE000007E0
FE000007E0
7F00000FE0
7F00000FE0
7F00000FE0
7F80001FE0
3F80001FE0
3FC0003FE0
1FC0003FE0
1FE0007FE0
0FF801FFE0
07FE07F7E0
07FFFFE7E0
01FFFFC7E0
00FFFF87E0
007FFE07E0
000FF80000
ENDCHAR
STARTCHAR periodcentered
ENCODING -1
SWIDTH 317 0
DWIDTH 23 0
BBX 7 9 8 20
BITMAP
FE
FE
FE
FE
FE
FE
FE
FE
FE
ENDCHAR
STARTCHAR Euro
ENCODING -1
SWIDTH 636 0
DWIDTH 46 0
BBX 41 54 0 -1
BITMAP
000001FF0000
00000FFFE000
00003FFFF800
0000FFFFFE00
0001FFFFFF00
0003FFFFFF80
0007FF00FF80
000FFC001F80
001FF0000780
001FE0000380
003FC0000180
003F80000080
007F80000000
007F00000000
007F00000000
00FF00000000
00FE00000000
00FE00000000
00FE00000000
3FFFFFFFE000
7FFFFFFFC000
7FFFFFFFC000
FFFFFFFF8000
01FC00000000
01FC00000000
01FC00000000
01FC00000000
01FC00000000
01FC00000000
01FC00000000
3FFFFFFC0000
7FFFFFF80000
7FFFFFF80000
FFFFFFF00000
00FE00000000
00FE00000000
00FE00000000
00FE00000000
007F00000000
007F00000000
007F80000000
003F80000000
003FC0000080
001FE0000180
001FE0000380
000FF8000780
000FFC001F80
0007FF80FF80
0003FFFFFF80
0001FFFFFF00
0000FFFFFE00
00003FFFF800
00000FFFE000
000001FF0000
ENDCHAR
STARTCHAR c6459
ENCODING -1
SWIDTH 500 0
DWIDTH 36 0
BBX 21 7 8 46
BITMAP
FE03F8
FE03F8
FE03F8
FE03F8
FE03F8
FE03F8
FE03F8
ENDCHAR
STARTCHAR c6460
ENCODING -1
SWIDTH 500 0
DWIDTH 36 0
BBX 13 9 13 44
BITMAP
01F8
03F0
07E0
0FC0
1F80
1F00
3F00
7E00
FC00
ENDCHAR
STARTCHAR c6461
ENCODING -1
SWIDTH 500 0
DWIDTH 36 0
BBX 23 8 6 46
BITMAP
0F801E
3FE01E
3FF81E
7FFE3C
F8FFFC
F03FF8
F00FF0
F003E0
ENDCHAR
STARTCHAR c6462
ENCODING -1
SWIDTH 500 0
DWIDTH 36 0
BBX 13 9 9 44
BITMAP
FE00
7F00
3F80
1F80
0FC0
07E0
03F0
01F0
00F8
ENDCHAR
STARTCHAR c6463
ENCODING -1
SWIDTH 500 0
DWIDTH 36 0
BBX 21 9 7 44
BITMAP
01FC00
03FE00
07FF00
0FDF80
0F8F80
1F07C0
3E03E0
7C01F0
F800F8
ENDCHAR
STARTCHAR c6466
ENCODING -1
SWIDTH 500 0
DWIDTH 36 0
BBX 21 9 7 44
BITMAP
F800F8
7C01F0
3E03E0
1F07C0
0F8F80
0FDF80
07FF00
03FE00
01FC00
ENDCHAR
STARTCHAR c6467
ENCODING -1
SWIDTH 400 0
DWIDTH 29 0
BBX 25 29 2 24
BITMAP
0003F000
0007F000
000FF000
001FF000
001FF000
003DF000
0079F000
00F9F000
00F1F000
01E1F000
03C1F000
07C1F000
0781F000
0F01F000
1E01F000
3C01F000
3C01F000
7801F000
F001F000
FFFFFF80
FFFFFF80
FFFFFF80
FFFFFF80
0001F000
0001F000
0001F000
0001F000
0001F000
0001F000
ENDCHAR
STARTCHAR c6468
ENCODING -1
SWIDTH 500 0
DWIDTH 36 0
BBX 22 8 7 45
BITMAP
F0003C
F8007C
7C00F8
7E01F8
3FFFF0
1FFFE0
0FFFC0
03FE00
ENDCHAR
STARTCHAR c6469
ENCODING -1
SWIDTH 500 0
DWIDTH 36 0
BBX 7 7 14 46
BITMAP
FE
FE
FE
FE
FE
FE
FE
ENDCHAR
ENDFONT
